<?xml version="1.0" encoding="utf-8"?>
<!-- Generator: Adobe Illustrator 16.2.1, SVG Export Plug-In . SVG Version: 6.00 Build 0)  -->
<!DOCTYPE svg PUBLIC "-//W3C//DTD SVG 1.1//EN" "http://www.w3.org/Graphics/SVG/1.1/DTD/svg11.dtd">
<svg version="1.1" id="Layer_1" xmlns="http://www.w3.org/2000/svg" xmlns:xlink="http://www.w3.org/1999/xlink" x="0px" y="0px"
	 width="24px" height="24px" viewBox="0 0 24 24" enable-background="new 0 0 24 24" xml:space="preserve">
<g>
	<g>
		<path fill="#BBCAD2" d="M21.5,5.218h-19C1.119,5.218,0,4.051,0,2.61s1.119-2.609,2.5-2.609h19c1.381,0,2.5,1.168,2.5,2.609
			S22.881,5.218,21.5,5.218z"/>
		<path fill="#BBCAD2" d="M21.5,14.609h-19c-1.381,0-2.5-1.168-2.5-2.608c0-1.441,1.119-2.609,2.5-2.609h19
			c1.381,0,2.5,1.168,2.5,2.609C24,13.441,22.881,14.609,21.5,14.609z"/>
		<path fill="#BBCAD2" d="M21.5,24h-19C1.119,24,0,22.832,0,21.391c0-1.439,1.119-2.607,2.5-2.607h19c1.381,0,2.5,1.168,2.5,2.607
			C24,22.832,22.881,24,21.5,24z"/>
	</g>
</g>
<g>
</g>
<g>
</g>
<g>
</g>
<g>
</g>
<g>
</g>
<g>
</g>
</svg>
