<?xml version="1.0" encoding="utf-8"?>
<!-- Generator: Adobe Illustrator 16.2.1, SVG Export Plug-In . SVG Version: 6.00 Build 0)  -->
<!DOCTYPE svg PUBLIC "-//W3C//DTD SVG 1.1//EN" "http://www.w3.org/Graphics/SVG/1.1/DTD/svg11.dtd">
<svg version="1.1" id="Layer_1" xmlns="http://www.w3.org/2000/svg" xmlns:xlink="http://www.w3.org/1999/xlink" x="0px" y="0px"
	 width="144px" height="84px" viewBox="0 0 144 84" enable-background="new 0 0 144 84" xml:space="preserve">
<g>
	<g>
		<path fill="#7DC0C8" d="M29.731,44.69c-4.451,6.688-10.979,14.99-20.109,12.771c-3.951-0.96-8.209-4.006-7.099-8.571
			c0.611-2.514,3.072-3.926,5.585-3.315c1.95,0.474,3.155,2.451,2.681,4.4c-0.087,0.359-0.278,0.693-0.417,1.04
			c0.349,0.355,0.619,0.584,1.132,0.709c1.795,0.437,4.79-1.824,5.201-3.518c0.299-1.23-0.29-5.068-0.542-6.488l-2.202-13.52
			c-0.349-2.367-0.492-2.891-1.21-3.065c-0.411-0.1-0.795-0.085-1.206-0.185c-1.693-0.411-1.92-1.934-1.546-3.473
			c0.474-1.949,1.732-3.328,3.887-2.805c1.539,0.374,3.159,1.312,4.904,1.735c1.847,0.449,3.766,0.372,5.715,0.846
			c2.002,0.486,2.69,1.903,2.229,3.802c-0.412,1.693-1.32,1.852-2.203,1.909c-0.871,0.006-1.743-0.206-1.968,0.718
			c-0.125,0.513,0.024,1.689,0.026,2.125l0.817,11.174l0.103,0.024l5.741-9.091c0.418-0.604,1.116-1.686,1.278-2.352
			c0.137-0.564-0.557-0.842-1.188-1.375c-0.644-0.483-1.276-1.234-0.902-2.773c0.386-1.59,1.762-2.777,3.403-2.379
			c1.437,0.35,2.902,1.249,4.493,1.636c1.744,0.424,3.562,0.322,5.357,0.759c2.155,0.523,2.641,2.326,2.167,4.275
			c-0.374,1.539-1.275,2.787-2.968,2.376c-0.461-0.112-0.873-0.431-1.336-0.542c-0.563-0.138-1.113,0.109-2.394,2.025L29.731,44.69z
			"/>
	</g>
	<g>
		<path fill="#7DC0C8" d="M82.732,36.906c-0.199-2.742-1.414-3.884-3.327-3.794c-1.619,0.067-4.576,1.365-4.257,5.771l0.34,4.699
			c0.206,2.841,0.444,3.413,0.835,3.385c0.196-0.015,0.336-0.121,0.524-0.234c0.188-0.112,0.381-0.176,0.724-0.2
			c0.734-0.054,1.473,0.631,1.622,2.688c0.135,1.86-0.343,3.422-1.714,3.521c-2.252,0.163-4.246-0.186-6.253-0.04
			c-1.86,0.135-3.685,0.76-5.35,0.88c-1.224,0.089-2.166-1.369-2.301-3.229c-0.106-1.469,0.336-2.83,1.952-2.947
			c0.343-0.024,0.595,0.056,0.892,0.084c0.248,0.03,0.503,0.159,0.749,0.142c0.685-0.05,0.842-0.602,0.633-3.491l-0.511-7.05
			c-0.202-2.79-0.492-3.408-1.129-3.362c-0.49,0.035-0.955,0.413-1.591,0.459c-1.616,0.117-2.25-1.166-2.356-2.635
			c-0.135-1.86,0.587-3.438,1.664-3.517c1.126-0.081,2.386,0.32,4.051,0.199c1.371-0.099,2.216-0.653,3.44-0.742
			c1.371-0.099,1.414,0.489,1.556,2.447l0.089,1.224l0.098-0.007c1.913-2.797,4.667-4.866,8.192-5.121
			c4.309-0.312,8.547,2.481,8.958,8.161l0.599,8.272c0.213,2.938,0.543,3.407,1.13,3.364c0.245-0.018,0.482-0.132,0.72-0.248
			c0.287-0.12,0.577-0.19,0.871-0.212c1.615-0.117,2.25,1.166,2.356,2.635c0.135,1.86-0.588,3.439-2.644,3.589
			c-2.105,0.152-4.1-0.196-6.106-0.051c-1.86,0.135-2.902,0.703-4.665,0.831c-1.077,0.077-2.019-0.691-2.203-3.237
			c-0.16-2.203,0.63-2.852,1.315-2.901c0.245-0.018,0.448,0.067,0.598,0.105c0.203,0.084,0.406,0.167,0.553,0.156
			c0.587-0.043,0.587-0.732,0.389-3.475L82.732,36.906z"/>
	</g>
	<g>
		<path fill="#7DC0C8" d="M48.347,42.786c-0.269,1.801-2.114,2.366-3.759,2.12c-1.92-0.286-3.398-1.908-3.1-3.905
			c0.368-2.468,3.207-4.325,9.238-3.425c1.957,0.293,4.591,0.886,6.169,2.122c1.9,1.484,2.05,3.43,1.605,6.405l-1.099,7.362
			c-0.229,1.527-0.04,1.876,0.391,1.94c0.312,0.047,0.638,0.016,0.951,0.062c1.253,0.187,1.8,1.349,1.631,2.484
			c-0.328,2.193-2.643,2.688-4.483,2.414c-1.802-0.27-3.7-1.233-4.091-3.173c-2.104,1.487-4.604,1.874-7.071,1.506
			c-3.563-0.532-6.69-2.921-6.094-6.915c1.386-9.281,12.808-2.652,13.579-7.821c0.223-1.489-1.043-2.398-2.335-2.591
			c-0.666-0.1-1.311-0.075-1.427,0.708L48.347,42.786z M51.314,49.994c-1.318,1.045-5.772-0.221-6.082,1.855
			c-0.205,1.37,0.822,2.004,1.958,2.174c2.31,0.345,3.651-0.856,3.996-3.167L51.314,49.994z"/>
	</g>
	<g>
		<path fill="#7DC0C8" d="M107.791,34.18c1.283,2.253-0.285,4.508-2.342,5.68c-2.398,1.367-5.48,0.854-6.903-1.643
			c-1.758-3.084-0.215-7.663,7.324-11.959c2.448-1.395,5.917-3.047,8.769-3.05c3.432-0.011,5.31,2.032,7.431,5.753l5.245,9.204
			c1.088,1.91,1.605,2.135,2.144,1.826c0.392-0.223,0.728-0.543,1.119-0.766c1.567-0.893,3.202-0.074,4.011,1.346
			c1.562,2.742-0.594,5.332-2.895,6.645c-2.252,1.283-5.223,1.873-7.367,0.047c-1.045,3.516-3.502,6.146-6.586,7.904
			c-4.455,2.539-10.054,2.615-12.899-2.377c-6.613-11.604,11.996-14.23,8.313-20.693c-1.061-1.861-3.276-1.766-4.893-0.845
			c-0.832,0.475-1.531,1.067-0.973,2.047L107.791,34.18z M117.451,39.636c-0.555,2.328-6.653,4.83-5.174,7.424
			c0.977,1.713,2.682,1.521,4.102,0.713c2.889-1.646,3.332-4.17,1.686-7.061L117.451,39.636z"/>
	</g>
</g>
<g>
	<path fill="#7DC0C8" d="M8.351,77.961v-2.985l-2.233-4.049h1.043l0.992,1.94c0.261,0.533,0.48,0.961,0.699,1.451h0.021
		c0.188-0.459,0.438-0.918,0.71-1.451l1.012-1.94h1.023l-2.348,4.039v2.995H8.351z"/>
	<path fill="#7DC0C8" d="M19.111,74.371c0,2.41-1.471,3.705-3.267,3.705c-1.868,0-3.162-1.451-3.162-3.58
		c0-2.233,1.377-3.695,3.256-3.695C17.87,70.801,19.111,72.272,19.111,74.371z M13.643,74.475c0,1.514,0.814,2.86,2.254,2.86
		s2.254-1.326,2.254-2.923c0-1.409-0.73-2.87-2.244-2.87C14.394,71.542,13.643,72.94,13.643,74.475z"/>
	<path fill="#7DC0C8" d="M22.244,70.927v4.175c0,1.565,0.699,2.233,1.639,2.233c1.033,0,1.711-0.689,1.711-2.233v-4.175h0.919v4.112
		c0,2.16-1.138,3.037-2.662,3.037c-1.44,0-2.526-0.814-2.526-3.006v-4.144H22.244z"/>
	<path fill="#7DC0C8" d="M33.527,75.748l-0.73,2.213h-0.939l2.401-7.034h1.085l2.4,7.034h-0.971l-0.751-2.213H33.527z
		 M35.845,75.039l-0.699-2.025c-0.157-0.459-0.261-0.877-0.366-1.283h-0.021c-0.104,0.406-0.209,0.845-0.355,1.272l-0.689,2.036
		H35.845z"/>
	<path fill="#7DC0C8" d="M39.822,71.021c0.459-0.084,1.127-0.146,1.743-0.146c0.971,0,1.607,0.188,2.035,0.574
		c0.345,0.313,0.553,0.793,0.553,1.347c0,0.918-0.584,1.534-1.315,1.784v0.031c0.532,0.188,0.856,0.689,1.023,1.42
		c0.229,0.98,0.396,1.659,0.542,1.931h-0.939c-0.115-0.209-0.271-0.804-0.459-1.681c-0.209-0.971-0.595-1.336-1.419-1.367H40.73
		v3.048h-0.908V71.021z M40.73,74.225h0.929c0.97,0,1.586-0.532,1.586-1.336c0-0.908-0.657-1.305-1.618-1.305
		c-0.438,0-0.741,0.031-0.897,0.073V74.225z"/>
	<path fill="#7DC0C8" d="M50.114,74.663H47.39v2.536h3.048v0.762h-3.966v-7.034h3.81v0.762H47.39v2.223h2.724V74.663z"/>
	<path fill="#7DC0C8" d="M55.918,77.961v-7.034h1.002l2.244,3.559c0.511,0.824,0.929,1.565,1.252,2.286l0.031-0.011
		c-0.083-0.939-0.104-1.795-0.104-2.892v-2.942h0.856v7.034H60.28l-2.233-3.569c-0.491-0.783-0.96-1.587-1.305-2.349l-0.031,0.011
		c0.052,0.887,0.062,1.732,0.062,2.901v3.006H55.918z"/>
	<path fill="#7DC0C8" d="M69.842,74.371c0,2.41-1.471,3.705-3.267,3.705c-1.868,0-3.162-1.451-3.162-3.58
		c0-2.233,1.377-3.695,3.256-3.695C68.6,70.801,69.842,72.272,69.842,74.371z M64.373,74.475c0,1.514,0.814,2.86,2.254,2.86
		s2.254-1.326,2.254-2.923c0-1.409-0.73-2.87-2.244-2.87C65.125,71.542,64.373,72.94,64.373,74.475z"/>
	<path fill="#7DC0C8" d="M73.141,71.699h-2.139v-0.772h5.208v0.772h-2.15v6.262h-0.919V71.699z"/>
	<path fill="#7DC0C8" d="M82.431,75.748l-0.73,2.213h-0.939l2.401-7.034h1.086l2.4,7.034h-0.971l-0.752-2.213H82.431z
		 M84.748,75.039l-0.699-2.025c-0.156-0.459-0.261-0.877-0.365-1.283h-0.021c-0.104,0.406-0.209,0.845-0.354,1.272l-0.689,2.036
		H84.748z"/>
	<path fill="#7DC0C8" d="M88.715,70.927h0.919v6.272h3.006v0.762h-3.925V70.927z"/>
	<path fill="#7DC0C8" d="M100.301,74.371c0,2.41-1.471,3.705-3.267,3.705c-1.868,0-3.162-1.451-3.162-3.58
		c0-2.233,1.378-3.695,3.256-3.695C99.059,70.801,100.301,72.272,100.301,74.371z M94.832,74.475c0,1.514,0.814,2.86,2.254,2.86
		c1.441,0,2.255-1.326,2.255-2.923c0-1.409-0.73-2.87-2.244-2.87C95.584,71.542,94.832,72.94,94.832,74.475z"/>
	<path fill="#7DC0C8" d="M102.525,77.961v-7.034h1.002l2.244,3.559c0.511,0.824,0.929,1.565,1.252,2.286l0.031-0.011
		c-0.084-0.939-0.104-1.795-0.104-2.892v-2.942h0.856v7.034h-0.919l-2.233-3.569c-0.49-0.783-0.96-1.587-1.305-2.349l-0.031,0.011
		c0.053,0.887,0.062,1.732,0.062,2.901v3.006H102.525z"/>
	<path fill="#7DC0C8" d="M114.069,74.663h-2.724v2.536h3.047v0.762h-3.966v-7.034h3.81v0.762h-2.891v2.223h2.724V74.663z"/>
</g>
<g>
</g>
<g>
</g>
<g>
</g>
<g>
</g>
<g>
</g>
<g>
</g>
</svg>
