<?xml version="1.0" encoding="utf-8"?>
<!-- Generator: Adobe Illustrator 16.2.1, SVG Export Plug-In . SVG Version: 6.00 Build 0)  -->
<!DOCTYPE svg PUBLIC "-//W3C//DTD SVG 1.1//EN" "http://www.w3.org/Graphics/SVG/1.1/DTD/svg11.dtd">
<svg version="1.1" id="Layer_1" xmlns="http://www.w3.org/2000/svg" xmlns:xlink="http://www.w3.org/1999/xlink" x="0px" y="0px"
	 width="144px" height="84px" viewBox="0.959 0 144 84" enable-background="new 0.959 0 144 84" xml:space="preserve">
<g>
	<g>
		<g>
			<path fill="#7CBFC7" d="M15.287,49.768l-0.076-0.006c-0.679-0.049-1.293-0.264-1.827-0.637c-0.84-0.588-1.017-1.314-1.017-1.822
				c-0.04-0.537-0.116-1.457-0.228-2.687c-0.114-1.25-0.204-2.419-0.265-3.51c-0.054-0.956-0.092-1.926-0.114-2.914
				c-0.547-0.626-0.867-1.446-0.955-2.45l-0.011-0.129l0.021-0.129c0.057-0.345,0.123-0.641,0.201-0.896
				c-0.457-0.933-0.93-1.794-1.404-2.56c-0.564-0.909-1.272-2.003-2.124-3.278c-0.865-1.297-1.552-2.405-2.037-3.291
				c-0.502-0.908-0.944-1.931-1.32-3.035C4.048,22.232,4,21.923,4,21.518c0-0.827,0.348-1.57,1.003-2.139
				c0.627-0.542,1.321-0.818,2.067-0.818c1.657,0,2.135,1.07,2.265,1.529c0.406,1.217,0.881,2.326,1.401,3.248
				c0.546,0.971,1.307,2.206,2.26,3.67c0.58,0.891,1.096,1.715,1.543,2.465c2.171-3.09,3.992-5.75,5.426-7.914
				c0.243-0.449,0.829-1.121,2.16-1.121c0.778,0,1.486,0.223,2.107,0.658c0.919,0.639,1.11,1.455,1.11,2.027
				c0,0.367-0.086,0.727-0.257,1.072l-0.053,0.095c-0.733,1.151-1.405,2.188-2.015,3.106c-0.611,0.922-1.187,1.768-1.728,2.537
				l-3.855,5.477c0.007,0.809,0.036,1.733,0.09,2.761c0.062,1.185,0.155,2.722,0.283,4.61c0.127,1.902,0.22,3.338,0.274,4.312
				c0.004,0.836-0.306,1.495-0.885,1.971c-0.505,0.412-1.121,0.646-1.835,0.696L15.287,49.768z"/>
		</g>
		<g>
			<path fill="#7CBFC7" d="M89.38,49.461l-0.078-0.01c-0.929-0.098-1.696-0.502-2.278-1.2c-0.478-0.571-0.872-1.25-1.178-2.017
				l-0.848-2.137c-0.324-0.957-0.798-2.062-1.428-3.339c-0.631-1.283-1.363-2.643-2.176-4.041c-0.815-1.407-1.719-2.895-2.68-4.418
				c-0.453-0.721-0.924-1.449-1.402-2.186c-0.072,0.758-0.161,1.578-0.262,2.471c-0.259,2.217-0.571,4.451-0.933,6.642
				c-0.366,2.213-0.771,4.207-1.205,5.925c-0.203,1.135-1.041,1.922-2.287,2.086l-0.129,0.018l-0.128-0.016
				c-0.646-0.077-1.217-0.34-1.691-0.783c-0.521-0.48-0.8-1.086-0.8-1.75l0.013-0.164c0.356-2.199,0.663-4.398,0.914-6.541
				c0.248-2.138,0.477-4.377,0.672-6.649c0.199-2.29,0.355-4.278,0.466-5.966c0.084-1.41,0.398-2.573,0.936-3.443
				c0.808-1.314,1.894-1.59,2.663-1.59c0.965,0,1.991,0.375,3.043,1.113c0.552,0.358,0.999,0.721,1.338,1.085
				c0.319,0.343,0.62,0.745,0.896,1.194l0.809,1.31c1.169,1.687,2.271,3.341,3.242,4.867c0.993,1.563,2.05,3.437,3.146,5.568
				c0.623,1.215,1.211,2.486,1.755,3.801c0.096-0.488,0.192-1.014,0.286-1.583c0.353-2.132,0.658-4.441,0.908-6.866
				c0.252-2.414,0.454-4.708,0.6-6.821c0.148-2.143,0.227-3.691,0.246-4.739c0-0.681,0.325-1.284,0.918-1.673
				c0.472-0.307,1.043-0.465,1.693-0.465c0.774,0,1.464,0.187,2.043,0.554c0.711,0.452,1.1,1.13,1.1,1.909
				c-0.031,2.139-0.183,4.931-0.453,8.314c-0.272,3.377-0.652,6.701-1.13,9.885c-0.492,3.285-1.033,5.666-1.658,7.28
				c-0.393,1.097-1.027,2.09-1.879,2.924c-0.93,0.909-1.932,1.396-2.983,1.447L89.38,49.461z"/>
		</g>
		<g>
			<path fill="#7CBFC7" d="M133.944,45.225c-1.056-1.521-1.844-2.723-2.346-3.576c-0.418-0.715-0.852-1.581-1.293-2.584
				c0.099-0.258,0.158-0.59,0.158-1.005c0-0.747-0.199-1.45-0.594-2.091c-0.337-0.542-0.806-0.936-1.375-1.17
				c-0.141-0.387-0.399-1.137-0.882-2.588c-0.635-1.912-1.32-3.781-2.032-5.557c-0.729-1.82-1.569-3.451-2.496-4.847
				c-1.108-1.669-2.264-2.481-3.524-2.481c-0.689,0-1.381,0.328-2.155,1.043c-0.347,0.354-0.74,0.967-1.239,1.928
				c-0.446,0.859-1.165,2.379-2.141,4.521l-2.186,4.787c-0.416,0.902-0.88,1.893-1.401,2.973c-0.261,0.02-0.528,0.04-0.797,0.061
				c-0.54,0.043-1.048,0.129-1.505,0.254c-0.568,0.156-1.064,0.439-1.477,0.842c-0.45,0.442-0.729,1.025-0.822,1.736l-0.019,0.126
				l0.018,0.129c0.068,0.62,0.277,1.164,0.614,1.617c0.307,0.416,0.711,0.693,1.168,0.814c-0.008,0.013-0.016,0.025-0.026,0.038
				c-0.593,0.907-1.034,1.647-1.353,2.26c-0.355,0.686-0.59,1.402-0.698,2.141l-0.018,0.117l0.011,0.117
				c0.055,0.721,0.362,1.371,0.887,1.88c0.536,0.521,1.186,0.798,1.869,0.798l0.115-0.006c1.342-0.146,2.024-0.881,2.349-1.451
				c0.582-0.971,1.746-3.062,3.553-6.386c0.102-0.005,0.212-0.011,0.334-0.019c0.488-0.027,0.983-0.039,1.485-0.039
				c2.491,0,5.352,0.112,8.51,0.335c1.72,3.779,3.232,6.488,4.62,8.274c0.423,0.638,1.165,1.027,2.208,1.156l0.101,0.012
				l0.102-0.005c0.714-0.05,1.333-0.259,1.849-0.626c0.619-0.448,0.961-1.099,0.961-1.834
				C134.477,46.373,134.31,45.82,133.944,45.225z M117.499,34.383h-0.964l3.057-7.047c0.045,0.1,0.093,0.207,0.142,0.323
				c0.584,1.343,1.179,2.843,1.77,4.462l0.855,2.343C120.868,34.412,119.241,34.383,117.499,34.383z"/>
		</g>
		<g>
			<path fill="#7CBFC7" d="M60.336,45.225c-1.056-1.521-1.844-2.723-2.344-3.576c-0.42-0.715-0.853-1.581-1.293-2.584
				c0.096-0.258,0.158-0.59,0.158-1.005c0-0.747-0.2-1.45-0.596-2.091c-0.337-0.542-0.805-0.936-1.375-1.17
				c-0.14-0.387-0.399-1.137-0.883-2.588c-0.635-1.912-1.319-3.781-2.031-5.557c-0.729-1.82-1.568-3.451-2.496-4.847
				c-1.107-1.669-2.263-2.481-3.524-2.481c-0.689,0-1.382,0.328-2.153,1.043c-0.348,0.354-0.742,0.967-1.241,1.928
				c-0.445,0.859-1.165,2.379-2.139,4.521l-2.188,4.787c-0.416,0.902-0.88,1.893-1.4,2.973c-0.262,0.02-0.528,0.04-0.798,0.061
				c-0.541,0.043-1.046,0.129-1.505,0.254c-0.567,0.156-1.063,0.439-1.476,0.842c-0.451,0.442-0.729,1.025-0.822,1.736l-0.019,0.126
				l0.017,0.129c0.069,0.62,0.277,1.164,0.614,1.617c0.307,0.416,0.712,0.693,1.169,0.814c-0.008,0.013-0.016,0.025-0.026,0.038
				c-0.593,0.907-1.035,1.647-1.354,2.26c-0.355,0.686-0.589,1.402-0.698,2.141l-0.018,0.117l0.011,0.117
				c0.055,0.721,0.362,1.371,0.887,1.88c0.536,0.521,1.186,0.798,1.869,0.798l0.115-0.006c1.341-0.146,2.024-0.881,2.349-1.451
				c0.583-0.971,1.747-3.062,3.554-6.386c0.101-0.005,0.212-0.011,0.333-0.019c0.489-0.027,0.982-0.039,1.485-0.039
				c2.491,0,5.352,0.112,8.51,0.335c1.72,3.779,3.232,6.488,4.62,8.274c0.423,0.638,1.166,1.027,2.209,1.156l0.101,0.012
				l0.101-0.005c0.715-0.05,1.335-0.259,1.85-0.626c0.619-0.448,0.96-1.099,0.96-1.834C60.868,46.373,60.701,45.82,60.336,45.225z
				 M43.891,34.383h-0.964l3.058-7.047c0.044,0.1,0.093,0.207,0.143,0.323c0.583,1.343,1.177,2.843,1.769,4.462l0.855,2.343
				C47.262,34.412,45.633,34.383,43.891,34.383z"/>
		</g>
	</g>
	<g>
		<g>
			<path fill="#7CBFC7" d="M12.482,59.323c-0.151,0.429-0.349,0.913-0.597,1.45c-0.248,0.539-0.547,1.162-0.899,1.865
				c-0.351,0.703-0.643,1.289-0.873,1.75c-0.231,0.465-0.413,0.844-0.544,1.143c0.118,0.148,0.178,0.35,0.178,0.607
				c0,0.246-0.064,0.465-0.193,0.647c-0.13,0.185-0.297,0.274-0.503,0.274c-0.169,0.318-0.388,0.746-0.657,1.281
				c-0.27,0.537-0.438,0.866-0.503,0.987C7.83,69.445,7.696,69.5,7.487,69.5c-0.171,0-0.336-0.068-0.494-0.205
				c-0.159-0.137-0.245-0.309-0.259-0.508c0.008-0.023,0.021-0.062,0.031-0.12c0.011-0.056,0.019-0.099,0.026-0.12
				c0.108-0.277,0.315-0.721,0.617-1.33c0.301-0.611,0.481-0.979,0.542-1.104c-0.388-0.328-0.719-0.693-0.995-1.1
				c-0.276-0.408-0.513-0.83-0.708-1.27c-0.196-0.441-0.409-0.975-0.638-1.598c-0.231-0.627-0.415-1.102-0.557-1.43
				c-0.012-0.059-0.027-0.111-0.043-0.154c-0.012-0.041-0.026-0.102-0.047-0.172c0-0.205,0.09-0.377,0.27-0.52
				c0.182-0.139,0.379-0.209,0.595-0.209c0.366,0,0.608,0.148,0.724,0.445c0.096,0.244,0.231,0.621,0.398,1.131
				c0.171,0.511,0.318,0.934,0.444,1.268c0.125,0.336,0.283,0.676,0.472,1.021c0.189,0.345,0.409,0.66,0.663,0.947
				c1.309-2.836,2.102-4.695,2.379-5.568c0.082-0.271,0.324-0.404,0.726-0.404c0.23,0,0.438,0.059,0.613,0.178
				c0.178,0.117,0.264,0.271,0.264,0.465c0,0.02-0.004,0.047-0.015,0.086C12.488,59.271,12.482,59.302,12.482,59.323z"/>
			<path fill="#7CBFC7" d="M18.999,58.387c0.488,0.062,0.958,0.215,1.403,0.467c0.446,0.252,0.812,0.588,1.1,1.013
				c0.284,0.424,0.436,0.901,0.453,1.436c0,0.158,0.023,0.312,0.071,0.47c0.047,0.158,0.115,0.342,0.206,0.553
				c0.09,0.209,0.158,0.383,0.204,0.521c0.049,0.139,0.069,0.284,0.069,0.441c0,0.304-0.145,0.604-0.43,0.906
				c-0.478,0.5-0.95,0.933-1.422,1.295c-0.47,0.361-0.979,0.652-1.526,0.873c-0.549,0.219-1.125,0.328-1.732,0.328
				c-0.591,0-1.132-0.191-1.63-0.575c-0.495-0.388-0.902-0.873-1.216-1.464c-0.314-0.59-0.514-1.176-0.599-1.762
				c0-0.709,0.153-1.356,0.456-1.941c0.306-0.588,0.725-1.049,1.25-1.387c0.529-0.338,1.11-0.506,1.738-0.506h0.327
				c0.066-0.205,0.223-0.367,0.464-0.486C18.43,58.445,18.699,58.387,18.999,58.387z M20.161,60.82
				c-0.088-0.252-0.244-0.437-0.469-0.551c-0.224-0.113-0.525-0.228-0.898-0.338c-0.046,0.234-0.2,0.428-0.463,0.575
				c-0.263,0.147-0.598,0.232-1.007,0.254c-0.427,0.05-0.804,0.175-1.135,0.375c-0.33,0.199-0.536,0.478-0.621,0.83
				c-0.032,0.187-0.065,0.435-0.101,0.744c0.013,0.377,0.114,0.742,0.308,1.092c0.194,0.353,0.452,0.646,0.776,0.88
				c0.323,0.231,0.675,0.366,1.052,0.403c0.355-0.004,0.728-0.101,1.119-0.287c0.39-0.188,0.749-0.414,1.074-0.684
				c0.328-0.269,0.592-0.523,0.794-0.767c0.12-0.168,0.178-0.312,0.178-0.434c0-0.096-0.045-0.254-0.137-0.473
				c-0.092-0.219-0.15-0.418-0.175-0.596c-0.047-0.173-0.097-0.345-0.147-0.514C20.26,61.164,20.21,60.992,20.161,60.82z"/>
			<path fill="#7CBFC7" d="M26.383,58.771c-0.061,0.438-0.111,1.14-0.149,2.11c0.014,0.763,0.069,1.472,0.172,2.134
				c0.101,0.666,0.253,1.205,0.457,1.625c0.202,0.418,0.449,0.646,0.739,0.687c0.432,0,0.806-0.126,1.125-0.375
				c0.322-0.252,0.574-0.543,0.757-0.872c0.181-0.331,0.308-0.626,0.379-0.895c0.003-0.037,0.038-0.379,0.099-1.024
				c0.062-0.649,0.121-1.129,0.178-1.44c0.032-0.142,0.236-0.211,0.611-0.211c0.248,0,0.458,0.026,0.627,0.09
				c0.166,0.057,0.249,0.131,0.249,0.224c-0.048,0.47-0.101,0.983-0.158,1.542c-0.059,0.56-0.104,1.062-0.14,1.512
				c-0.034,0.445-0.059,0.919-0.07,1.416c0.036,0.859,0.081,1.508,0.13,1.947c0,0.1-0.183,0.15-0.548,0.15
				c-0.198,0-0.382-0.016-0.551-0.041c-0.168-0.024-0.263-0.062-0.281-0.109c-0.099-0.264-0.146-0.76-0.146-1.485
				c-0.335,0.431-0.662,0.724-0.981,0.882c-0.323,0.157-0.665,0.236-1.024,0.236h-0.402c-0.711-0.091-1.274-0.43-1.688-1.016
				s-0.697-1.28-0.854-2.086c-0.155-0.805-0.24-1.656-0.25-2.562c0.01-0.566,0.042-1.13,0.098-1.688
				c0.052-0.56,0.079-0.818,0.079-0.777c0.06-0.156,0.178-0.281,0.356-0.377c0.175-0.096,0.358-0.143,0.55-0.143
				C26.172,58.225,26.383,58.406,26.383,58.771z"/>
			<path fill="#7CBFC7" d="M44.717,66.807c-0.184,0.17-0.416,0.256-0.697,0.256c-0.138,0-0.258-0.026-0.353-0.08
				c-0.098-0.053-0.176-0.118-0.232-0.201c-0.055-0.079-0.105-0.176-0.149-0.283c-0.046-0.111-0.097-0.237-0.156-0.384
				c-0.366,0.35-0.84,0.629-1.424,0.842c-0.588,0.209-1.186,0.313-1.8,0.313c-0.738,0-1.376-0.153-1.917-0.463
				c-0.36-0.219-0.702-0.543-1.028-0.969c-0.325-0.426-0.585-0.879-0.782-1.355c-0.198-0.477-0.302-0.895-0.314-1.254
				c0.034-0.301,0.084-0.506,0.148-0.608c0.118-0.188,0.247-0.479,0.393-0.888c0.146-0.4,0.322-0.739,0.524-1.014
				c0.2-0.273,0.532-0.545,0.998-0.814c0.583-0.35,1.261-0.521,2.034-0.521h0.433c0.171-0.161,0.335-0.252,0.489-0.27
				c0.366,0,0.812,0.182,1.338,0.549l0.12-0.489c0.029-0.163,0.116-0.296,0.263-0.396c0.147-0.103,0.322-0.153,0.525-0.153
				c0.229,0,0.449,0.069,0.661,0.205c0.212,0.137,0.316,0.312,0.316,0.524c0,0.16-0.036,0.396-0.109,0.701
				c-0.075,0.307-0.115,0.526-0.124,0.663c0.018,0.22,0.049,0.41,0.096,0.574c0.044,0.16,0.119,0.408,0.223,0.748
				c0.107,0.337,0.185,0.621,0.238,0.854c0.053,0.229,0.078,0.459,0.078,0.688c0,0.188-0.044,0.563-0.133,1.134
				c0.072,0.176,0.164,0.442,0.27,0.793c0.107,0.35,0.162,0.663,0.162,0.944C44.807,66.631,44.776,66.749,44.717,66.807z
				 M42.536,64.46c0.137-0.276,0.205-0.597,0.205-0.964c0-0.521-0.154-1.146-0.46-1.889c-0.045-0.168-0.144-0.254-0.292-0.254
				c-0.038,0-0.11,0.012-0.22,0.027c-0.109,0.021-0.199,0.035-0.273,0.044c-0.157-0.051-0.354-0.151-0.592-0.305
				c-0.237-0.152-0.427-0.261-0.571-0.33s-0.313-0.104-0.515-0.104c-0.264,0-0.54,0.055-0.826,0.162
				c-0.286,0.106-0.542,0.264-0.768,0.473c-0.226,0.205-0.383,0.443-0.475,0.717c-0.021,0.09-0.085,0.213-0.186,0.359
				c-0.099,0.147-0.173,0.268-0.221,0.363c-0.047,0.094-0.074,0.215-0.085,0.362c0.04,0.119,0.06,0.205,0.06,0.252
				c0.433,1.709,1.275,2.58,2.529,2.617c0.571-0.015,1.121-0.188,1.653-0.519C42.031,65.141,42.378,64.805,42.536,64.46z"/>
			<path fill="#7CBFC7" d="M47.393,58.475c0.036,0.074,0.07,0.187,0.102,0.336c0.031,0.153,0.064,0.348,0.101,0.582
				c0.034,0.234,0.056,0.375,0.066,0.42c0.329-0.393,0.744-0.775,1.24-1.147c0.499-0.375,1.03-0.621,1.596-0.738
				c0.161,0,0.288,0.087,0.381,0.255c0.092,0.17,0.137,0.368,0.137,0.59c0,0.317-0.083,0.489-0.249,0.523
				c-0.292,0.085-0.65,0.275-1.078,0.571c-0.428,0.298-0.818,0.639-1.17,1.024c-0.352,0.389-0.571,0.75-0.665,1.092
				c0,0.662-0.054,1.195-0.165,1.604c-0.073,0.249-0.125,0.5-0.145,0.746c-0.018,0.248-0.028,0.564-0.031,0.951
				c-0.002,0.385-0.014,0.691-0.032,0.918c0,0.229-0.204,0.361-0.611,0.402c-0.398-0.041-0.639-0.153-0.724-0.343
				c-0.026-0.059-0.057-0.368-0.089-0.936c0.043-0.884,0.082-1.494,0.119-1.829c0-0.128-0.019-0.37-0.061-0.729
				c0.039-0.522,0.135-0.968,0.295-1.338c-0.058-0.729-0.175-1.615-0.354-2.66c0-0.129,0.087-0.248,0.269-0.35
				c0.18-0.104,0.369-0.154,0.579-0.154C47.171,58.268,47.334,58.336,47.393,58.475z"/>
			<path fill="#7CBFC7" d="M54.979,58.475c0.543-0.1,0.98-0.147,1.309-0.147c0.431,0,0.815,0.056,1.155,0.174
				c0.338,0.112,0.64,0.267,0.903,0.464c0.265,0.196,0.534,0.445,0.814,0.747c0.273,0.304,0.492,0.539,0.65,0.712
				c0.266,0.315,0.398,0.651,0.398,1.01c0,0.283-0.093,0.541-0.277,0.764c-0.185,0.223-0.447,0.371-0.793,0.453
				c-0.213,0.055-0.558,0.123-1.035,0.201c-0.477,0.08-0.916,0.164-1.321,0.258c-0.409,0.094-0.873,0.234-1.395,0.428
				s-1.056,0.443-1.596,0.748c0.248,0.467,0.591,0.84,1.022,1.125c0.434,0.287,0.911,0.49,1.432,0.615
				c0.521,0.123,1.068,0.19,1.644,0.205c0.652-0.021,1.403-0.121,2.26-0.297c0.193,0,0.357,0.08,0.494,0.239
				c0.136,0.162,0.204,0.345,0.204,0.55c0,0.332-0.146,0.522-0.43,0.576c-0.869,0.18-1.689,0.27-2.465,0.27
				c-1.052,0-2.047-0.192-2.981-0.58c-0.934-0.383-1.713-1.053-2.339-2.006c-0.015,0.015-0.039,0.025-0.073,0.035
				c-0.033,0.013-0.061,0.021-0.077,0.025c-0.12,0-0.247-0.1-0.381-0.295c-0.134-0.197-0.208-0.391-0.227-0.582
				c0.033-0.215,0.104-0.348,0.209-0.402c-0.091-0.287-0.148-0.63-0.18-1.022c0.015-0.591,0.129-1.183,0.349-1.78
				c0.219-0.595,0.559-1.123,1.02-1.582C53.733,58.918,54.301,58.617,54.979,58.475z M58.531,61.268
				c0-0.053-0.107-0.219-0.319-0.492c-0.21-0.272-0.498-0.528-0.865-0.762c-0.363-0.231-0.782-0.35-1.25-0.35
				c-0.399,0-0.772,0.084-1.118,0.252c-0.348,0.164-0.65,0.393-0.91,0.682c-0.259,0.285-0.464,0.613-0.609,0.982
				c-0.15,0.367-0.232,0.744-0.246,1.131c0.02,0.098,0.029,0.217,0.029,0.354c1.07-0.496,2.042-0.863,2.911-1.098
				c0.214-0.062,0.579-0.165,1.1-0.305c0.521-0.141,0.859-0.234,1.021-0.28C58.432,61.335,58.518,61.296,58.531,61.268z"/>
			<path fill="#7CBFC7" d="M66.72,58.65c0.243,0.289,0.402,0.597,0.475,0.922c0.895-0.445,1.778-0.664,2.658-0.664
				c0.52,0,0.995,0.082,1.422,0.252c0.427,0.172,0.782,0.434,1.063,0.792c0.281,0.356,0.46,0.794,0.528,1.315
				c0.021,0.131,0.032,0.344,0.032,0.637c0,0.248-0.021,0.701-0.062,1.353c0.033,0.474,0.112,0.873,0.24,1.206
				c0.138,0.359,0.205,0.646,0.205,0.863c0,0.268-0.074,0.49-0.229,0.656c-0.148,0.164-0.346,0.258-0.586,0.278
				c-0.838-0.088-1.283-0.95-1.337-2.585c0.04-0.863,0.06-1.453,0.06-1.771c-0.013-0.445-0.166-0.817-0.457-1.107
				c-0.294-0.291-0.68-0.438-1.163-0.438c-0.71,0.037-1.43,0.301-2.155,0.791c0.061,0.74,0.093,1.756,0.093,3.043
				c0,1.104-0.032,1.774-0.093,2.008c-0.058,0.252-0.311,0.395-0.759,0.429c-0.223-0.014-0.423-0.069-0.597-0.171
				c-0.174-0.098-0.262-0.213-0.262-0.346c0.118-1.397,0.179-2.373,0.179-2.928c0-0.393-0.021-0.879-0.061-1.459
				c-0.12,0-0.247-0.05-0.384-0.142c-0.137-0.094-0.212-0.229-0.223-0.405c0.034-0.238,0.139-0.482,0.312-0.729
				c-0.01-0.028-0.075-0.197-0.2-0.502c-0.122-0.306-0.191-0.532-0.202-0.689c0.032-0.221,0.126-0.428,0.286-0.616
				c0.159-0.189,0.354-0.283,0.576-0.283C66.328,58.359,66.54,58.457,66.72,58.65z"/>
			<path fill="#7CBFC7" d="M80.011,58.387c0.488,0.062,0.956,0.215,1.404,0.467c0.447,0.252,0.812,0.588,1.1,1.013
				c0.281,0.424,0.435,0.901,0.453,1.436c0,0.158,0.021,0.312,0.069,0.47c0.047,0.158,0.115,0.342,0.207,0.553
				c0.09,0.209,0.159,0.383,0.204,0.521c0.047,0.139,0.068,0.284,0.068,0.441c0,0.304-0.144,0.604-0.433,0.906
				c-0.473,0.5-0.947,0.933-1.417,1.295c-0.471,0.361-0.979,0.652-1.529,0.873c-0.546,0.219-1.122,0.328-1.729,0.328
				c-0.593,0-1.135-0.191-1.632-0.575c-0.496-0.388-0.901-0.873-1.217-1.464c-0.316-0.59-0.515-1.176-0.6-1.762
				c0-0.709,0.154-1.356,0.457-1.941c0.305-0.588,0.722-1.049,1.25-1.387c0.529-0.338,1.109-0.506,1.741-0.506h0.326
				c0.066-0.205,0.221-0.367,0.464-0.486C79.44,58.445,79.71,58.387,80.011,58.387z M81.172,60.82
				c-0.087-0.252-0.242-0.437-0.47-0.551c-0.224-0.113-0.525-0.228-0.898-0.338c-0.043,0.234-0.195,0.428-0.46,0.575
				c-0.264,0.147-0.601,0.232-1.01,0.254c-0.425,0.05-0.802,0.175-1.133,0.375c-0.33,0.199-0.537,0.478-0.62,0.83
				c-0.032,0.187-0.067,0.435-0.104,0.744c0.014,0.377,0.117,0.742,0.31,1.092c0.194,0.353,0.454,0.646,0.776,0.88
				c0.323,0.231,0.674,0.366,1.052,0.403c0.355-0.004,0.728-0.101,1.118-0.287c0.39-0.188,0.75-0.414,1.076-0.684
				c0.326-0.269,0.592-0.523,0.794-0.767c0.118-0.168,0.179-0.312,0.179-0.434c0-0.096-0.047-0.254-0.139-0.473
				c-0.093-0.219-0.15-0.418-0.176-0.596c-0.047-0.173-0.095-0.345-0.146-0.514C81.271,61.164,81.222,60.992,81.172,60.82z"/>
			<path fill="#7CBFC7" d="M87.127,54.79c0.34,1.108,0.564,2.134,0.67,3.074c0.058,0.015,0.124,0.026,0.201,0.034
				c0.077,0.01,0.132,0.02,0.168,0.026c0.18-0.011,0.421-0.071,0.723-0.184c0.302-0.112,0.478-0.177,0.525-0.19
				c0.129,0,0.229,0.071,0.305,0.209c0.076,0.139,0.113,0.311,0.113,0.506c0,0.346-0.161,0.58-0.486,0.697
				c-0.324,0.118-0.717,0.189-1.18,0.21c-0.079-0.019-0.173-0.026-0.281-0.026c0,0.721-0.028,1.734-0.084,3.043
				c-0.055,1.305-0.088,2.225-0.095,2.763c0.021,0.149,0.028,0.384,0.028,0.698c0,0.119-0.072,0.217-0.221,0.293
				c-0.146,0.078-0.325,0.121-0.536,0.137c-0.385-0.043-0.578-0.139-0.578-0.295c-0.026-0.357-0.055-0.818-0.09-1.383
				c0-0.543,0.03-1.346,0.09-2.404c0.058-1.061,0.089-1.828,0.089-2.307v-0.758c-0.477-0.146-1.014-0.22-1.617-0.22
				c-0.316,0-0.477-0.215-0.477-0.639c0-0.24,0.066-0.401,0.196-0.484c0.13-0.084,0.327-0.127,0.591-0.127
				c0.463,0,0.85,0.052,1.158,0.151c-0.043-0.624-0.217-1.436-0.52-2.438c0-0.17,0.091-0.31,0.272-0.411
				c0.179-0.104,0.38-0.154,0.604-0.154C86.953,54.611,87.096,54.671,87.127,54.79z"/>
			<path fill="#7CBFC7" d="M103.29,66.807c-0.184,0.17-0.417,0.256-0.694,0.256c-0.14,0-0.259-0.026-0.354-0.08
				c-0.098-0.053-0.175-0.118-0.23-0.201c-0.057-0.079-0.107-0.176-0.153-0.283c-0.043-0.111-0.095-0.237-0.154-0.384
				c-0.365,0.35-0.838,0.629-1.423,0.842c-0.587,0.209-1.188,0.313-1.802,0.313c-0.735,0-1.377-0.153-1.916-0.463
				c-0.36-0.219-0.702-0.543-1.028-0.969c-0.323-0.426-0.585-0.879-0.783-1.355c-0.196-0.477-0.302-0.895-0.315-1.254
				c0.036-0.301,0.085-0.506,0.149-0.608c0.118-0.188,0.248-0.479,0.394-0.888c0.146-0.4,0.322-0.739,0.523-1.014
				c0.201-0.273,0.535-0.545,0.999-0.814c0.584-0.35,1.263-0.521,2.035-0.521h0.432c0.171-0.161,0.337-0.252,0.49-0.27
				c0.364,0,0.812,0.182,1.339,0.549l0.119-0.489c0.028-0.163,0.115-0.296,0.263-0.396c0.146-0.103,0.321-0.153,0.523-0.153
				c0.229,0,0.45,0.069,0.662,0.205c0.212,0.137,0.317,0.312,0.317,0.524c0,0.16-0.038,0.396-0.111,0.701
				c-0.073,0.307-0.114,0.526-0.124,0.663c0.019,0.22,0.051,0.41,0.099,0.574c0.041,0.16,0.116,0.408,0.22,0.748
				c0.106,0.337,0.188,0.621,0.238,0.854c0.054,0.229,0.082,0.459,0.082,0.688c0,0.188-0.047,0.563-0.137,1.134
				c0.072,0.176,0.163,0.442,0.272,0.793c0.105,0.35,0.158,0.663,0.158,0.944C103.379,66.631,103.351,66.749,103.29,66.807z
				 M101.11,64.46c0.139-0.276,0.207-0.597,0.207-0.964c0-0.521-0.154-1.146-0.462-1.889c-0.044-0.168-0.142-0.254-0.293-0.254
				c-0.036,0-0.109,0.012-0.218,0.027c-0.108,0.021-0.201,0.035-0.276,0.044c-0.154-0.051-0.352-0.151-0.589-0.305
				c-0.238-0.152-0.431-0.261-0.573-0.33c-0.142-0.069-0.312-0.104-0.514-0.104c-0.264,0-0.538,0.055-0.826,0.162
				c-0.289,0.106-0.542,0.264-0.766,0.473c-0.228,0.205-0.384,0.443-0.477,0.717c-0.022,0.09-0.085,0.213-0.184,0.359
				c-0.101,0.147-0.176,0.268-0.222,0.363c-0.048,0.094-0.075,0.215-0.086,0.362c0.039,0.119,0.058,0.205,0.058,0.252
				c0.435,1.709,1.277,2.58,2.529,2.617c0.572-0.015,1.123-0.188,1.656-0.519C100.607,65.141,100.952,64.805,101.11,64.46z"/>
			<path fill="#7CBFC7" d="M106.548,55.979c-0.021,0.571-0.032,1.031-0.032,1.383c0,0.91,0.032,1.75,0.101,2.522
				c0.067,0.771,0.169,1.624,0.305,2.556c0.135,0.934,0.227,1.584,0.277,1.953c0.05,0.371,0.073,0.75,0.073,1.14
				c0,0.297-0.045,0.536-0.135,0.723c-0.093,0.183-0.269,0.29-0.533,0.32c-0.217-0.021-0.417-0.111-0.601-0.269
				c-0.184-0.16-0.277-0.345-0.277-0.554c0-0.411-0.086-1.165-0.263-2.259c-0.176-1.096-0.318-2.072-0.423-2.926
				c-0.105-0.857-0.162-1.853-0.173-2.982c0.039-0.639,0.058-1.104,0.058-1.396c0.015-0.299,0.097-0.526,0.245-0.679
				c0.149-0.151,0.326-0.229,0.529-0.229c0.241,0,0.445,0.069,0.605,0.2C106.467,55.615,106.548,55.779,106.548,55.979z"/>
			<path fill="#7CBFC7" d="M113.183,58.387c0.489,0.062,0.956,0.215,1.405,0.467c0.448,0.252,0.812,0.588,1.099,1.013
				c0.285,0.424,0.436,0.901,0.453,1.436c0,0.158,0.025,0.312,0.069,0.47c0.049,0.158,0.117,0.342,0.208,0.553
				c0.091,0.209,0.158,0.383,0.204,0.521c0.047,0.139,0.069,0.284,0.069,0.441c0,0.304-0.144,0.604-0.432,0.906
				c-0.475,0.5-0.949,0.933-1.419,1.295c-0.471,0.361-0.98,0.652-1.529,0.873c-0.545,0.219-1.125,0.328-1.729,0.328
				c-0.592,0-1.134-0.191-1.63-0.575c-0.5-0.388-0.903-0.873-1.216-1.464c-0.314-0.59-0.517-1.176-0.601-1.762
				c0-0.709,0.152-1.356,0.457-1.941c0.306-0.588,0.722-1.049,1.25-1.387c0.528-0.338,1.109-0.506,1.739-0.506h0.326
				c0.068-0.205,0.224-0.367,0.465-0.486C112.611,58.445,112.883,58.387,113.183,58.387z M114.345,60.82
				c-0.088-0.252-0.244-0.437-0.468-0.551c-0.226-0.113-0.524-0.228-0.901-0.338c-0.043,0.234-0.195,0.428-0.458,0.575
				c-0.264,0.147-0.602,0.232-1.011,0.254c-0.425,0.05-0.803,0.175-1.133,0.375c-0.329,0.199-0.538,0.478-0.621,0.83
				c-0.03,0.187-0.065,0.435-0.102,0.744c0.012,0.377,0.114,0.742,0.307,1.092c0.196,0.353,0.453,0.646,0.778,0.88
				c0.323,0.231,0.673,0.366,1.05,0.403c0.355-0.004,0.731-0.101,1.12-0.287c0.392-0.188,0.75-0.414,1.075-0.684
				c0.326-0.269,0.592-0.523,0.794-0.767c0.119-0.168,0.179-0.312,0.179-0.434c0-0.096-0.047-0.254-0.139-0.473
				c-0.092-0.219-0.149-0.418-0.174-0.596c-0.049-0.173-0.097-0.345-0.146-0.514C114.444,61.164,114.395,60.992,114.345,60.82z"/>
			<path fill="#7CBFC7" d="M119.426,58.65c0.242,0.289,0.403,0.597,0.476,0.922c0.894-0.445,1.78-0.664,2.657-0.664
				c0.521,0,0.995,0.082,1.423,0.252c0.427,0.172,0.781,0.434,1.063,0.792c0.281,0.356,0.456,0.794,0.528,1.315
				c0.021,0.131,0.03,0.344,0.03,0.637c0,0.248-0.019,0.701-0.062,1.353c0.035,0.474,0.115,0.873,0.24,1.206
				c0.137,0.359,0.207,0.646,0.207,0.863c0,0.268-0.075,0.49-0.229,0.656c-0.151,0.164-0.349,0.258-0.587,0.278
				c-0.842-0.088-1.285-0.95-1.34-2.585c0.041-0.863,0.062-1.453,0.062-1.771c-0.013-0.445-0.168-0.817-0.458-1.107
				c-0.292-0.291-0.677-0.438-1.161-0.438c-0.711,0.037-1.428,0.301-2.155,0.791c0.061,0.74,0.092,1.756,0.092,3.043
				c0,1.104-0.031,1.774-0.092,2.008c-0.058,0.252-0.312,0.395-0.758,0.429c-0.224-0.014-0.425-0.069-0.6-0.171
				c-0.173-0.098-0.26-0.213-0.26-0.346c0.119-1.397,0.18-2.373,0.18-2.928c0-0.393-0.022-0.879-0.064-1.459
				c-0.119,0-0.245-0.05-0.381-0.142c-0.14-0.094-0.212-0.229-0.224-0.405c0.033-0.238,0.137-0.482,0.312-0.729
				c-0.011-0.028-0.077-0.197-0.198-0.502c-0.127-0.306-0.192-0.532-0.206-0.689c0.031-0.221,0.128-0.428,0.287-0.616
				c0.161-0.189,0.353-0.283,0.575-0.283C119.032,58.359,119.247,58.457,119.426,58.65z"/>
			<path fill="#7CBFC7" d="M130.563,58.475c0.543-0.1,0.979-0.147,1.307-0.147c0.432,0,0.816,0.056,1.154,0.174
				c0.338,0.112,0.64,0.267,0.907,0.464c0.264,0.196,0.533,0.445,0.811,0.747c0.276,0.304,0.494,0.539,0.652,0.712
				c0.263,0.315,0.398,0.651,0.398,1.01c0,0.283-0.093,0.541-0.276,0.764c-0.184,0.223-0.448,0.371-0.794,0.453
				c-0.214,0.055-0.559,0.123-1.033,0.201c-0.479,0.08-0.918,0.164-1.325,0.258c-0.404,0.094-0.87,0.234-1.391,0.428
				c-0.524,0.191-1.056,0.443-1.596,0.748c0.247,0.467,0.589,0.84,1.02,1.125c0.436,0.287,0.91,0.49,1.433,0.615
				c0.521,0.123,1.069,0.19,1.645,0.205c0.649-0.021,1.404-0.121,2.259-0.297c0.193,0,0.358,0.08,0.495,0.239
				c0.134,0.162,0.201,0.345,0.201,0.55c0,0.332-0.143,0.522-0.427,0.576c-0.869,0.18-1.692,0.27-2.468,0.27
				c-1.051,0-2.044-0.192-2.977-0.58c-0.937-0.383-1.716-1.053-2.344-2.006c-0.013,0.015-0.037,0.025-0.072,0.035
				c-0.033,0.013-0.058,0.021-0.075,0.025c-0.122,0-0.249-0.1-0.381-0.295c-0.133-0.197-0.209-0.391-0.228-0.582
				c0.033-0.215,0.104-0.348,0.21-0.402c-0.09-0.287-0.149-0.63-0.178-1.022c0.012-0.591,0.127-1.183,0.346-1.78
				c0.219-0.595,0.561-1.123,1.018-1.582C129.316,58.918,129.885,58.617,130.563,58.475z M134.112,61.268
				c0-0.053-0.104-0.219-0.316-0.492c-0.212-0.272-0.499-0.528-0.865-0.762c-0.366-0.232-0.782-0.35-1.253-0.35
				c-0.396,0-0.771,0.084-1.118,0.252c-0.348,0.164-0.649,0.393-0.908,0.682c-0.257,0.285-0.461,0.613-0.611,0.982
				c-0.147,0.367-0.228,0.744-0.243,1.131c0.018,0.098,0.028,0.217,0.028,0.354c1.071-0.496,2.041-0.863,2.913-1.098
				c0.212-0.062,0.578-0.165,1.099-0.305c0.521-0.141,0.858-0.234,1.019-0.28C134.015,61.335,134.1,61.296,134.112,61.268z"/>
		</g>
	</g>
</g>
</svg>
