<?xml version="1.0" encoding="utf-8"?>
<!-- Generator: Adobe Illustrator 16.1.0, SVG Export Plug-In . SVG Version: 6.00 Build 0)  -->
<!DOCTYPE svg PUBLIC "-//W3C//DTD SVG 1.1//EN" "http://www.w3.org/Graphics/SVG/1.1/DTD/svg11.dtd">
<svg version="1.1" id="Layer_1" xmlns="http://www.w3.org/2000/svg" xmlns:xlink="http://www.w3.org/1999/xlink" x="0px" y="0px"
	 width="144px" height="84px" viewBox="0 0 144 84" enable-background="new 0 0 144 84" xml:space="preserve">
<g>
	<path fill="#7CBFC7" d="M23.965,20.636c-0.698-0.49-1.491-0.738-2.359-0.738c-1.58,0-2.272,0.847-2.526,1.317
		c-1.36,2.055-3.055,4.534-5.046,7.375c-0.364-0.597-0.769-1.236-1.209-1.913c-0.952-1.46-1.709-2.689-2.249-3.651
		c-0.505-0.896-0.966-1.965-1.365-3.16c-0.122-0.433-0.68-1.845-2.685-1.845c-0.854,0-1.645,0.311-2.354,0.922
		c-0.757,0.658-1.155,1.512-1.155,2.472c0,0.46,0.056,0.823,0.154,1.045c0.385,1.134,0.839,2.182,1.351,3.111
		c0.49,0.893,1.184,2.013,2.062,3.33c0.843,1.26,1.555,2.361,2.119,3.269c0.444,0.72,0.885,1.519,1.311,2.377
		c-0.062,0.235-0.118,0.495-0.165,0.789l-0.029,0.181l0.015,0.184c0.091,1.031,0.412,1.898,0.959,2.576
		c0.024,0.944,0.061,1.871,0.113,2.784c0.061,1.082,0.147,2.235,0.265,3.53c0.112,1.229,0.188,2.146,0.228,2.651
		c0,0.611,0.208,1.485,1.202,2.181c0.6,0.417,1.288,0.659,2.047,0.714l0.077,0.008l0.139-0.008c0.804-0.057,1.503-0.325,2.08-0.795
		c0.688-0.562,1.049-1.358,1.046-2.334c-0.055-0.975-0.148-2.415-0.276-4.321c-0.128-1.893-0.222-3.429-0.283-4.615
		c-0.05-0.957-0.081-1.83-0.089-2.606l3.782-5.374c0.545-0.773,1.123-1.622,1.738-2.551c0.611-0.92,1.284-1.96,2.034-3.14
		l0.063-0.112c0.201-0.405,0.303-0.832,0.303-1.268C25.262,22.348,25.037,21.383,23.965,20.636z"/>
	<path fill="#7CBFC7" d="M96.3,17.223c-0.65-0.412-1.417-0.622-2.277-0.622c-0.736,0-1.39,0.182-1.937,0.538
		c-0.707,0.467-1.115,1.21-1.115,2.029c-0.018,1.034-0.094,2.58-0.243,4.726c-0.144,2.074-0.345,4.369-0.6,6.817
		c-0.249,2.407-0.555,4.712-0.907,6.854c-0.009,0.055-0.019,0.111-0.027,0.165c-0.383-0.862-0.789-1.706-1.204-2.516
		c-1.103-2.143-2.166-4.031-3.17-5.61c-0.981-1.546-2.077-3.191-3.245-4.872l-0.809-1.312c-0.294-0.476-0.612-0.9-0.952-1.263
		c-0.357-0.387-0.836-0.775-1.407-1.146c-1.127-0.793-2.237-1.195-3.296-1.195c-0.881,0-2.123,0.312-3.036,1.797
		c-0.575,0.931-0.914,2.16-1.001,3.649c-0.104,1.595-0.257,3.546-0.464,5.965c-0.193,2.238-0.42,4.476-0.672,6.649
		c-0.253,2.157-0.561,4.354-0.92,6.571l-0.011,0.197c0,0.787,0.323,1.502,0.938,2.067c0.545,0.508,1.198,0.811,1.938,0.899
		l0.185,0.021l0.184-0.025c1.428-0.185,2.421-1.097,2.652-2.41c0.438-1.731,0.849-3.741,1.216-5.972
		c0.363-2.218,0.681-4.462,0.938-6.676c0.048-0.433,0.095-0.848,0.138-1.25c0.247,0.385,0.493,0.769,0.732,1.149
		c0.973,1.546,1.873,3.031,2.674,4.412c0.804,1.38,1.534,2.732,2.167,4.022c0.628,1.272,1.089,2.348,1.415,3.312l0.85,2.139
		c0.323,0.812,0.743,1.533,1.249,2.139c0.656,0.788,1.521,1.243,2.566,1.357l0.194,0.008l0.034-0.003
		c1.163-0.054,2.263-0.582,3.269-1.571c0.902-0.882,1.571-1.923,1.983-3.081c0.639-1.652,1.191-4.066,1.688-7.385
		c0.479-3.197,0.861-6.538,1.133-9.93c0.271-3.401,0.427-6.212,0.459-8.365C97.604,18.567,97.139,17.759,96.3,17.223z"/>
	<path fill="#7CBFC7" d="M133.966,44.913c-1.05-1.508-1.834-2.706-2.33-3.553c-0.387-0.663-0.794-1.467-1.206-2.392
		c0.085-0.291,0.13-0.62,0.13-0.984c0-0.829-0.222-1.61-0.663-2.324c-0.343-0.554-0.823-0.987-1.4-1.263
		c-0.149-0.423-0.397-1.152-0.817-2.408c-0.634-1.91-1.323-3.79-2.044-5.591c-0.741-1.852-1.596-3.511-2.541-4.932
		c-1.195-1.803-2.47-2.681-3.891-2.681c-0.803,0-1.605,0.379-2.467,1.175c-0.379,0.387-0.798,1.035-1.316,2.036
		c-0.452,0.867-1.175,2.398-2.155,4.548l-2.188,4.794c-0.387,0.838-0.814,1.754-1.291,2.746l-0.552,0.042
		c-0.562,0.043-1.095,0.134-1.59,0.268c-0.641,0.177-1.201,0.498-1.664,0.951c-0.524,0.513-0.845,1.183-0.95,1.989l-0.027,0.182
		l0.023,0.183c0.078,0.694,0.311,1.31,0.698,1.831c0.24,0.325,0.535,0.582,0.868,0.762c-0.475,0.747-0.843,1.371-1.114,1.896
		c-0.376,0.722-0.628,1.487-0.746,2.279l-0.022,0.169l0.012,0.164c0.065,0.828,0.419,1.577,1.021,2.161
		c0.618,0.6,1.371,0.919,2.194,0.919l0,0l0.145-0.005c1.603-0.18,2.367-1.125,2.676-1.665c0.58-0.966,1.74-3.051,3.45-6.197
		l0.096-0.005c0.479-0.025,0.969-0.039,1.464-0.039c2.419,0,5.19,0.107,8.235,0.316c1.694,3.698,3.191,6.363,4.555,8.111
		c0.493,0.749,1.341,1.205,2.515,1.351l0.144,0.018l0.146-0.01c0.797-0.054,1.493-0.294,2.075-0.707
		c0.736-0.53,1.142-1.308,1.142-2.188C134.577,46.218,134.383,45.589,133.966,44.913z M121.379,33.928
		c-1.333-0.039-2.756-0.059-4.238-0.059h-0.309l2.403-5.534c0.498,1.181,1.003,2.474,1.505,3.851L121.379,33.928z"/>
	<path fill="#7CBFC7" d="M60.236,44.913c-1.051-1.512-1.835-2.708-2.331-3.553c-0.387-0.66-0.792-1.463-1.206-2.392
		c0.087-0.291,0.129-0.621,0.129-0.984c0-0.829-0.223-1.61-0.661-2.324c-0.345-0.554-0.827-0.987-1.401-1.263
		c-0.15-0.423-0.4-1.152-0.818-2.408c-0.636-1.912-1.323-3.795-2.045-5.591c-0.741-1.85-1.595-3.51-2.54-4.932
		c-1.199-1.803-2.472-2.681-3.892-2.681c-0.805,0-1.607,0.379-2.467,1.174c-0.383,0.391-0.791,1.02-1.317,2.038
		c-0.451,0.869-1.177,2.399-2.154,4.547l-2.188,4.794c-0.387,0.838-0.815,1.754-1.292,2.746l-0.551,0.042
		c-0.563,0.043-1.097,0.134-1.589,0.268c-0.643,0.177-1.203,0.498-1.665,0.951c-0.525,0.513-0.844,1.184-0.951,1.988l-0.026,0.183
		l0.022,0.183c0.078,0.694,0.313,1.31,0.698,1.831c0.241,0.325,0.536,0.582,0.869,0.762c-0.474,0.743-0.841,1.366-1.116,1.898
		c-0.376,0.719-0.626,1.488-0.745,2.277l-0.025,0.169l0.014,0.164c0.066,0.831,0.417,1.577,1.02,2.161
		c0.62,0.6,1.37,0.919,2.195,0.919c0,0,0,0,0.002,0l0.142-0.005c1.604-0.18,2.368-1.125,2.676-1.663
		c0.58-0.97,1.712-2.996,3.454-6.199l0.093-0.005c0.48-0.025,0.968-0.039,1.463-0.039c2.422,0,5.191,0.107,8.237,0.316
		c1.692,3.696,3.189,6.361,4.554,8.111c0.495,0.749,1.343,1.205,2.514,1.351l0.146,0.018l0.147-0.01
		c0.796-0.054,1.494-0.294,2.073-0.707c0.736-0.53,1.144-1.308,1.144-2.188C60.848,46.218,60.649,45.589,60.236,44.913z
		 M47.647,33.928c-1.332-0.039-2.755-0.059-4.239-0.059h-0.306l2.401-5.536c0.499,1.183,1.005,2.476,1.507,3.853L47.647,33.928z"/>
	<g>
		<path fill="#7CBFC7" d="M11.843,58.316c-0.228-0.153-0.493-0.232-0.786-0.232c-0.721,0-0.95,0.39-1.02,0.622
			c-0.254,0.8-0.965,2.479-2.118,4.988c-0.109-0.152-0.21-0.313-0.3-0.48c-0.185-0.34-0.331-0.655-0.448-0.968
			c-0.124-0.327-0.268-0.738-0.433-1.238c-0.169-0.512-0.305-0.89-0.401-1.133c-0.16-0.414-0.521-0.643-1.013-0.643
			c-0.285,0-0.547,0.09-0.786,0.273c-0.253,0.201-0.388,0.463-0.388,0.766l0.064,0.266c0.011,0.039,0.022,0.077,0.052,0.183
			c0.138,0.32,0.318,0.783,0.543,1.393c0.225,0.617,0.439,1.155,0.637,1.6c0.2,0.447,0.444,0.886,0.728,1.301
			c0.239,0.354,0.525,0.685,0.852,0.986c-0.092,0.188-0.234,0.48-0.428,0.869c-0.308,0.624-0.511,1.063-0.625,1.355
			c-0.009,0.031-0.023,0.084-0.049,0.212l-0.03,0.072l0.005,0.076c0.021,0.285,0.148,0.536,0.368,0.722
			c0.217,0.188,0.451,0.282,0.696,0.282c0.417,0,0.6-0.186,0.68-0.338c0.066-0.122,0.232-0.449,0.501-0.983
			c0.226-0.444,0.417-0.814,0.569-1.109c0.22-0.051,0.408-0.182,0.552-0.386c0.166-0.238,0.25-0.516,0.25-0.825
			c0-0.239-0.044-0.452-0.133-0.627c0.12-0.264,0.273-0.582,0.461-0.958l0.862-1.729c0.349-0.698,0.647-1.316,0.894-1.851
			c0.252-0.552,0.449-1.031,0.599-1.464l0.023-0.119c0.017-0.066,0.024-0.114,0.024-0.16C12.246,58.739,12.106,58.488,11.843,58.316
			z"/>
		<path fill="#7CBFC7" d="M21.822,62.049c-0.083-0.192-0.148-0.361-0.192-0.511c-0.038-0.122-0.056-0.247-0.056-0.381
			c-0.019-0.584-0.188-1.12-0.502-1.587c-0.309-0.458-0.709-0.827-1.194-1.1c-0.475-0.265-0.98-0.435-1.542-0.5
			c-0.347,0-0.665,0.068-0.944,0.21c-0.232,0.114-0.406,0.265-0.519,0.449H16.75c-0.684,0-1.318,0.184-1.891,0.55
			c-0.567,0.36-1.021,0.862-1.345,1.487c-0.323,0.624-0.487,1.318-0.484,2.113c0.087,0.608,0.298,1.23,0.625,1.846
			c0.331,0.62,0.764,1.141,1.29,1.549c0.546,0.421,1.153,0.635,1.806,0.635c0.634,0,1.249-0.114,1.83-0.349
			c0.567-0.225,1.099-0.53,1.585-0.905c0.47-0.36,0.953-0.801,1.439-1.311c0.34-0.358,0.512-0.736,0.512-1.117
			c0-0.195-0.026-0.373-0.083-0.538C21.986,62.447,21.917,62.267,21.822,62.049z M19.761,62.765c0,0.008-0.002,0.081-0.101,0.219
			c-0.19,0.228-0.438,0.47-0.74,0.718c-0.297,0.243-0.633,0.458-0.997,0.633c-0.342,0.164-0.668,0.248-0.937,0.252
			c-0.319-0.031-0.608-0.143-0.881-0.338c-0.28-0.202-0.507-0.46-0.674-0.765c-0.166-0.297-0.254-0.612-0.267-0.889
			c0.034-0.295,0.066-0.536,0.092-0.695c0.065-0.265,0.217-0.468,0.47-0.622c0.285-0.171,0.617-0.28,0.97-0.321
			c0.449-0.023,0.832-0.123,1.137-0.292c0.218-0.124,0.379-0.275,0.486-0.452c0.225,0.075,0.411,0.149,0.554,0.224
			c0.148,0.076,0.245,0.19,0.299,0.347l0.149,0.512c0.049,0.163,0.097,0.333,0.134,0.455c0.027,0.203,0.089,0.419,0.194,0.673
			C19.758,62.679,19.761,62.762,19.761,62.765z"/>
		<path fill="#7CBFC7" d="M30.665,60.17c-0.197-0.069-0.434-0.104-0.724-0.104c-0.202,0-0.811,0-0.919,0.472
			c-0.06,0.333-0.121,0.822-0.18,1.448l-0.088,0.961c-0.062,0.234-0.18,0.507-0.345,0.811c-0.159,0.289-0.382,0.544-0.663,0.761
			c-0.261,0.205-0.56,0.304-0.873,0.309c-0.17-0.024-0.334-0.193-0.484-0.5c-0.185-0.384-0.329-0.891-0.424-1.514
			c-0.097-0.629-0.152-1.325-0.165-2.046c0.036-0.938,0.084-1.629,0.147-2.098c0-0.539-0.355-0.859-0.95-0.859
			c-0.242,0-0.478,0.059-0.694,0.178c-0.181,0.095-0.319,0.219-0.415,0.369c-0.031,0.025-0.055,0.068-0.075,0.143
			c-0.003,0.009-0.007,0.018-0.011,0.025l0.004,0.002c-0.006,0.033-0.015,0.073-0.021,0.114l-0.002,0.021
			c-0.024,0.154-0.047,0.383-0.078,0.716c-0.054,0.565-0.086,1.135-0.098,1.704c0.012,0.9,0.097,1.771,0.253,2.587
			c0.163,0.836,0.465,1.569,0.896,2.183c0.46,0.655,1.096,1.035,1.929,1.139h0.396c0.405,0,0.792-0.09,1.154-0.269
			c0.18-0.088,0.357-0.207,0.534-0.363c0.025,0.349,0.071,0.609,0.141,0.798c0.085,0.213,0.328,0.272,0.525,0.302
			c0.184,0.027,0.381,0.043,0.596,0.043c0.234,0,0.86,0,0.857-0.5c-0.049-0.455-0.093-1.112-0.126-1.884
			c0.011-0.483,0.036-0.945,0.069-1.382c0.036-0.439,0.08-0.932,0.138-1.485l0.158-1.555C31.127,60.558,31.066,60.309,30.665,60.17z
			"/>
		<path fill="#7CBFC7" d="M44.583,64.504c0.083-0.546,0.123-0.891,0.123-1.082c0-0.249-0.029-0.503-0.086-0.754
			c-0.054-0.238-0.134-0.525-0.241-0.863c-0.103-0.33-0.176-0.576-0.22-0.736c-0.039-0.138-0.068-0.31-0.083-0.455
			c0.005-0.083,0.03-0.254,0.115-0.602c0.078-0.329,0.117-0.581,0.117-0.77c0-0.226-0.079-0.541-0.459-0.785
			c-0.504-0.327-1.11-0.335-1.528-0.047c-0.214,0.147-0.351,0.357-0.389,0.581l-0.012,0.051c-0.414-0.24-0.788-0.355-1.148-0.355
			c-0.002,0-0.006,0-0.009,0c-0.187,0.025-0.376,0.113-0.563,0.266h-0.308c-0.819,0-1.551,0.187-2.17,0.56
			c-0.504,0.292-0.859,0.584-1.083,0.889c-0.215,0.294-0.404,0.657-0.561,1.087c-0.136,0.375-0.255,0.647-0.358,0.812
			c-0.092,0.151-0.153,0.384-0.195,0.781c0.014,0.397,0.123,0.84,0.334,1.352c0.204,0.495,0.479,0.97,0.815,1.41
			c0.344,0.452,0.717,0.802,1.112,1.041c0.58,0.332,1.27,0.5,2.052,0.5c0.639,0,1.273-0.112,1.886-0.332
			c0.446-0.16,0.836-0.362,1.166-0.604c0.051,0.117,0.108,0.223,0.172,0.316c0.085,0.122,0.199,0.224,0.336,0.296
			c0.143,0.08,0.313,0.116,0.505,0.116c0.357,0,0.663-0.11,0.912-0.341c0.125-0.122,0.186-0.312,0.186-0.581
			c0-0.308-0.057-0.643-0.174-1.026C44.732,64.923,44.652,64.682,44.583,64.504z M42.32,63.336c0,0.31-0.057,0.581-0.174,0.819
			c-0.129,0.28-0.432,0.57-0.9,0.861c-0.473,0.297-0.969,0.452-1.456,0.465c-1.085-0.032-1.804-0.8-2.187-2.265
			c0-0.074-0.017-0.163-0.053-0.284c0.011-0.098,0.03-0.152,0.045-0.179c0.042-0.086,0.109-0.193,0.197-0.324
			c0.122-0.18,0.197-0.328,0.222-0.433c0.074-0.218,0.199-0.408,0.382-0.573c0.192-0.178,0.412-0.312,0.654-0.403
			c0.418-0.158,0.832-0.186,1.071-0.068c0.135,0.064,0.311,0.167,0.533,0.309c0.264,0.169,0.478,0.277,0.659,0.336l0.068,0.022
			l0.072-0.008c0.079-0.01,0.174-0.027,0.284-0.048c0.078-0.013,0.133-0.022,0.127-0.046l0.027,0.076
			C42.175,62.285,42.32,62.868,42.32,63.336z"/>
		<path fill="#7CBFC7" d="M51.092,57.521c-0.602,0.122-1.175,0.387-1.704,0.785c-0.302,0.228-0.576,0.459-0.82,0.697
			c-0.022-0.139-0.045-0.256-0.066-0.359c-0.036-0.176-0.077-0.312-0.118-0.394c-0.076-0.184-0.274-0.397-0.778-0.397
			c-0.264,0-0.511,0.064-0.729,0.191c-0.355,0.2-0.429,0.449-0.424,0.68c0.167,0.98,0.282,1.827,0.341,2.522
			c-0.153,0.378-0.249,0.836-0.284,1.407c0.039,0.335,0.056,0.563,0.058,0.647c-0.036,0.342-0.077,0.937-0.119,1.861
			c0.053,0.896,0.085,0.965,0.117,1.036C46.7,66.5,47.02,66.67,47.54,66.721l0.031,0.003l0.031-0.003
			c0.777-0.074,0.893-0.478,0.893-0.688c0.018-0.229,0.03-0.54,0.033-0.93c0.001-0.37,0.013-0.675,0.03-0.916
			c0.018-0.213,0.061-0.437,0.133-0.679c0.114-0.418,0.17-0.949,0.173-1.622c0.083-0.274,0.277-0.581,0.572-0.908
			c0.331-0.363,0.703-0.687,1.103-0.963c0.391-0.273,0.717-0.449,0.944-0.517c0.189-0.037,0.505-0.195,0.505-0.829
			c0-0.272-0.06-0.521-0.176-0.736C51.667,57.663,51.434,57.498,51.092,57.521z"/>
		<path fill="#7CBFC7" d="M60.626,65.428c-0.831,0.17-1.564,0.268-2.163,0.287c-0.543-0.012-1.067-0.078-1.555-0.195
			c-0.477-0.113-0.918-0.302-1.312-0.562c-0.293-0.195-0.541-0.437-0.74-0.724c0.422-0.224,0.836-0.411,1.24-0.559
			c0.498-0.186,0.947-0.322,1.337-0.411c0.396-0.092,0.823-0.172,1.288-0.251c0.483-0.079,0.832-0.149,1.041-0.201
			c0.408-0.097,0.729-0.284,0.959-0.554c0.228-0.277,0.347-0.602,0.347-0.964c0-0.427-0.159-0.832-0.478-1.21l-0.644-0.705
			c-0.301-0.325-0.578-0.578-0.849-0.777c-0.286-0.213-0.615-0.384-0.98-0.506c-0.363-0.126-0.784-0.188-1.245-0.188
			c-0.345,0-0.786,0.049-1.356,0.154c-0.727,0.151-1.349,0.48-1.848,0.979c-0.485,0.482-0.849,1.049-1.08,1.678
			c-0.226,0.616-0.349,1.24-0.362,1.892c0.025,0.329,0.07,0.625,0.137,0.891c-0.081,0.113-0.136,0.261-0.165,0.444l-0.006,0.042
			l0.003,0.04c0.024,0.244,0.121,0.487,0.279,0.722c0.072,0.106,0.292,0.433,0.643,0.433h0.018c0.629,0.885,1.408,1.522,2.32,1.896
			c0.956,0.398,1.989,0.599,3.065,0.599c0.781,0,1.623-0.092,2.494-0.271c0.435-0.081,0.685-0.405,0.685-0.884
			c0-0.278-0.091-0.531-0.275-0.751C61.228,65.543,60.969,65.423,60.626,65.428z M57.746,61.215
			c-0.519,0.139-0.881,0.24-1.087,0.298c-0.75,0.205-1.586,0.51-2.49,0.909c0.025-0.289,0.096-0.577,0.21-0.858
			c0.128-0.325,0.311-0.622,0.544-0.876c0.227-0.254,0.495-0.455,0.797-0.602c0.297-0.143,0.621-0.214,0.966-0.214
			c0.4,0,0.756,0.097,1.063,0.297c0.329,0.204,0.586,0.433,0.773,0.676c0.039,0.049,0.07,0.094,0.099,0.129
			C58.437,61.028,58.145,61.108,57.746,61.215z"/>
		<path fill="#7CBFC7" d="M73.541,63.12c0.041-0.653,0.062-1.107,0.062-1.355c0-0.313-0.012-0.536-0.036-0.671
			c-0.076-0.568-0.273-1.059-0.589-1.458c-0.312-0.397-0.713-0.693-1.184-0.879c-1.118-0.446-2.58-0.339-3.955,0.26
			c-0.098-0.231-0.241-0.462-0.425-0.686c-0.47-0.504-1.233-0.527-1.683,0.005c-0.196,0.23-0.314,0.49-0.358,0.843
			c0.018,0.185,0.088,0.432,0.225,0.775c0.058,0.145,0.104,0.256,0.137,0.335c-0.145,0.24-0.237,0.489-0.271,0.779
			c0.018,0.271,0.144,0.495,0.361,0.647c0.086,0.059,0.171,0.102,0.253,0.137c0.031,0.458,0.044,0.852,0.044,1.178
			c0,0.532-0.058,1.494-0.176,2.891c0,0.173,0.072,0.424,0.419,0.622c0.214,0.121,0.458,0.19,0.728,0.208l0.022,0.003l0.023-0.003
			c0.743-0.056,0.975-0.397,1.038-0.664c0.04-0.166,0.1-0.56,0.1-2.061c0-1.166-0.027-2.121-0.076-2.842
			c0.612-0.386,1.216-0.597,1.793-0.624c0.393,0,0.695,0.109,0.924,0.34c0.228,0.227,0.346,0.512,0.357,0.864
			c0,0.309-0.021,0.889-0.062,1.759c0.058,1.793,0.6,2.758,1.669,2.864c0.321-0.027,0.586-0.157,0.789-0.379
			c0.205-0.225,0.312-0.515,0.312-0.865c0-0.258-0.073-0.573-0.226-0.967C73.642,63.879,73.572,63.509,73.541,63.12z"/>
		<path fill="#7CBFC7" d="M83.793,62.049c-0.083-0.194-0.148-0.361-0.193-0.512c-0.033-0.115-0.052-0.238-0.052-0.38
			c-0.021-0.584-0.189-1.117-0.504-1.587c-0.309-0.46-0.711-0.831-1.194-1.1c-0.477-0.268-0.982-0.435-1.545-0.5
			c-0.344,0-0.664,0.068-0.942,0.21c-0.231,0.114-0.405,0.265-0.518,0.449h-0.12c-0.687,0-1.321,0.184-1.891,0.549
			c-0.568,0.361-1.022,0.863-1.347,1.488c-0.325,0.627-0.488,1.322-0.485,2.113c0.086,0.611,0.3,1.23,0.626,1.846
			c0.333,0.622,0.765,1.143,1.289,1.549c0.547,0.422,1.153,0.635,1.808,0.635c0.633,0,1.248-0.114,1.827-0.349
			c0.563-0.223,1.096-0.527,1.585-0.905c0.476-0.363,0.96-0.806,1.439-1.311c0.341-0.357,0.514-0.736,0.514-1.117
			c0-0.188-0.029-0.368-0.083-0.538C83.959,62.447,83.889,62.267,83.793,62.049z M81.734,62.765c0,0.008-0.004,0.078-0.101,0.221
			c-0.191,0.226-0.44,0.466-0.744,0.716c-0.295,0.243-0.634,0.458-0.996,0.633c-0.341,0.164-0.668,0.248-0.935,0.252
			c-0.321-0.031-0.609-0.143-0.883-0.338c-0.28-0.202-0.507-0.46-0.673-0.765c-0.166-0.297-0.255-0.612-0.27-0.887
			c0.038-0.297,0.069-0.538,0.094-0.697c0.065-0.268,0.22-0.47,0.474-0.622c0.283-0.171,0.614-0.28,0.966-0.321
			c0.448-0.023,0.831-0.123,1.139-0.292c0.216-0.124,0.378-0.273,0.484-0.452c0.227,0.075,0.413,0.151,0.556,0.224
			c0.146,0.076,0.244,0.19,0.299,0.351l0.282,0.963c0.029,0.207,0.094,0.434,0.194,0.671C81.729,62.679,81.734,62.755,81.734,62.765
			z"/>
		<path fill="#7CBFC7" d="M89.594,57.143l-0.091,0.016c-0.051,0.016-0.229,0.078-0.539,0.195c-0.292,0.105-0.475,0.145-0.582,0.157
			c-0.028-0.003-0.06-0.01-0.095-0.016c-0.117-0.881-0.336-1.838-0.643-2.838c-0.048-0.191-0.216-0.417-0.733-0.417
			c-0.277,0-0.531,0.063-0.757,0.192c-0.277,0.16-0.43,0.401-0.43,0.688l0.015,0.092c0.222,0.743,0.371,1.381,0.449,1.901
			c-0.5-0.078-1.19-0.101-1.531,0.118c-0.229,0.146-0.342,0.399-0.342,0.748c0,0.884,0.605,0.95,0.79,0.95
			c0.466,0,0.896,0.048,1.279,0.145v0.503c0,0.454-0.03,1.192-0.089,2.262c-0.06,1.04-0.087,1.847-0.087,2.41
			c0.031,0.559,0.062,1.016,0.087,1.346c0,0.345,0.287,0.549,0.858,0.609l0.025,0.005l0.03-0.002
			c0.261-0.021,0.474-0.076,0.652-0.172c0.343-0.174,0.394-0.431,0.394-0.571c0-0.331-0.01-0.579-0.028-0.687
			c0.005-0.53,0.039-1.437,0.092-2.721c0.049-1.084,0.074-1.979,0.082-2.671c0.473-0.023,0.887-0.102,1.234-0.229
			c0.446-0.159,0.691-0.513,0.691-0.987c0-0.249-0.049-0.469-0.148-0.65C90.002,57.193,89.737,57.143,89.594,57.143z"/>
		<path fill="#7CBFC7" d="M102.438,64.504c0.085-0.536,0.125-0.891,0.125-1.082c0-0.257-0.032-0.511-0.089-0.752
			c-0.051-0.236-0.133-0.527-0.241-0.865c-0.103-0.33-0.173-0.571-0.217-0.736c-0.039-0.142-0.068-0.312-0.087-0.455
			c0.011-0.124,0.051-0.326,0.118-0.602c0.078-0.329,0.116-0.581,0.116-0.77c0-0.226-0.078-0.541-0.458-0.785
			c-0.5-0.327-1.117-0.334-1.525-0.05c-0.217,0.15-0.353,0.36-0.391,0.584l-0.015,0.051c-0.413-0.24-0.786-0.355-1.146-0.355
			c-0.001,0-0.006,0-0.008,0c-0.188,0.025-0.377,0.113-0.564,0.266h-0.308c-0.819,0-1.551,0.187-2.172,0.56
			c-0.502,0.29-0.854,0.584-1.082,0.891c-0.218,0.298-0.408,0.661-0.558,1.082c-0.138,0.378-0.258,0.65-0.364,0.818
			c-0.09,0.148-0.152,0.381-0.194,0.778c0.016,0.392,0.124,0.834,0.337,1.353c0.205,0.494,0.478,0.967,0.813,1.409
			c0.348,0.452,0.717,0.802,1.113,1.041c0.581,0.332,1.27,0.5,2.052,0.5c0.641,0,1.274-0.112,1.887-0.332
			c0.445-0.16,0.835-0.362,1.166-0.604c0.05,0.121,0.107,0.226,0.171,0.314c0.086,0.124,0.201,0.226,0.337,0.296
			c0.14,0.082,0.311,0.118,0.505,0.118c0.354,0,0.66-0.11,0.912-0.341c0.124-0.122,0.184-0.306,0.184-0.581
			c0-0.308-0.057-0.643-0.172-1.028C102.588,64.923,102.505,64.682,102.438,64.504z M100.175,63.336
			c0,0.314-0.055,0.579-0.175,0.819c-0.128,0.28-0.431,0.57-0.899,0.861c-0.473,0.297-0.969,0.452-1.454,0.465
			c-1.089-0.032-1.808-0.8-2.189-2.265c0-0.071-0.016-0.161-0.053-0.284c0.011-0.094,0.032-0.148,0.046-0.179
			c0.043-0.086,0.106-0.192,0.199-0.326c0.121-0.179,0.194-0.328,0.218-0.431c0.076-0.218,0.201-0.408,0.382-0.573
			c0.198-0.181,0.41-0.312,0.655-0.403c0.417-0.156,0.836-0.186,1.07-0.068c0.133,0.064,0.312,0.167,0.533,0.309
			c0.265,0.167,0.479,0.277,0.656,0.336l0.069,0.022l0.07-0.008c0.082-0.01,0.178-0.027,0.286-0.048
			c0.077-0.013,0.133-0.022,0.13-0.046l0.025,0.076C100.03,62.285,100.175,62.871,100.175,63.336z"/>
		<path fill="#7CBFC7" d="M106.348,62.246c-0.132-0.904-0.23-1.746-0.298-2.506c-0.066-0.746-0.099-1.572-0.099-2.465
			c0-0.344,0.012-0.793,0.032-1.362c0-0.292-0.122-0.548-0.357-0.743c-0.421-0.339-1.121-0.386-1.551,0.055
			c-0.205,0.209-0.317,0.503-0.335,0.895c0,0.287-0.019,0.739-0.059,1.382c0.012,1.154,0.067,2.131,0.174,2.981
			c0.098,0.812,0.236,1.76,0.416,2.902c0.217,1.31,0.26,1.909,0.26,2.18c0,0.298,0.132,0.572,0.385,0.791
			c0.233,0.201,0.492,0.312,0.771,0.34l0.034,0.002l0.033-0.002c0.468-0.053,0.679-0.299,0.776-0.493
			c0.111-0.229,0.167-0.515,0.167-0.855c0-0.394-0.025-0.789-0.076-1.17C106.571,63.812,106.48,63.168,106.348,62.246z"/>
		<path fill="#7CBFC7" d="M115.704,62.049c-0.084-0.194-0.148-0.363-0.191-0.506c-0.037-0.131-0.056-0.257-0.056-0.386
			c-0.02-0.585-0.187-1.122-0.502-1.587c-0.312-0.458-0.71-0.828-1.194-1.1c-0.479-0.268-0.981-0.435-1.544-0.5
			c-0.347,0-0.665,0.068-0.944,0.21c-0.231,0.114-0.405,0.265-0.517,0.449h-0.123c-0.684,0-1.318,0.184-1.887,0.549
			c-0.566,0.358-1.021,0.861-1.35,1.488c-0.323,0.627-0.489,1.322-0.484,2.113c0.085,0.606,0.299,1.227,0.629,1.846
			c0.328,0.622,0.763,1.146,1.285,1.549c0.549,0.422,1.155,0.635,1.807,0.635c0.636,0,1.248-0.114,1.831-0.349
			c0.566-0.225,1.1-0.53,1.585-0.905c0.473-0.361,0.957-0.805,1.438-1.311c0.342-0.357,0.514-0.736,0.514-1.117
			c0-0.191-0.027-0.373-0.083-0.538C115.869,62.447,115.799,62.267,115.704,62.049z M113.646,62.765
			c0,0.008-0.003,0.078-0.102,0.219c-0.186,0.226-0.436,0.466-0.743,0.718c-0.304,0.247-0.627,0.455-0.995,0.633
			c-0.341,0.164-0.667,0.248-0.938,0.252c-0.315-0.031-0.607-0.143-0.881-0.338c-0.278-0.202-0.506-0.46-0.672-0.762
			c-0.168-0.3-0.255-0.618-0.268-0.892c0.034-0.295,0.065-0.536,0.095-0.696c0.061-0.264,0.214-0.467,0.466-0.619
			c0.285-0.173,0.62-0.282,0.971-0.323c0.451-0.023,0.832-0.123,1.137-0.292c0.217-0.124,0.383-0.273,0.486-0.452
			c0.225,0.075,0.41,0.149,0.556,0.224c0.146,0.076,0.244,0.19,0.299,0.351l0.285,0.963c0.026,0.205,0.089,0.424,0.192,0.671
			C113.642,62.679,113.646,62.755,113.646,62.765z"/>
		<path fill="#7CBFC7" d="M124.744,63.122c0.042-0.655,0.059-1.109,0.059-1.357c0-0.315-0.011-0.544-0.031-0.674
			c-0.078-0.571-0.276-1.061-0.59-1.455c-0.312-0.397-0.712-0.693-1.182-0.879c-1.123-0.446-2.585-0.339-3.956,0.26
			c-0.098-0.234-0.24-0.462-0.426-0.683c-0.461-0.503-1.232-0.528-1.681,0.004c-0.197,0.231-0.316,0.488-0.358,0.844
			c0.016,0.19,0.092,0.444,0.226,0.772c0.055,0.145,0.102,0.256,0.134,0.337c-0.143,0.238-0.234,0.487-0.267,0.777
			c0.016,0.276,0.141,0.498,0.356,0.647c0.085,0.056,0.171,0.102,0.254,0.133c0.029,0.462,0.045,0.855,0.045,1.182
			c0,0.537-0.058,1.502-0.176,2.891c0,0.173,0.073,0.424,0.419,0.622c0.211,0.121,0.458,0.19,0.729,0.208l0.021,0.003l0.023-0.003
			c0.745-0.056,0.976-0.397,1.037-0.664c0.044-0.164,0.099-0.556,0.099-2.061c0-1.195-0.025-2.127-0.076-2.842
			c0.612-0.386,1.221-0.597,1.795-0.624c0.394,0,0.693,0.106,0.922,0.34c0.23,0.227,0.345,0.512,0.357,0.864
			c0,0.31-0.021,0.889-0.06,1.759c0.056,1.793,0.6,2.758,1.669,2.864c0.32-0.027,0.583-0.154,0.791-0.381
			c0.203-0.224,0.308-0.515,0.308-0.863c0-0.251-0.072-0.569-0.223-0.967C124.85,63.88,124.774,63.509,124.744,63.122z"/>
		<path fill="#7CBFC7" d="M135.223,65.771c-0.194-0.23-0.474-0.352-0.798-0.344c-0.828,0.17-1.561,0.268-2.161,0.287
			c-0.544-0.012-1.066-0.078-1.555-0.195c-0.477-0.113-0.92-0.302-1.313-0.562c-0.293-0.195-0.538-0.437-0.735-0.724
			c0.422-0.224,0.836-0.413,1.239-0.559c0.498-0.186,0.944-0.322,1.337-0.411c0.393-0.092,0.824-0.172,1.286-0.251
			c0.483-0.079,0.833-0.149,1.042-0.201c0.41-0.097,0.732-0.284,0.959-0.556c0.229-0.277,0.346-0.602,0.346-0.962
			c0-0.425-0.158-0.828-0.478-1.21l-0.644-0.702c-0.289-0.318-0.577-0.581-0.847-0.782c-0.29-0.212-0.62-0.382-0.983-0.504
			c-0.364-0.126-0.782-0.188-1.243-0.188c-0.345,0-0.786,0.049-1.356,0.154c-0.729,0.151-1.35,0.48-1.849,0.979
			c-0.486,0.482-0.849,1.051-1.083,1.678c-0.224,0.618-0.347,1.245-0.358,1.892c0.025,0.339,0.07,0.633,0.135,0.893
			c-0.081,0.122-0.136,0.29-0.166,0.521c0.023,0.238,0.115,0.481,0.278,0.727c0.071,0.108,0.293,0.432,0.643,0.432l0.017-0.003
			c0.631,0.888,1.411,1.526,2.322,1.899c0.956,0.398,1.986,0.599,3.065,0.599c0.78,0,1.621-0.092,2.493-0.271
			c0.435-0.081,0.683-0.405,0.683-0.884C135.498,66.243,135.406,65.989,135.223,65.771z M131.545,61.215
			c-0.517,0.139-0.881,0.24-1.086,0.298c-0.747,0.203-1.584,0.508-2.492,0.909c0.03-0.29,0.098-0.579,0.21-0.858
			c0.133-0.328,0.317-0.623,0.546-0.876c0.227-0.254,0.494-0.455,0.795-0.602c0.303-0.144,0.62-0.214,0.967-0.214
			c0.404,0,0.755,0.096,1.066,0.297c0.325,0.206,0.586,0.435,0.771,0.676c0.038,0.049,0.068,0.096,0.098,0.129
			C132.238,61.028,131.944,61.108,131.545,61.215z"/>
	</g>
</g>
</svg>
