<?xml version="1.0" encoding="utf-8"?>
<!-- Generator: Adobe Illustrator 16.1.0, SVG Export Plug-In . SVG Version: 6.00 Build 0)  -->
<!DOCTYPE svg PUBLIC "-//W3C//DTD SVG 1.1//EN" "http://www.w3.org/Graphics/SVG/1.1/DTD/svg11.dtd">
<svg version="1.1" id="Layer_1" xmlns="http://www.w3.org/2000/svg" xmlns:xlink="http://www.w3.org/1999/xlink" x="0px" y="0px"
	 width="306px" height="84px" viewBox="0 0 306 84" enable-background="new 0 0 306 84" xml:space="preserve">
<g>
	<path fill="#00B1AF" d="M40.229,18.411c-0.806-0.567-1.723-0.854-2.727-0.854c-1.827,0-2.627,0.979-2.921,1.522
		c-1.571,2.375-3.531,5.24-5.833,8.524c-0.421-0.688-0.89-1.428-1.398-2.21c-1.101-1.688-1.976-3.11-2.6-4.222
		c-0.584-1.035-1.118-2.271-1.578-3.653c-0.141-0.499-0.786-2.132-3.104-2.132c-0.987,0-1.901,0.358-2.722,1.067
		c-0.874,0.76-1.334,1.747-1.334,2.856c0,0.532,0.064,0.951,0.178,1.209c0.445,1.31,0.97,2.521,1.561,3.597
		c0.566,1.032,1.369,2.326,2.383,3.849c0.974,1.457,1.797,2.729,2.45,3.779c0.514,0.831,1.023,1.756,1.516,2.748
		c-0.073,0.272-0.137,0.572-0.192,0.912l-0.034,0.209l0.018,0.213c0.104,1.191,0.476,2.194,1.108,2.979
		c0.028,1.091,0.07,2.162,0.13,3.218c0.07,1.252,0.171,2.584,0.307,4.082c0.129,1.42,0.218,2.48,0.264,3.064
		c0,0.707,0.241,1.717,1.389,2.521c0.693,0.482,1.489,0.762,2.367,0.826l0.089,0.006l0.161-0.006c0.93-0.066,1.738-0.377,2.404-0.92
		c0.796-0.648,1.214-1.572,1.209-2.697c-0.063-1.127-0.171-2.793-0.319-4.998c-0.147-2.188-0.256-3.964-0.327-5.333
		c-0.058-1.106-0.094-2.117-0.104-3.013l4.373-6.213c0.63-0.894,1.297-1.875,2.009-2.949c0.707-1.064,1.485-2.267,2.352-3.629
		l0.073-0.13c0.232-0.468,0.35-0.962,0.35-1.466C41.728,20.388,41.467,19.273,40.229,18.411z"/>
	<path fill="#F26B31" d="M123.851,14.464c-0.752-0.476-1.639-0.719-2.633-0.719c-0.852,0-1.605,0.209-2.238,0.621
		c-0.818,0.54-1.289,1.398-1.289,2.347c-0.02,1.195-0.109,2.982-0.281,5.462c-0.166,2.398-0.398,5.051-0.693,7.882
		c-0.287,2.781-0.641,5.446-1.049,7.923c-0.01,0.064-0.021,0.128-0.031,0.19c-0.443-0.997-0.912-1.972-1.393-2.908
		c-1.273-2.477-2.504-4.66-3.664-6.486c-1.135-1.787-2.402-3.688-3.752-5.631l-0.934-1.518c-0.34-0.55-0.709-1.041-1.102-1.46
		c-0.414-0.447-0.967-0.896-1.627-1.325c-1.303-0.917-2.586-1.381-3.811-1.381c-1.02,0-2.455,0.36-3.51,2.078
		c-0.664,1.077-1.057,2.497-1.158,4.219c-0.119,1.844-0.297,4.099-0.537,6.896c-0.223,2.588-0.484,5.175-0.777,7.687
		c-0.291,2.492-0.646,5.035-1.062,7.597l-0.014,0.229c0,0.91,0.375,1.736,1.084,2.391c0.631,0.588,1.385,0.938,2.24,1.037
		l0.213,0.025l0.213-0.029c1.65-0.213,2.799-1.27,3.066-2.785c0.506-2.002,0.98-4.324,1.404-6.906
		c0.422-2.562,0.787-5.158,1.084-7.717c0.057-0.501,0.109-0.981,0.16-1.446c0.285,0.445,0.568,0.889,0.846,1.328
		c1.125,1.787,2.166,3.504,3.092,5.101c0.93,1.596,1.773,3.159,2.506,4.648c0.725,1.472,1.258,2.716,1.635,3.832l0.982,2.473
		c0.373,0.939,0.859,1.771,1.443,2.471c0.76,0.912,1.76,1.441,2.967,1.568l0.225,0.012l0.039-0.002
		c1.346-0.064,2.617-0.676,3.779-1.816c1.043-1.021,1.816-2.225,2.295-3.564c0.736-1.908,1.375-4.701,1.949-8.537
		c0.555-3.696,0.996-7.559,1.311-11.48c0.312-3.933,0.492-7.182,0.529-9.67C125.358,16.018,124.821,15.083,123.851,14.464z"/>
	<path fill="#BCCB2A" d="M167.394,46.477c-1.213-1.744-2.119-3.129-2.693-4.109c-0.447-0.765-0.918-1.695-1.395-2.764
		c0.098-0.336,0.15-0.717,0.15-1.138c0-0.959-0.256-1.862-0.766-2.688c-0.396-0.64-0.953-1.141-1.619-1.459
		c-0.174-0.489-0.461-1.333-0.945-2.783c-0.732-2.208-1.529-4.382-2.363-6.464c-0.857-2.141-1.846-4.059-2.938-5.702
		c-1.383-2.085-2.855-3.098-4.498-3.098c-0.928,0-1.855,0.438-2.852,1.357c-0.438,0.447-0.922,1.196-1.521,2.354
		c-0.521,1.002-1.359,2.771-2.492,5.258l-2.529,5.542c-0.447,0.969-0.941,2.027-1.492,3.174l-0.639,0.049
		c-0.648,0.05-1.266,0.154-1.838,0.31c-0.74,0.205-1.389,0.575-1.924,1.099c-0.605,0.594-0.977,1.368-1.098,2.3l-0.031,0.21
		l0.027,0.212c0.09,0.803,0.359,1.514,0.807,2.116c0.277,0.376,0.619,0.674,1.004,0.882c-0.549,0.863-0.975,1.585-1.289,2.193
		c-0.434,0.834-0.725,1.719-0.861,2.635l-0.027,0.195l0.014,0.189c0.076,0.959,0.484,1.822,1.18,2.498
		c0.715,0.695,1.586,1.064,2.537,1.064l0,0l0.166-0.01c1.854-0.205,2.738-1.297,3.094-1.922c0.67-1.117,2.012-3.527,3.99-7.167
		l0.109-0.006c0.555-0.03,1.121-0.044,1.691-0.044c2.799,0,6.002,0.123,9.521,0.366c1.959,4.276,3.689,7.354,5.266,9.377
		c0.57,0.867,1.551,1.393,2.906,1.561l0.166,0.023l0.17-0.012c0.922-0.064,1.727-0.342,2.398-0.82c0.852-0.613,1.32-1.51,1.32-2.529
		C168.101,47.984,167.876,47.256,167.394,46.477z M152.843,33.776c-1.541-0.045-3.186-0.068-4.9-0.068h-0.355l2.777-6.398
		c0.576,1.365,1.16,2.859,1.74,4.452L152.843,33.776z"/>
	<path fill="#FCB823" d="M82.159,46.477c-1.215-1.748-2.121-3.131-2.695-4.109c-0.447-0.762-0.914-1.692-1.393-2.764
		c0.1-0.336,0.148-0.718,0.148-1.138c0-0.958-0.256-1.862-0.764-2.688c-0.398-0.64-0.957-1.141-1.619-1.459
		c-0.174-0.489-0.463-1.333-0.945-2.783c-0.736-2.212-1.529-4.388-2.365-6.464c-0.855-2.14-1.844-4.058-2.936-5.702
		c-1.386-2.085-2.857-3.098-4.499-3.098c-0.931,0-1.858,0.438-2.853,1.356c-0.443,0.453-0.913,1.179-1.523,2.355
		c-0.521,1.004-1.359,2.773-2.49,5.257l-2.529,5.542c-0.447,0.969-0.941,2.027-1.492,3.174l-0.637,0.049
		c-0.651,0.05-1.27,0.154-1.838,0.31c-0.742,0.205-1.391,0.575-1.925,1.099c-0.606,0.594-0.975,1.369-1.098,2.298l-0.03,0.212
		l0.026,0.212c0.09,0.803,0.362,1.514,0.807,2.116c0.279,0.376,0.62,0.674,1.004,0.882c-0.548,0.859-0.972,1.58-1.29,2.195
		c-0.435,0.832-0.724,1.719-0.86,2.633l-0.029,0.195l0.016,0.189c0.076,0.959,0.483,1.822,1.179,2.498
		c0.717,0.695,1.584,1.064,2.538,1.064c0,0,0,0,0.002,0l0.164-0.01c1.855-0.205,2.738-1.297,3.094-1.922
		c0.67-1.119,1.979-3.463,3.992-7.167l0.107-0.006c0.556-0.03,1.119-0.044,1.691-0.044c2.801,0,6.002,0.123,9.523,0.366
		c1.955,4.274,3.686,7.354,5.264,9.377c0.572,0.867,1.553,1.393,2.906,1.561l0.168,0.023l0.17-0.012
		c0.92-0.064,1.727-0.342,2.396-0.82c0.852-0.613,1.322-1.51,1.322-2.529C82.866,47.986,82.638,47.258,82.159,46.477z
		 M67.606,33.776c-1.54-0.045-3.186-0.068-4.9-0.068h-0.354l2.775-6.4c0.576,1.367,1.162,2.861,1.742,4.454L67.606,33.776z"/>
	<g>
		<path fill="#C5C7C9" d="M26.215,61.971c-0.263-0.18-0.569-0.27-0.907-0.27c-0.834,0-1.099,0.453-1.18,0.719
			c-0.293,0.924-1.116,2.863-2.449,5.77c-0.126-0.176-0.242-0.363-0.347-0.559c-0.214-0.393-0.383-0.756-0.518-1.117
			c-0.144-0.377-0.31-0.855-0.5-1.43c-0.195-0.594-0.352-1.031-0.464-1.311c-0.185-0.48-0.602-0.746-1.171-0.746
			c-0.329,0-0.632,0.105-0.908,0.318c-0.293,0.232-0.449,0.537-0.449,0.883l0.074,0.311c0.013,0.041,0.026,0.09,0.06,0.209
			c0.16,0.369,0.368,0.906,0.628,1.611c0.26,0.711,0.508,1.334,0.736,1.848c0.231,0.518,0.514,1.025,0.841,1.506
			c0.276,0.41,0.608,0.791,0.985,1.141c-0.106,0.219-0.271,0.553-0.495,1.004c-0.356,0.721-0.591,1.229-0.722,1.564
			c-0.011,0.039-0.027,0.098-0.057,0.246l-0.035,0.084l0.006,0.088c0.024,0.33,0.171,0.619,0.426,0.834
			C20.02,74.893,20.291,75,20.574,75c0.481,0,0.693-0.213,0.786-0.389c0.076-0.141,0.269-0.52,0.58-1.137
			c0.261-0.518,0.481-0.945,0.658-1.283c0.254-0.059,0.471-0.211,0.639-0.449c0.191-0.273,0.289-0.592,0.289-0.951
			c0-0.279-0.051-0.521-0.154-0.725c0.139-0.307,0.316-0.674,0.533-1.107l0.997-2c0.404-0.807,0.748-1.521,1.033-2.137
			c0.292-0.641,0.519-1.191,0.693-1.693l0.027-0.139c0.019-0.076,0.028-0.133,0.028-0.186C26.682,62.461,26.52,62.168,26.215,61.971
			z"/>
		<path fill="#C5C7C9" d="M37.751,66.287c-0.096-0.225-0.171-0.422-0.222-0.592c-0.043-0.143-0.064-0.287-0.064-0.441
			c-0.021-0.676-0.216-1.293-0.581-1.834c-0.357-0.531-0.821-0.957-1.38-1.271c-0.549-0.307-1.134-0.502-1.784-0.578
			c-0.401,0-0.77,0.08-1.092,0.242c-0.269,0.133-0.469,0.307-0.6,0.52h-0.14c-0.791,0-1.525,0.211-2.186,0.635
			c-0.657,0.42-1.18,0.998-1.555,1.723c-0.374,0.719-0.563,1.523-0.56,2.441c0.102,0.703,0.345,1.422,0.723,2.135
			c0.382,0.715,0.883,1.318,1.49,1.787c0.631,0.488,1.334,0.736,2.088,0.736c0.731,0,1.443-0.135,2.115-0.402
			c0.655-0.26,1.271-0.613,1.833-1.047c0.543-0.418,1.103-0.926,1.665-1.516c0.393-0.414,0.592-0.85,0.592-1.291
			c0-0.227-0.031-0.432-0.097-0.623C37.941,66.746,37.861,66.535,37.751,66.287z M35.369,67.113c0,0.008-0.003,0.094-0.117,0.254
			c-0.22,0.264-0.506,0.541-0.856,0.826c-0.343,0.281-0.731,0.529-1.152,0.732c-0.396,0.191-0.772,0.287-1.083,0.293
			c-0.369-0.037-0.705-0.164-1.02-0.393c-0.324-0.232-0.586-0.529-0.779-0.883c-0.192-0.346-0.293-0.709-0.309-1.025
			c0.04-0.346,0.077-0.621,0.107-0.807c0.075-0.307,0.251-0.541,0.543-0.717c0.329-0.199,0.713-0.326,1.122-0.373
			c0.52-0.027,0.962-0.141,1.314-0.34c0.252-0.141,0.439-0.316,0.563-0.52c0.26,0.086,0.474,0.174,0.639,0.26
			c0.172,0.086,0.284,0.221,0.347,0.4l0.172,0.588c0.057,0.191,0.112,0.385,0.155,0.529c0.032,0.232,0.104,0.484,0.225,0.777
			C35.366,67.012,35.369,67.107,35.369,67.113z"/>
		<path fill="#C5C7C9" d="M47.975,64.113c-0.229-0.082-0.501-0.121-0.837-0.121c-0.233,0-0.938,0-1.062,0.545
			c-0.069,0.387-0.139,0.949-0.208,1.674l-0.102,1.113c-0.071,0.27-0.208,0.586-0.399,0.936c-0.184,0.334-0.441,0.629-0.767,0.881
			c-0.301,0.236-0.647,0.352-1.008,0.355c-0.197-0.029-0.387-0.223-0.56-0.578c-0.215-0.443-0.38-1.031-0.49-1.75
			c-0.112-0.729-0.176-1.531-0.191-2.365c0.042-1.084,0.098-1.883,0.171-2.424c0-0.623-0.411-0.996-1.1-0.996
			c-0.28,0-0.552,0.068-0.803,0.205c-0.208,0.111-0.368,0.256-0.479,0.428c-0.036,0.031-0.064,0.08-0.087,0.166
			c-0.003,0.01-0.009,0.021-0.013,0.031h0.004c-0.008,0.039-0.017,0.084-0.024,0.131l-0.003,0.025
			c-0.028,0.178-0.054,0.443-0.089,0.826c-0.063,0.652-0.101,1.311-0.114,1.969c0.013,1.045,0.111,2.051,0.293,2.994
			c0.188,0.963,0.538,1.811,1.037,2.523c0.532,0.754,1.267,1.193,2.23,1.314h0.458c0.467,0,0.916-0.104,1.333-0.309
			c0.208-0.102,0.413-0.242,0.617-0.422c0.029,0.404,0.083,0.703,0.163,0.922c0.099,0.244,0.379,0.314,0.607,0.35
			c0.212,0.033,0.44,0.051,0.688,0.051c0.271,0,0.995,0,0.991-0.58c-0.057-0.523-0.107-1.285-0.146-2.176
			c0.013-0.561,0.041-1.094,0.08-1.598c0.042-0.508,0.091-1.08,0.159-1.717l0.183-1.799C48.509,64.561,48.438,64.271,47.975,64.113z
			"/>
		<path fill="#C5C7C9" d="M64.063,69.121c0.098-0.631,0.143-1.029,0.143-1.25c0-0.287-0.033-0.58-0.1-0.871
			c-0.062-0.273-0.154-0.607-0.277-0.998c-0.119-0.383-0.203-0.666-0.254-0.85c-0.046-0.162-0.08-0.357-0.098-0.527
			c0.008-0.096,0.035-0.291,0.135-0.695c0.09-0.379,0.135-0.67,0.135-0.889c0-0.26-0.092-0.629-0.531-0.91
			c-0.582-0.375-1.283-0.385-1.767-0.053c-0.247,0.172-0.405,0.412-0.45,0.672l-0.013,0.057c-0.479-0.273-0.911-0.406-1.327-0.406
			c-0.004,0-0.008,0-0.011,0c-0.216,0.025-0.435,0.129-0.651,0.303h-0.355c-0.947,0-1.793,0.219-2.508,0.646
			c-0.584,0.34-0.994,0.678-1.252,1.031c-0.249,0.338-0.468,0.758-0.649,1.254c-0.157,0.434-0.296,0.75-0.415,0.941
			c-0.105,0.172-0.177,0.441-0.225,0.902c0.016,0.459,0.142,0.971,0.387,1.562c0.235,0.57,0.553,1.119,0.941,1.629
			c0.397,0.525,0.829,0.928,1.285,1.205c0.671,0.383,1.468,0.576,2.372,0.576c0.739,0,1.472-0.127,2.181-0.383
			c0.516-0.186,0.967-0.42,1.348-0.697c0.06,0.135,0.125,0.256,0.199,0.363c0.099,0.141,0.229,0.258,0.389,0.342
			c0.165,0.092,0.362,0.139,0.584,0.139c0.414,0,0.766-0.131,1.054-0.396c0.146-0.141,0.216-0.359,0.216-0.67
			c0-0.357-0.066-0.746-0.202-1.189C64.236,69.609,64.144,69.328,64.063,69.121z M61.448,67.771c0,0.359-0.066,0.674-0.202,0.947
			c-0.149,0.326-0.499,0.66-1.041,0.996c-0.546,0.342-1.12,0.523-1.683,0.537c-1.255-0.037-2.086-0.924-2.527-2.617
			c0-0.084-0.02-0.188-0.062-0.33c0.014-0.109,0.035-0.172,0.054-0.207c0.048-0.096,0.126-0.223,0.228-0.371
			c0.141-0.207,0.227-0.381,0.256-0.5c0.086-0.256,0.23-0.475,0.441-0.666c0.223-0.203,0.477-0.359,0.756-0.463
			c0.483-0.184,0.961-0.217,1.238-0.08c0.156,0.074,0.359,0.193,0.616,0.357c0.306,0.195,0.553,0.32,0.761,0.389l0.078,0.025
			l0.084-0.012c0.092-0.012,0.201-0.029,0.327-0.051c0.091-0.018,0.153-0.027,0.147-0.057l0.031,0.09
			C61.28,66.559,61.448,67.234,61.448,67.771z"/>
		<path fill="#C5C7C9" d="M71.589,61.051c-0.695,0.141-1.357,0.447-1.971,0.906c-0.348,0.264-0.666,0.531-0.947,0.805
			c-0.027-0.156-0.053-0.295-0.076-0.412c-0.041-0.203-0.09-0.361-0.137-0.455c-0.088-0.211-0.316-0.461-0.9-0.461
			c-0.305,0-0.59,0.076-0.843,0.223c-0.411,0.23-0.496,0.518-0.491,0.783c0.193,1.135,0.326,2.115,0.395,2.916
			c-0.178,0.439-0.287,0.967-0.328,1.627c0.045,0.389,0.064,0.652,0.066,0.752c-0.041,0.391-0.088,1.08-0.138,2.148
			c0.062,1.037,0.099,1.119,0.136,1.199c0.156,0.348,0.525,0.545,1.128,0.605l0.036,0.004l0.035-0.004
			c0.898-0.086,1.033-0.555,1.031-0.799c0.021-0.262,0.035-0.621,0.039-1.072c0.002-0.432,0.014-0.783,0.035-1.061
			c0.02-0.244,0.07-0.504,0.152-0.783c0.133-0.482,0.197-1.098,0.201-1.875c0.096-0.32,0.32-0.674,0.662-1.051
			c0.383-0.42,0.812-0.795,1.273-1.115c0.453-0.314,0.83-0.516,1.092-0.594c0.219-0.045,0.584-0.227,0.584-0.959
			c0-0.318-0.068-0.604-0.203-0.854C72.253,61.215,71.983,61.025,71.589,61.051z"/>
		<path fill="#C5C7C9" d="M82.61,70.191c-0.959,0.197-1.809,0.307-2.5,0.332c-0.627-0.016-1.234-0.09-1.797-0.225
			c-0.553-0.133-1.062-0.352-1.518-0.652c-0.338-0.223-0.625-0.502-0.855-0.836c0.488-0.256,0.967-0.475,1.434-0.646
			c0.576-0.211,1.096-0.371,1.547-0.473c0.457-0.105,0.951-0.201,1.488-0.291c0.559-0.092,0.963-0.172,1.203-0.234
			c0.473-0.109,0.844-0.326,1.109-0.641c0.264-0.32,0.4-0.693,0.4-1.111c0-0.494-0.184-0.961-0.553-1.4l-0.744-0.814
			c-0.346-0.373-0.668-0.668-0.98-0.898c-0.33-0.246-0.711-0.443-1.133-0.586c-0.42-0.143-0.906-0.217-1.439-0.217
			c-0.398,0-0.908,0.057-1.568,0.178c-0.84,0.176-1.559,0.559-2.135,1.133c-0.562,0.559-0.982,1.213-1.25,1.939
			c-0.26,0.711-0.402,1.434-0.418,2.188c0.029,0.379,0.082,0.725,0.158,1.029c-0.094,0.131-0.158,0.303-0.191,0.514l-0.006,0.049
			l0.004,0.047c0.027,0.279,0.139,0.562,0.322,0.834c0.082,0.123,0.338,0.5,0.742,0.5l0.02-0.002
			c0.729,1.023,1.629,1.762,2.682,2.195c1.105,0.459,2.301,0.691,3.545,0.691c0.902,0,1.875-0.107,2.883-0.314
			c0.502-0.094,0.791-0.469,0.791-1.021c0-0.322-0.105-0.613-0.318-0.869C83.306,70.322,83.007,70.184,82.61,70.191z M79.28,65.322
			c-0.6,0.158-1.02,0.275-1.258,0.346c-0.867,0.234-1.834,0.586-2.879,1.047c0.029-0.334,0.111-0.664,0.244-0.99
			c0.148-0.375,0.359-0.719,0.629-1.016c0.262-0.291,0.572-0.525,0.922-0.691c0.344-0.166,0.717-0.248,1.117-0.248
			c0.461,0,0.873,0.113,1.229,0.34c0.379,0.24,0.678,0.504,0.893,0.783c0.045,0.059,0.082,0.109,0.115,0.15
			C80.079,65.104,79.741,65.197,79.28,65.322z"/>
		<path fill="#C5C7C9" d="M97.54,67.523c0.047-0.756,0.072-1.279,0.072-1.566c0-0.363-0.014-0.621-0.041-0.777
			c-0.088-0.656-0.316-1.223-0.682-1.684c-0.361-0.459-0.822-0.801-1.367-1.018c-1.293-0.516-2.984-0.393-4.572,0.301
			c-0.113-0.27-0.279-0.533-0.492-0.791c-0.543-0.582-1.426-0.611-1.945,0.004c-0.227,0.268-0.363,0.566-0.414,0.973
			c0.02,0.217,0.102,0.502,0.26,0.9c0.068,0.166,0.121,0.295,0.158,0.387c-0.168,0.275-0.273,0.562-0.314,0.902
			c0.021,0.312,0.166,0.572,0.418,0.746c0.1,0.066,0.197,0.119,0.293,0.156c0.035,0.531,0.051,0.984,0.051,1.361
			c0,0.615-0.066,1.729-0.203,3.344c0,0.199,0.084,0.488,0.484,0.719c0.248,0.139,0.531,0.221,0.842,0.24l0.025,0.002l0.027-0.002
			c0.859-0.064,1.127-0.459,1.199-0.768c0.047-0.191,0.115-0.648,0.115-2.383c0-1.348-0.031-2.451-0.088-3.287
			c0.707-0.443,1.406-0.686,2.072-0.719c0.455,0,0.803,0.125,1.068,0.391c0.264,0.264,0.4,0.596,0.414,1.002
			c0,0.357-0.025,1.025-0.072,2.033c0.066,2.072,0.693,3.188,1.93,3.311c0.371-0.031,0.678-0.18,0.912-0.439
			c0.238-0.256,0.359-0.592,0.359-1c0-0.297-0.084-0.662-0.26-1.117C97.657,68.4,97.575,67.973,97.54,67.523z"/>
		<path fill="#C5C7C9" d="M109.392,66.285c-0.096-0.225-0.17-0.418-0.223-0.594c-0.039-0.131-0.061-0.273-0.061-0.439
			c-0.023-0.674-0.219-1.291-0.582-1.832c-0.357-0.533-0.822-0.959-1.381-1.271c-0.551-0.309-1.137-0.502-1.785-0.578
			c-0.398,0-0.77,0.08-1.09,0.242c-0.268,0.133-0.469,0.307-0.6,0.52h-0.139c-0.793,0-1.527,0.211-2.186,0.635
			c-0.656,0.418-1.182,0.998-1.557,1.723c-0.375,0.721-0.564,1.527-0.561,2.441c0.1,0.705,0.346,1.424,0.723,2.135
			c0.385,0.717,0.885,1.32,1.49,1.789c0.633,0.488,1.334,0.734,2.09,0.734c0.732,0,1.443-0.135,2.113-0.402
			c0.65-0.26,1.268-0.611,1.832-1.047c0.551-0.422,1.109-0.932,1.664-1.516c0.395-0.414,0.594-0.85,0.594-1.291
			c0-0.219-0.033-0.428-0.096-0.623C109.585,66.746,109.503,66.535,109.392,66.285z M107.013,67.113c0,0.008-0.004,0.09-0.117,0.256
			c-0.221,0.262-0.508,0.537-0.859,0.824c-0.342,0.281-0.732,0.529-1.152,0.732c-0.395,0.191-0.771,0.287-1.08,0.293
			c-0.371-0.037-0.705-0.164-1.021-0.393c-0.324-0.232-0.584-0.529-0.777-0.883c-0.191-0.346-0.295-0.709-0.311-1.023
			c0.043-0.348,0.08-0.623,0.107-0.809c0.076-0.307,0.254-0.541,0.547-0.717c0.328-0.199,0.711-0.326,1.117-0.373
			c0.52-0.027,0.961-0.141,1.316-0.34c0.25-0.141,0.438-0.314,0.561-0.52c0.262,0.086,0.477,0.176,0.643,0.26
			c0.17,0.086,0.281,0.219,0.346,0.402l0.326,1.115c0.033,0.238,0.109,0.5,0.225,0.773
			C107.007,67.012,107.013,67.104,107.013,67.113z"/>
		<path fill="#C5C7C9" d="M116.099,60.615l-0.105,0.016c-0.059,0.02-0.264,0.092-0.623,0.225c-0.338,0.125-0.549,0.168-0.674,0.184
			c-0.031-0.004-0.068-0.012-0.109-0.018c-0.135-1.02-0.387-2.125-0.742-3.281c-0.055-0.223-0.25-0.48-0.848-0.48
			c-0.32,0-0.615,0.074-0.875,0.221c-0.32,0.186-0.496,0.465-0.496,0.795l0.016,0.107c0.258,0.859,0.43,1.594,0.52,2.195
			c-0.578-0.088-1.375-0.115-1.77,0.141c-0.264,0.168-0.395,0.459-0.395,0.865c0,1.02,0.699,1.098,0.912,1.098
			c0.539,0,1.035,0.055,1.479,0.164v0.582c0,0.527-0.033,1.381-0.102,2.613c-0.068,1.205-0.102,2.137-0.102,2.791
			c0.037,0.645,0.072,1.174,0.102,1.555c0,0.398,0.332,0.635,0.992,0.705l0.029,0.004l0.035-0.004
			c0.301-0.02,0.547-0.086,0.754-0.195c0.396-0.201,0.455-0.502,0.455-0.664c0-0.381-0.012-0.666-0.033-0.793
			c0.006-0.611,0.045-1.66,0.107-3.145c0.055-1.254,0.084-2.289,0.094-3.086c0.547-0.029,1.025-0.117,1.428-0.264
			c0.516-0.188,0.799-0.594,0.799-1.145c0-0.285-0.057-0.539-0.172-0.75C116.569,60.674,116.265,60.615,116.099,60.615z"/>
		<path fill="#C5C7C9" d="M130.946,69.123c0.098-0.619,0.145-1.029,0.145-1.252c0-0.297-0.037-0.59-0.104-0.867
			c-0.059-0.273-0.152-0.609-0.277-1.004c-0.119-0.381-0.201-0.66-0.252-0.848c-0.045-0.166-0.078-0.361-0.1-0.527
			c0.012-0.143,0.059-0.377,0.135-0.695c0.092-0.379,0.137-0.67,0.137-0.889c0-0.26-0.092-0.629-0.531-0.91
			c-0.578-0.375-1.291-0.385-1.764-0.053c-0.25,0.17-0.406,0.412-0.451,0.67l-0.016,0.059c-0.479-0.273-0.91-0.406-1.326-0.406
			c-0.002,0-0.006,0-0.01,0c-0.217,0.027-0.436,0.129-0.652,0.303h-0.355c-0.947,0-1.793,0.219-2.51,0.646
			c-0.58,0.34-0.988,0.678-1.252,1.033c-0.252,0.342-0.471,0.762-0.645,1.25c-0.158,0.438-0.299,0.754-0.42,0.945
			c-0.105,0.174-0.176,0.441-0.225,0.9c0.018,0.453,0.143,0.965,0.389,1.562c0.236,0.57,0.553,1.119,0.941,1.629
			c0.4,0.525,0.828,0.928,1.285,1.205c0.672,0.383,1.469,0.576,2.373,0.576c0.74,0,1.473-0.127,2.182-0.383
			c0.514-0.186,0.965-0.418,1.348-0.697c0.057,0.137,0.123,0.26,0.197,0.361c0.1,0.143,0.232,0.262,0.389,0.344
			c0.162,0.092,0.359,0.139,0.584,0.139c0.41,0,0.764-0.131,1.055-0.395c0.145-0.143,0.213-0.355,0.213-0.672
			c0-0.359-0.066-0.746-0.199-1.191C131.12,69.609,131.024,69.328,130.946,69.123z M128.331,67.771c0,0.365-0.064,0.672-0.203,0.947
			c-0.148,0.326-0.498,0.66-1.039,0.996c-0.547,0.342-1.121,0.523-1.682,0.537c-1.258-0.037-2.09-0.924-2.531-2.617
			c0-0.082-0.018-0.188-0.061-0.328c0.012-0.109,0.037-0.172,0.053-0.209c0.051-0.096,0.123-0.219,0.23-0.373
			c0.141-0.207,0.225-0.381,0.252-0.498c0.088-0.256,0.232-0.473,0.441-0.664c0.229-0.209,0.475-0.361,0.758-0.465
			c0.48-0.184,0.965-0.217,1.236-0.08c0.154,0.074,0.361,0.193,0.617,0.357c0.305,0.193,0.553,0.32,0.758,0.389l0.08,0.025
			l0.082-0.012c0.094-0.012,0.205-0.029,0.33-0.051c0.09-0.018,0.154-0.027,0.15-0.057l0.029,0.09
			C128.163,66.559,128.331,67.234,128.331,67.771z"/>
		<path fill="#C5C7C9" d="M135.466,66.512c-0.152-1.043-0.266-2.018-0.344-2.896c-0.076-0.859-0.113-1.816-0.113-2.848
			c0-0.396,0.012-0.92,0.037-1.578c0-0.336-0.143-0.631-0.414-0.855c-0.486-0.395-1.297-0.447-1.793,0.062
			c-0.236,0.24-0.365,0.582-0.387,1.033c0,0.33-0.021,0.854-0.068,1.6c0.014,1.334,0.078,2.461,0.201,3.445
			c0.113,0.938,0.273,2.035,0.482,3.355c0.248,1.514,0.299,2.205,0.299,2.52c0,0.346,0.152,0.662,0.445,0.914
			c0.27,0.23,0.568,0.361,0.893,0.391l0.039,0.004l0.037-0.004c0.541-0.061,0.785-0.344,0.898-0.57
			c0.129-0.26,0.193-0.592,0.193-0.986c0-0.457-0.029-0.91-0.088-1.352C135.726,68.322,135.62,67.58,135.466,66.512z"/>
		<path fill="#C5C7C9" d="M146.282,66.285c-0.098-0.225-0.17-0.422-0.221-0.584c-0.043-0.154-0.064-0.299-0.064-0.447
			c-0.021-0.678-0.217-1.295-0.58-1.834c-0.359-0.531-0.822-0.957-1.381-1.271c-0.553-0.309-1.135-0.504-1.785-0.578
			c-0.4,0-0.77,0.08-1.092,0.242c-0.268,0.133-0.469,0.307-0.598,0.52h-0.141c-0.791,0-1.525,0.213-2.182,0.635
			c-0.656,0.416-1.18,0.996-1.561,1.723c-0.373,0.721-0.564,1.527-0.561,2.441c0.1,0.699,0.346,1.418,0.727,2.135
			c0.381,0.719,0.883,1.322,1.486,1.789c0.635,0.488,1.336,0.734,2.09,0.734c0.734,0,1.443-0.135,2.115-0.402
			c0.656-0.26,1.271-0.613,1.832-1.047c0.547-0.42,1.107-0.93,1.662-1.516c0.396-0.414,0.596-0.85,0.596-1.291
			c0-0.221-0.033-0.43-0.098-0.623C146.474,66.746,146.392,66.535,146.282,66.285z M143.903,67.113c0,0.008-0.004,0.092-0.117,0.254
			c-0.215,0.258-0.504,0.537-0.859,0.826c-0.352,0.287-0.727,0.527-1.15,0.732c-0.395,0.191-0.771,0.287-1.086,0.293
			c-0.365-0.037-0.701-0.164-1.018-0.393c-0.322-0.232-0.584-0.529-0.777-0.881c-0.193-0.348-0.295-0.711-0.309-1.027
			c0.039-0.346,0.076-0.621,0.109-0.809c0.07-0.305,0.248-0.537,0.539-0.715c0.33-0.199,0.715-0.326,1.121-0.373
			c0.521-0.027,0.963-0.141,1.314-0.34c0.252-0.141,0.441-0.314,0.562-0.52c0.26,0.086,0.475,0.174,0.643,0.26
			s0.281,0.219,0.346,0.402l0.328,1.113c0.031,0.236,0.104,0.492,0.223,0.775C143.897,67.012,143.903,67.104,143.903,67.113z"/>
		<path fill="#C5C7C9" d="M156.733,67.525c0.049-0.756,0.068-1.281,0.068-1.568c0-0.363-0.014-0.627-0.037-0.779
			c-0.09-0.662-0.318-1.227-0.682-1.682c-0.361-0.459-0.822-0.801-1.365-1.018c-1.299-0.516-2.988-0.393-4.574,0.301
			c-0.113-0.271-0.277-0.533-0.492-0.787c-0.533-0.584-1.426-0.613-1.943,0.002c-0.227,0.268-0.365,0.568-0.414,0.975
			c0.018,0.223,0.105,0.516,0.26,0.895c0.064,0.166,0.117,0.295,0.156,0.389c-0.166,0.277-0.271,0.564-0.309,0.9
			c0.018,0.318,0.162,0.576,0.412,0.746c0.098,0.066,0.197,0.119,0.293,0.156c0.035,0.533,0.053,0.986,0.053,1.363
			c0,0.623-0.066,1.738-0.203,3.344c0,0.199,0.084,0.488,0.484,0.719c0.244,0.139,0.529,0.221,0.842,0.24l0.025,0.002l0.027-0.002
			c0.861-0.064,1.127-0.459,1.197-0.766c0.051-0.189,0.115-0.643,0.115-2.385c0-1.379-0.029-2.459-0.088-3.287
			c0.707-0.443,1.41-0.686,2.074-0.719c0.455,0,0.801,0.125,1.066,0.391c0.266,0.264,0.398,0.596,0.412,1.002
			c0,0.357-0.023,1.025-0.068,2.033c0.064,2.072,0.693,3.188,1.93,3.309c0.369-0.029,0.674-0.176,0.914-0.438
			c0.234-0.26,0.355-0.596,0.355-1c0-0.291-0.084-0.656-0.258-1.117C156.854,68.4,156.769,67.973,156.733,67.525z"/>
		<path fill="#C5C7C9" d="M168.847,70.59c-0.225-0.268-0.547-0.408-0.922-0.398c-0.957,0.197-1.805,0.307-2.498,0.332
			c-0.629-0.016-1.234-0.09-1.799-0.225c-0.551-0.131-1.062-0.352-1.518-0.652c-0.338-0.223-0.623-0.502-0.85-0.836
			c0.486-0.258,0.967-0.475,1.432-0.646c0.576-0.211,1.092-0.371,1.547-0.473c0.453-0.105,0.951-0.201,1.486-0.291
			c0.559-0.092,0.963-0.172,1.205-0.234c0.475-0.111,0.846-0.326,1.107-0.643c0.264-0.318,0.4-0.693,0.4-1.109
			c0-0.49-0.184-0.959-0.553-1.4l-0.744-0.812c-0.334-0.365-0.666-0.67-0.979-0.902c-0.336-0.246-0.717-0.441-1.137-0.584
			c-0.422-0.143-0.904-0.217-1.438-0.217c-0.398,0-0.908,0.057-1.568,0.178c-0.842,0.178-1.559,0.559-2.137,1.133
			c-0.562,0.561-0.98,1.213-1.252,1.941c-0.258,0.715-0.4,1.439-0.414,2.184c0.029,0.395,0.082,0.734,0.156,1.035
			c-0.094,0.141-0.158,0.334-0.191,0.602c0.025,0.273,0.131,0.557,0.32,0.84c0.084,0.123,0.34,0.498,0.744,0.498l0.02-0.004
			c0.729,1.025,1.629,1.764,2.684,2.197c1.105,0.459,2.297,0.691,3.543,0.691c0.902,0,1.875-0.107,2.883-0.314
			c0.502-0.094,0.789-0.467,0.789-1.021C169.165,71.133,169.06,70.84,168.847,70.59z M164.595,65.322
			c-0.598,0.158-1.018,0.275-1.254,0.346c-0.865,0.234-1.832,0.584-2.881,1.047c0.033-0.336,0.111-0.668,0.242-0.988
			c0.152-0.383,0.365-0.725,0.629-1.018c0.264-0.291,0.572-0.525,0.92-0.691c0.352-0.168,0.717-0.248,1.119-0.248
			c0.467,0,0.871,0.111,1.232,0.34c0.377,0.24,0.676,0.504,0.891,0.783c0.045,0.059,0.08,0.109,0.113,0.15
			C165.396,65.104,165.058,65.197,164.595,65.322z"/>
	</g>
</g>
</svg>
