<?xml version="1.0" encoding="utf-8"?>
<!-- Generator: Adobe Illustrator 16.1.0, SVG Export Plug-In . SVG Version: 6.00 Build 0)  -->
<!DOCTYPE svg PUBLIC "-//W3C//DTD SVG 1.1//EN" "http://www.w3.org/Graphics/SVG/1.1/DTD/svg11.dtd">
<svg version="1.1" id="Layer_1" xmlns="http://www.w3.org/2000/svg" xmlns:xlink="http://www.w3.org/1999/xlink" x="0px" y="0px"
	 width="72px" height="24px" viewBox="0 0 72 24" enable-background="new 0 0 72 24" xml:space="preserve">
<g>
	<path fill="#FFFFFF" d="M11.351,4.741c-0.377-0.265-0.807-0.399-1.278-0.399c-0.856,0-1.232,0.458-1.369,0.713
		C7.969,6.168,7.048,7.511,5.97,9.05C5.772,8.727,5.554,8.38,5.314,8.014C4.799,7.223,4.389,6.556,4.096,6.035
		C3.822,5.551,3.572,4.971,3.356,4.323c-0.067-0.234-0.369-1-1.456-1c-0.462,0-0.891,0.168-1.275,0.501C0.216,4.18,0,4.643,0,5.163
		c0,0.25,0.03,0.446,0.083,0.567c0.208,0.613,0.455,1.181,0.732,1.686c0.265,0.483,0.641,1.09,1.117,1.802
		c0.456,0.684,0.842,1.281,1.147,1.773c0.242,0.389,0.48,0.822,0.711,1.289c-0.034,0.127-0.063,0.269-0.09,0.427l-0.016,0.098
		l0.009,0.1c0.048,0.56,0.222,1.028,0.52,1.397c0.013,0.511,0.033,1.013,0.061,1.507c0.033,0.586,0.08,1.212,0.143,1.914
		c0.061,0.665,0.102,1.162,0.124,1.437c0,0.331,0.114,0.806,0.652,1.181c0.324,0.228,0.698,0.358,1.108,0.388l0.042,0.003
		l0.075-0.003c0.436-0.031,0.815-0.177,1.127-0.431c0.374-0.305,0.569-0.737,0.567-1.265c-0.029-0.529-0.081-1.309-0.149-2.344
		c-0.069-1.024-0.12-1.857-0.153-2.499c-0.027-0.518-0.044-0.992-0.048-1.411l2.049-2.913c0.294-0.419,0.608-0.879,0.942-1.383
		c0.331-0.5,0.696-1.062,1.103-1.702l0.034-0.061c0.109-0.219,0.164-0.45,0.164-0.687C12.054,5.667,11.932,5.145,11.351,4.741z"/>
	<path fill="#FFFFFF" d="M50.548,2.892c-0.353-0.224-0.767-0.337-1.233-0.337c-0.399,0-0.751,0.098-1.05,0.291
		c-0.384,0.253-0.603,0.656-0.603,1.1c-0.01,0.561-0.053,1.397-0.134,2.56c-0.076,1.124-0.185,2.367-0.324,3.695
		c-0.134,1.304-0.299,2.553-0.489,3.713c-0.007,0.031-0.013,0.061-0.017,0.09c-0.208-0.468-0.427-0.924-0.652-1.363
		c-0.597-1.161-1.175-2.185-1.718-3.04c-0.532-0.838-1.127-1.729-1.758-2.639l-0.438-0.712c-0.16-0.257-0.333-0.487-0.516-0.684
		c-0.194-0.209-0.454-0.42-0.764-0.621c-0.609-0.43-1.211-0.648-1.785-0.648c-0.479,0-1.153,0.169-1.646,0.975
		c-0.312,0.506-0.494,1.17-0.543,1.977c-0.056,0.865-0.14,1.922-0.251,3.233c-0.104,1.213-0.227,2.426-0.364,3.604
		c-0.137,1.167-0.304,2.357-0.497,3.56l-0.008,0.107c0,0.427,0.176,0.814,0.509,1.119c0.294,0.276,0.646,0.44,1.05,0.487
		l0.099,0.012l0.1-0.014c0.773-0.1,1.312-0.596,1.438-1.307c0.237-0.938,0.458-2.026,0.658-3.234
		c0.197-1.202,0.37-2.418,0.508-3.618c0.025-0.235,0.051-0.461,0.075-0.678c0.134,0.209,0.266,0.417,0.397,0.623
		c0.526,0.837,1.015,1.642,1.449,2.39c0.437,0.748,0.83,1.481,1.174,2.178c0.341,0.69,0.589,1.274,0.766,1.797l0.462,1.16
		c0.173,0.439,0.401,0.829,0.677,1.158c0.354,0.428,0.824,0.675,1.389,0.734l0.106,0.005l0.018-0.001
		c0.631-0.03,1.228-0.315,1.774-0.852c0.487-0.479,0.85-1.043,1.073-1.67c0.347-0.895,0.644-2.203,0.913-4.002
		c0.26-1.731,0.466-3.543,0.615-5.382c0.147-1.842,0.23-3.365,0.248-4.532C51.256,3.62,51.004,3.181,50.548,2.892z"/>
	<path fill="#FFFFFF" d="M70.959,17.896c-0.566-0.817-0.992-1.466-1.263-1.925c-0.211-0.359-0.427-0.795-0.653-1.296
		c0.047-0.156,0.07-0.337,0.07-0.533c0-0.449-0.119-0.873-0.357-1.26c-0.188-0.3-0.448-0.535-0.76-0.684
		c-0.08-0.229-0.216-0.625-0.442-1.306c-0.344-1.034-0.718-2.053-1.109-3.029c-0.401-1.003-0.863-1.902-1.375-2.673
		c-0.65-0.977-1.339-1.452-2.108-1.452c-0.437,0-0.871,0.206-1.339,0.637c-0.203,0.209-0.432,0.56-0.713,1.103
		c-0.243,0.469-0.637,1.298-1.168,2.464l-1.186,2.598c-0.209,0.455-0.441,0.951-0.7,1.488l-0.298,0.022
		c-0.305,0.023-0.594,0.073-0.863,0.146c-0.346,0.096-0.651,0.27-0.9,0.516c-0.283,0.277-0.457,0.639-0.516,1.076l-0.014,0.101
		l0.012,0.099c0.041,0.376,0.169,0.709,0.38,0.991c0.13,0.176,0.291,0.315,0.47,0.412c-0.258,0.405-0.456,0.743-0.604,1.029
		c-0.205,0.39-0.341,0.807-0.403,1.234l-0.014,0.091l0.008,0.089c0.033,0.451,0.226,0.854,0.553,1.171
		c0.334,0.326,0.741,0.499,1.186,0.499c0.002,0,0.002,0,0.002,0l0.077-0.004c0.871-0.096,1.284-0.607,1.451-0.9
		c0.315-0.524,0.944-1.654,1.871-3.359l0.051-0.002c0.26-0.015,0.525-0.021,0.795-0.021c1.31,0,2.811,0.058,4.461,0.171
		c0.918,2.004,1.729,3.449,2.469,4.396c0.267,0.407,0.728,0.654,1.36,0.733l0.079,0.01l0.081-0.005
		c0.431-0.031,0.808-0.16,1.123-0.385c0.4-0.288,0.619-0.709,0.619-1.186C71.291,18.604,71.185,18.262,70.959,17.896z M64.14,11.944
		c-0.723-0.021-1.495-0.033-2.298-0.033h-0.167l1.302-2.999c0.27,0.64,0.545,1.34,0.816,2.087L64.14,11.944z"/>
	<path fill="#FFFFFF" d="M31.006,17.896c-0.569-0.819-0.994-1.467-1.263-1.925c-0.208-0.359-0.428-0.793-0.652-1.296
		c0.045-0.156,0.07-0.337,0.07-0.533c0-0.449-0.122-0.872-0.359-1.26c-0.187-0.3-0.448-0.535-0.758-0.684
		c-0.081-0.229-0.217-0.625-0.443-1.306c-0.345-1.036-0.717-2.056-1.107-3.029C26.09,6.86,25.626,5.961,25.115,5.19
		c-0.65-0.977-1.339-1.452-2.108-1.452c-0.437,0-0.871,0.206-1.338,0.637c-0.209,0.212-0.428,0.552-0.714,1.104
		c-0.244,0.47-0.638,1.3-1.167,2.464l-1.186,2.598c-0.209,0.455-0.442,0.951-0.7,1.488l-0.299,0.022
		c-0.305,0.023-0.595,0.073-0.861,0.146c-0.348,0.096-0.651,0.27-0.902,0.516c-0.283,0.277-0.457,0.64-0.515,1.075l-0.014,0.101
		l0.012,0.1c0.042,0.376,0.169,0.709,0.377,0.991c0.131,0.176,0.292,0.315,0.472,0.412c-0.257,0.404-0.455,0.741-0.604,1.029
		c-0.204,0.39-0.339,0.807-0.403,1.234l-0.015,0.091l0.008,0.089c0.036,0.451,0.227,0.855,0.553,1.171
		c0.335,0.326,0.742,0.499,1.188,0.499c0.001,0,0.001,0,0.002,0l0.076-0.004c0.87-0.096,1.283-0.607,1.45-0.9
		c0.314-0.525,0.927-1.624,1.872-3.359l0.049-0.002c0.262-0.015,0.525-0.021,0.794-0.021c1.312,0,2.813,0.058,4.463,0.171
		c0.917,2.003,1.728,3.447,2.467,4.396c0.269,0.407,0.728,0.654,1.363,0.733l0.078,0.01l0.08-0.005
		c0.43-0.031,0.809-0.16,1.122-0.385c0.4-0.288,0.621-0.709,0.621-1.186C31.338,18.604,31.232,18.262,31.006,17.896z M24.186,11.944
		c-0.722-0.021-1.494-0.033-2.298-0.033h-0.165l1.301-2.999c0.27,0.64,0.544,1.34,0.816,2.087L24.186,11.944z"/>
</g>
</svg>
