<?xml version="1.0" encoding="utf-8"?>
<!-- Generator: Adobe Illustrator 16.2.1, SVG Export Plug-In . SVG Version: 6.00 Build 0)  -->
<!DOCTYPE svg PUBLIC "-//W3C//DTD SVG 1.1//EN" "http://www.w3.org/Graphics/SVG/1.1/DTD/svg11.dtd">
<svg version="1.1" id="Layer_1" xmlns="http://www.w3.org/2000/svg" xmlns:xlink="http://www.w3.org/1999/xlink" x="0px" y="0px"
	 width="72px" height="24px" viewBox="0 0 72 24" enable-background="new 0 0 72 24" xml:space="preserve">
<g>
	<g>
		<g>
			<path fill="#FFFFFF" d="M15.33,14.76c-2.358,3.544-5.817,7.943-10.656,6.768c-2.094-0.509-4.349-2.122-3.762-4.541
				c0.322-1.334,1.628-2.081,2.96-1.758c1.032,0.252,1.671,1.299,1.419,2.332c-0.046,0.19-0.145,0.368-0.218,0.551
				c0.184,0.189,0.326,0.311,0.598,0.377c0.952,0.23,2.538-0.967,2.756-1.865c0.159-0.651-0.152-2.686-0.287-3.438L6.974,6.022
				c-0.186-1.254-0.26-1.532-0.641-1.625c-0.221-0.053-0.422-0.044-0.64-0.097C4.795,4.083,4.675,3.276,4.874,2.46
				c0.252-1.033,0.918-1.764,2.058-1.487c0.817,0.199,1.675,0.695,2.6,0.92c0.98,0.237,1.996,0.196,3.03,0.448
				c1.06,0.257,1.424,1.008,1.18,2.015c-0.218,0.897-0.7,0.982-1.168,1.011c-0.461,0.003-0.924-0.109-1.043,0.38
				c-0.064,0.272,0.013,0.896,0.014,1.127l0.435,5.92l0.053,0.015l3.042-4.818c0.224-0.32,0.593-0.893,0.678-1.246
				c0.072-0.3-0.295-0.446-0.629-0.729c-0.342-0.256-0.675-0.654-0.479-1.47c0.207-0.842,0.937-1.471,1.805-1.26
				c0.763,0.185,1.538,0.662,2.381,0.866c0.925,0.225,1.888,0.171,2.839,0.401c1.142,0.278,1.398,1.233,1.148,2.266
				c-0.197,0.816-0.676,1.477-1.573,1.259c-0.244-0.06-0.463-0.228-0.708-0.288c-0.298-0.072-0.59,0.059-1.269,1.074L15.33,14.76z"
				/>
		</g>
		<g>
			<path fill="#FFFFFF" d="M43.418,10.613c-0.105-1.452-0.749-2.057-1.764-2.01c-0.857,0.037-2.424,0.724-2.255,3.058l0.181,2.49
				c0.109,1.505,0.236,1.809,0.442,1.795c0.104-0.008,0.178-0.066,0.276-0.125c0.102-0.06,0.202-0.094,0.386-0.106
				c0.388-0.028,0.779,0.335,0.859,1.425c0.069,0.984-0.183,1.812-0.908,1.864c-1.195,0.087-2.251-0.099-3.314-0.021
				c-0.985,0.071-1.952,0.402-2.834,0.466c-0.649,0.047-1.148-0.726-1.22-1.711c-0.056-0.778,0.178-1.499,1.034-1.562
				c0.181-0.014,0.315,0.029,0.472,0.045c0.133,0.016,0.27,0.085,0.398,0.075c0.363-0.026,0.446-0.319,0.335-1.851l-0.27-3.735
				c-0.108-1.478-0.263-1.806-0.6-1.781c-0.259,0.019-0.506,0.219-0.844,0.243c-0.855,0.062-1.19-0.617-1.248-1.396
				c-0.07-0.986,0.312-1.822,0.882-1.864c0.597-0.043,1.265,0.17,2.146,0.106c0.727-0.052,1.175-0.345,1.823-0.393
				c0.727-0.053,0.747,0.259,0.823,1.296l0.047,0.649l0.053-0.004c1.015-1.481,2.473-2.578,4.342-2.713
				c2.282-0.166,4.527,1.315,4.746,4.324l0.316,4.384c0.114,1.557,0.288,1.805,0.599,1.783c0.131-0.01,0.255-0.071,0.381-0.133
				c0.153-0.062,0.307-0.1,0.462-0.111c0.856-0.062,1.194,0.617,1.248,1.396c0.072,0.986-0.311,1.821-1.4,1.901
				c-1.115,0.081-2.173-0.104-3.235-0.026c-0.986,0.071-1.537,0.372-2.471,0.438c-0.571,0.042-1.07-0.364-1.168-1.713
				c-0.084-1.168,0.334-1.512,0.696-1.537c0.131-0.01,0.239,0.034,0.318,0.055c0.105,0.044,0.215,0.088,0.291,0.083
				c0.312-0.022,0.312-0.388,0.207-1.841L43.418,10.613z"/>
		</g>
		<g>
			<path fill="#FFFFFF" d="M25.178,13.733c-0.143,0.955-1.121,1.255-1.992,1.124c-1.018-0.152-1.802-1.011-1.644-2.069
				c0.197-1.307,1.699-2.292,4.896-1.813c1.036,0.154,2.432,0.469,3.268,1.124c1.007,0.787,1.086,1.816,0.853,3.395l-0.584,3.899
				c-0.122,0.81-0.021,0.994,0.207,1.028c0.166,0.024,0.339,0.007,0.505,0.033c0.665,0.099,0.952,0.715,0.864,1.316
				c-0.174,1.162-1.401,1.424-2.376,1.279c-0.956-0.143-1.961-0.654-2.168-1.682c-1.114,0.787-2.439,0.993-3.745,0.798
				c-1.89-0.282-3.546-1.548-3.229-3.664c0.733-4.917,6.784-1.405,7.193-4.144c0.119-0.789-0.554-1.271-1.237-1.373
				c-0.353-0.053-0.693-0.039-0.756,0.376L25.178,13.733z M26.75,17.553c-0.698,0.553-3.06-0.118-3.223,0.982
				c-0.108,0.727,0.434,1.062,1.036,1.152c1.227,0.183,1.935-0.454,2.118-1.678L26.75,17.553z"/>
		</g>
		<g>
			<path fill="#FFFFFF" d="M56.702,9.208c0.68,1.192-0.151,2.388-1.241,3.009c-1.271,0.724-2.903,0.452-3.657-0.87
				c-0.932-1.634-0.113-4.059,3.88-6.336c1.299-0.739,3.136-1.615,4.647-1.617c1.818-0.006,2.812,1.077,3.936,3.048l2.779,4.877
				c0.577,1.012,0.852,1.131,1.137,0.968c0.206-0.118,0.386-0.288,0.593-0.407c0.83-0.472,1.697-0.039,2.125,0.712
				c0.828,1.454-0.314,2.826-1.534,3.521c-1.192,0.68-2.768,0.993-3.902,0.024c-0.555,1.862-1.855,3.257-3.489,4.188
				c-2.361,1.346-5.328,1.387-6.835-1.259c-3.504-6.147,6.355-7.541,4.404-10.965c-0.562-0.986-1.736-0.935-2.593-0.446
				c-0.44,0.25-0.812,0.564-0.516,1.084L56.702,9.208z M61.819,12.098c-0.293,1.232-3.524,2.559-2.74,3.934
				c0.518,0.907,1.422,0.805,2.174,0.377c1.53-0.873,1.765-2.21,0.892-3.74L61.819,12.098z"/>
		</g>
	</g>
</g>
</svg>
