<?xml version="1.0" encoding="utf-8"?>
<!-- Generator: Adobe Illustrator 16.2.1, SVG Export Plug-In . SVG Version: 6.00 Build 0)  -->
<!DOCTYPE svg PUBLIC "-//W3C//DTD SVG 1.1//EN" "http://www.w3.org/Graphics/SVG/1.1/DTD/svg11.dtd">
<svg version="1.1" id="Layer_1" xmlns="http://www.w3.org/2000/svg" xmlns:xlink="http://www.w3.org/1999/xlink" x="0px" y="0px"
	 width="138px" height="84px" viewBox="0 0 138 84" enable-background="new 0 0 138 84" xml:space="preserve">
<g>
	<g>
		<g>
			<g>
				<g>
					<path fill="#E4E4E4" d="M30.912,30.742c-4.265,6.408-10.518,14.362-19.267,12.236c-3.785-0.92-7.865-3.837-6.801-8.212
						c0.585-2.408,2.943-3.762,5.352-3.176c1.868,0.454,3.021,2.348,2.567,4.216c-0.083,0.344-0.265,0.665-0.398,0.997
						c0.333,0.341,0.593,0.56,1.084,0.68c1.721,0.418,4.589-1.748,4.983-3.37c0.287-1.18-0.277-4.856-0.52-6.216l-2.11-12.954
						c-0.333-2.268-0.472-2.77-1.16-2.937c-0.393-0.096-0.761-0.081-1.154-0.177c-1.622-0.394-1.84-1.853-1.482-3.327
						c0.454-1.868,1.66-3.188,3.724-2.687c1.475,0.358,3.026,1.256,4.698,1.662c1.77,0.43,3.609,0.357,5.477,0.811
						c1.917,0.466,2.576,1.823,2.134,3.642c-0.394,1.622-1.264,1.775-2.11,1.829c-0.834,0.006-1.669-0.197-1.884,0.688
						c-0.12,0.491,0.023,1.62,0.025,2.037l0.782,10.705l0.099,0.024l5.5-8.709c0.401-0.579,1.069-1.614,1.225-2.253
						c0.131-0.541-0.533-0.806-1.138-1.317c-0.616-0.462-1.222-1.182-0.864-2.656c0.37-1.523,1.688-2.661,3.261-2.279
						c1.376,0.334,2.78,1.196,4.304,1.566c1.671,0.406,3.413,0.309,5.133,0.728c2.064,0.501,2.53,2.228,2.076,4.096
						c-0.358,1.475-1.222,2.67-2.843,2.276c-0.443-0.107-0.837-0.412-1.279-0.519c-0.541-0.131-1.067,0.106-2.293,1.942
						L30.912,30.742z"/>
					<path fill="#E4E4E4" d="M14.511,45.33c-1.101,0-2.224-0.138-3.338-0.408c-2.414-0.586-4.665-1.81-6.177-3.355
						c-1.995-2.041-2.74-4.624-2.096-7.272c0.692-2.85,3.231-4.84,6.174-4.84c0.532,0,1.068,0.064,1.593,0.192
						c1.423,0.346,2.627,1.227,3.391,2.481c0.576,0.946,0.849,2.017,0.799,3.097c0.722-0.427,1.506-1.153,1.632-1.588
						c0.116-0.592-0.132-3.066-0.546-5.39l-2.115-12.983c-0.049-0.336-0.139-0.942-0.225-1.386
						c-0.194-0.025-0.389-0.057-0.589-0.105c-1.408-0.342-2.436-1.242-2.895-2.532c-0.33-0.929-0.349-2.009-0.057-3.21
						c0.776-3.195,3.215-4.871,6.14-4.158c0.86,0.209,1.687,0.548,2.486,0.875c0.769,0.315,1.495,0.613,2.211,0.787
						c0.739,0.18,1.542,0.26,2.393,0.346c0.985,0.099,2.003,0.202,3.084,0.465c1.865,0.453,2.783,1.491,3.225,2.281
						c0.03,0.054,0.061,0.112,0.09,0.171c1.046-0.766,2.398-1.064,3.713-0.745c0.831,0.202,1.604,0.531,2.353,0.85
						c0.684,0.291,1.329,0.565,1.951,0.716c0.687,0.167,1.44,0.236,2.239,0.309c0.927,0.085,1.885,0.173,2.895,0.418
						c1.567,0.381,2.755,1.332,3.343,2.679c0.477,1.093,0.547,2.419,0.204,3.833c-0.692,2.846-2.79,4.345-5.259,3.747
						c-0.31-0.075-0.579-0.186-0.803-0.289c-0.15,0.187-0.358,0.466-0.634,0.879l-7.119,10.658
						C28.4,38.126,22.573,45.33,14.511,45.33z M9.075,33.455c-1.126,0-2.024,0.7-2.288,1.784c-0.319,1.314,0.03,2.469,1.069,3.531
						c1.002,1.025,2.555,1.851,4.261,2.265c0.805,0.195,1.61,0.295,2.394,0.295c6.127,0,10.888-5.913,14.736-11.696l7.121-10.661
						c0.967-1.448,2.051-2.861,3.722-2.861c0.232,0,0.47,0.029,0.706,0.087c0.435,0.105,0.791,0.28,1.05,0.408
						c0.083,0.041,0.165,0.087,0.251,0.117c0.051,0.012,0.091,0.014,0.105,0.014c-0.022-0.011,0.164-0.259,0.301-0.824
						c0.13-0.534,0.136-1.015,0.017-1.288c-0.035-0.081-0.118-0.27-0.622-0.392c-0.724-0.176-1.497-0.247-2.315-0.322
						c-0.908-0.083-1.846-0.169-2.819-0.406c-0.94-0.229-1.807-0.597-2.572-0.922c-0.627-0.267-1.22-0.519-1.731-0.644
						c-0.384-0.094-0.716,0.276-0.845,0.808c-0.076,0.313-0.044,0.434-0.042,0.439l0,0c0.001,0,0.032,0.047,0.163,0.145l0.092,0.073
						c0.114,0.096,0.231,0.179,0.34,0.257c0.51,0.37,1.865,1.352,1.45,3.059c-0.066,0.274-0.269,1.107-1.523,2.919l-6.22,9.854
						l-2.912-0.706L22.07,16.495c0-0.093-0.012-0.231-0.023-0.39c-0.059-0.84-0.092-1.53,0.055-2.131
						c0.163-0.67,0.789-2.23,3.076-2.23c0.134,0,0.272,0.004,0.413,0.009c0.1,0.003,0.201,0.007,0.303,0.007
						c0.044-0.003,0.082-0.007,0.113-0.011c0.025-0.062,0.058-0.155,0.09-0.29c0.113-0.466,0.082-0.76,0.015-0.88
						c-0.074-0.131-0.327-0.26-0.678-0.346c-0.812-0.197-1.652-0.282-2.541-0.372c-0.949-0.096-1.929-0.195-2.937-0.439
						c-1.008-0.245-1.951-0.631-2.783-0.972c-0.692-0.284-1.347-0.552-1.914-0.69c-0.139-0.034-0.264-0.051-0.373-0.051
						c-0.519,0-0.795,0.688-0.936,1.266c-0.117,0.483-0.097,0.776-0.071,0.891c0.016,0.002,0.044,0.012,0.082,0.021
						c0.108,0.026,0.213,0.032,0.317,0.043c0.276,0.029,0.553,0.064,0.838,0.134c2.064,0.501,2.33,2.305,2.666,4.589l2.105,12.924
						c0.275,1.544,0.884,5.381,0.489,7.01c-0.596,2.452-3.858,4.95-6.464,4.95c-0.323,0-0.637-0.037-0.935-0.109
						c-0.976-0.237-1.559-0.729-2.043-1.226l-0.908-0.931l0.482-1.208c0.056-0.139,0.117-0.277,0.18-0.414
						c0.047-0.104,0.103-0.206,0.132-0.314c0.093-0.383,0.03-0.783-0.178-1.125c-0.208-0.342-0.534-0.582-0.918-0.675
						C9.507,33.481,9.289,33.455,9.075,33.455z M26.069,16.39l0.347,4.755l2.344-3.711c0.248-0.359,0.438-0.657,0.581-0.897
						c-0.017-0.014-0.033-0.027-0.05-0.041c-0.53-0.406-0.911-0.849-1.178-1.305c-0.816,0.484-1.651,0.538-2.056,0.564l-0.025,0.001
						c0.002,0.025,0.003,0.049,0.005,0.07C26.053,16.046,26.064,16.242,26.069,16.39z"/>
				</g>
			</g>
			<g>
				<g>
					<path fill="#E4E4E4" d="M81.693,23.277c-0.191-2.626-1.355-3.721-3.188-3.636c-1.551,0.065-4.385,1.308-4.078,5.529
						l0.326,4.503c0.195,2.72,0.424,3.27,0.801,3.243c0.188-0.014,0.32-0.118,0.502-0.225c0.18-0.107,0.365-0.168,0.693-0.191
						c0.703-0.051,1.41,0.604,1.553,2.575c0.129,1.782-0.328,3.276-1.641,3.372c-2.158,0.156-4.068-0.177-5.992-0.037
						c-1.782,0.129-3.53,0.727-5.125,0.843c-1.173,0.084-2.076-1.312-2.205-3.094c-0.102-1.408,0.323-2.711,1.87-2.823
						c0.329-0.023,0.57,0.053,0.855,0.08c0.238,0.03,0.482,0.153,0.717,0.137c0.657-0.048,0.807-0.578,0.607-3.345L66.9,23.452
						c-0.193-2.674-0.473-3.267-1.083-3.222c-0.469,0.034-0.914,0.396-1.524,0.44c-1.547,0.112-2.156-1.117-2.258-2.524
						c-0.129-1.782,0.563-3.294,1.595-3.369c1.079-0.078,2.286,0.306,3.88,0.19c1.313-0.095,2.123-0.625,3.295-0.71
						c1.314-0.095,1.355,0.468,1.49,2.344l0.086,1.173l0.094-0.007c1.834-2.679,4.471-4.662,7.848-4.907
						c4.129-0.299,8.189,2.377,8.582,7.818l0.574,7.927c0.205,2.814,0.52,3.263,1.084,3.222c0.232-0.017,0.461-0.127,0.689-0.238
						c0.273-0.114,0.553-0.182,0.834-0.202c1.547-0.112,2.154,1.116,2.256,2.524c0.131,1.782-0.562,3.294-2.531,3.437
						c-2.018,0.146-3.928-0.187-5.852-0.047c-1.781,0.129-2.779,0.672-4.469,0.795c-1.031,0.074-1.934-0.662-2.111-3.1
						c-0.152-2.111,0.605-2.731,1.262-2.779c0.234-0.017,0.43,0.063,0.574,0.1c0.193,0.08,0.389,0.16,0.529,0.15
						c0.562-0.041,0.561-0.7,0.371-3.327L81.693,23.277z"/>
					<path fill="#E4E4E4" d="M65.444,41.256c-2.202,0-3.887-2.037-4.098-4.953c-0.206-2.835,1.254-4.784,3.72-4.962
						c0.138-0.01,0.265-0.013,0.388-0.008c-0.012-0.266-0.031-0.589-0.059-0.981l-0.489-6.754c-0.029-0.394-0.058-0.716-0.086-0.979
						c-0.121,0.021-0.249,0.038-0.382,0.047c-2.489,0.188-4.193-1.581-4.396-4.374c-0.216-2.983,1.266-5.351,3.445-5.508
						c0.645-0.047,1.313,0.024,1.935,0.096c0.618,0.071,1.241,0.146,1.945,0.094c0.454-0.033,0.832-0.147,1.31-0.292
						c0.56-0.169,1.195-0.362,1.988-0.418c0.143-0.011,0.275-0.016,0.4-0.016c1.349,0,2.113,0.539,2.559,1.285
						c1.916-1.582,4.134-2.491,6.557-2.666c0.256-0.019,0.512-0.028,0.768-0.028c4.456,0,9.473,3.034,9.954,9.696l0.574,7.927
						c0.028,0.391,0.058,0.712,0.087,0.976c0.127-0.02,0.255-0.035,0.383-0.044c2.457-0.169,4.192,1.582,4.394,4.375
						c0.101,1.379-0.175,2.613-0.798,3.569c-0.771,1.182-2.043,1.895-3.584,2.006c-1.104,0.08-2.178,0.031-3.237-0.02
						c-0.878-0.044-1.745-0.091-2.613-0.027c-0.736,0.053-1.307,0.192-1.968,0.354c-0.703,0.173-1.501,0.368-2.501,0.44
						c-0.096,0.006-0.189,0.01-0.282,0.01c-0.535,0-1.429-0.117-2.236-0.773c-0.66,0.713-1.507,1.055-2.312,1.113
						c-1.193,0.086-2.318,0.037-3.406-0.014c-0.877-0.041-1.73-0.085-2.585-0.023c-0.782,0.057-1.588,0.225-2.44,0.404
						c-0.874,0.183-1.776,0.371-2.686,0.438C65.607,41.252,65.525,41.256,65.444,41.256z M65.37,35.334
						c-0.03,0.122-0.059,0.343-0.035,0.679c0.043,0.602,0.212,1.019,0.336,1.218c0.574-0.064,1.212-0.198,1.883-0.338
						c0.945-0.198,1.921-0.403,2.972-0.479c1.012-0.073,2.021-0.031,3.062,0.018c0.85,0.04,1.723,0.084,2.645,0.037
						c0.061-0.218,0.121-0.627,0.076-1.25c-0.012-0.159-0.027-0.296-0.045-0.415c-0.168,0.052-0.355,0.091-0.564,0.106l-0.17,0.006
						c-2.402,0-2.59-2.593-2.771-5.1l-0.326-4.502c-0.208-2.861,0.784-4.623,1.652-5.598c1.097-1.23,2.718-2.006,4.336-2.074
						c0.089-0.004,0.185-0.006,0.28-0.006c1.076,0,4.617,0.396,4.986,5.496l0.424,5.864c0.111,1.541,0.152,2.334,0.094,2.962
						c-0.161,1.734-1.302,2.431-2.316,2.503l-0.168,0.006c-0.125,0-0.245-0.01-0.359-0.027c0,0.117,0.004,0.253,0.015,0.411
						c0.048,0.662,0.151,1.035,0.227,1.227c0.552-0.06,1.036-0.179,1.585-0.313c0.73-0.179,1.559-0.382,2.63-0.459
						c1.03-0.075,2.058-0.029,3.099,0.021c0.9,0.044,1.812,0.092,2.752,0.026c0.41-0.03,0.488-0.15,0.521-0.201
						c0.051-0.078,0.212-0.386,0.16-1.096c-0.024-0.337-0.085-0.553-0.132-0.668c-0.067,0.006-0.114,0.017-0.158,0.033
						c-0.317,0.153-0.773,0.359-1.35,0.401l-0.211,0.008c-2.645,0-2.857-2.936-3.013-5.08l-0.574-7.927
						c-0.32-4.418-3.413-5.985-5.965-5.985c-0.159,0-0.318,0.006-0.479,0.017c-3.109,0.226-5.165,2.322-6.342,4.042l-0.545,0.795
						l-2.955,0.215l-0.239-1.988l-0.085-1.173c-0.009-0.12-0.018-0.244-0.027-0.365c-0.139,0.038-0.284,0.082-0.441,0.129
						c-0.571,0.173-1.282,0.388-2.179,0.452c-1.046,0.076-1.944-0.024-2.69-0.11c-0.299-0.034-0.567-0.065-0.8-0.079
						c-0.089,0.245-0.175,0.672-0.135,1.229c0.024,0.327,0.082,0.54,0.129,0.658c0.104-0.022,0.172-0.057,0.239-0.084
						c0.312-0.127,0.738-0.302,1.275-0.34l0.204-0.008c2.649,0,2.862,2.937,3.017,5.081l0.489,6.754
						c0.161,2.227,0.382,5.277-2.457,5.484l-0.189,0.007c-0.401,0-0.729-0.092-0.924-0.146c-0.075-0.014-0.207-0.033-0.338-0.054
						C65.441,35.346,65.406,35.339,65.37,35.334z M76.828,30.497c0.348,0,1.064,0.072,1.759,0.568
						c0.476-0.45,1.041-0.706,1.603-0.804c-0.022-0.354-0.049-0.709-0.067-0.976l-0.424-5.864c-0.13-1.784-0.651-1.784-0.997-1.784
						l-0.103,0.002c-0.101,0.004-0.919,0.058-1.528,0.74c-0.516,0.579-0.734,1.47-0.648,2.646l0.326,4.503
						C76.775,29.91,76.803,30.229,76.828,30.497z"/>
				</g>
			</g>
			<g>
				<g>
					<path fill="#E4E4E4" d="M48.741,28.912c-0.257,1.726-2.025,2.267-3.602,2.032c-1.838-0.274-3.255-1.829-2.97-3.742
						c0.353-2.363,3.073-4.144,8.851-3.281c1.876,0.28,4.399,0.848,5.91,2.033c1.821,1.422,1.964,3.285,1.539,6.137l-1.053,7.052
						c-0.218,1.465-0.038,1.798,0.375,1.859c0.3,0.045,0.612,0.014,0.912,0.059c1.201,0.18,1.725,1.293,1.562,2.383
						c-0.313,2.1-2.532,2.574-4.295,2.311c-1.726-0.258-3.544-1.181-3.919-3.039c-2.015,1.425-4.41,1.796-6.773,1.443
						c-3.415-0.51-6.409-2.799-5.838-6.625c1.328-8.892,12.269-2.541,13.008-7.493c0.213-1.426-0.999-2.297-2.237-2.482
						c-0.638-0.095-1.255-0.072-1.367,0.678L48.741,28.912z M51.584,35.818c-1.262,1.001-5.53-0.212-5.827,1.776
						c-0.196,1.313,0.787,1.919,1.875,2.083c2.214,0.331,3.498-0.82,3.829-3.034L51.584,35.818z"/>
					<path fill="#E4E4E4" d="M56.854,47.82c-0.392,0-0.79-0.029-1.181-0.088c-1.888-0.282-3.443-1.105-4.447-2.291
						c-1.882,0.785-4.03,1.025-6.245,0.694c-5.097-0.761-8.189-4.42-7.521-8.898c0.505-3.384,2.161-5.106,4.109-5.993
						c-0.087-0.091-0.171-0.185-0.251-0.282c-0.946-1.143-1.346-2.583-1.126-4.057c0.183-1.222,1.304-5.207,8.07-5.207
						c0.946,0,1.974,0.082,3.054,0.243c3.065,0.457,5.37,1.277,6.849,2.437c2.874,2.245,2.685,5.31,2.282,8.006l-1.014,6.786
						c0.964,0.254,1.763,0.852,2.278,1.714c0.493,0.827,0.682,1.84,0.53,2.853C61.872,46.218,59.757,47.82,56.854,47.82z
						 M53.402,39.309l0.607,3.011c0.222,1.1,1.917,1.407,2.254,1.457c0.191,0.028,0.39,0.044,0.59,0.044
						c0.607,0,1.349-0.117,1.432-0.673c0.006-0.044,0.008-0.083,0.006-0.115c-0.031-0.001-0.062-0.001-0.093-0.001
						c-0.235-0.006-0.471-0.016-0.702-0.051c-1.738-0.261-2.43-1.65-2.06-4.132l1.053-7.053c0.417-2.794,0.093-3.574-0.792-4.265
						c-0.683-0.536-1.857-0.997-3.385-1.338c1.511,0.854,2.368,2.422,2.111,4.145c-0.044,0.298-0.109,0.574-0.192,0.828l0.081-0.064
						l-0.874,5.839c-0.229,1.537-0.84,2.756-1.75,3.581L53.402,39.309z M50.668,33.992c-1.076,0.226-2.212,0.253-3.165,0.276
						c-3.961,0.095-5.622,0.443-6.087,3.561c-0.519,3.474,3.37,4.234,4.155,4.351c1.985,0.297,3.782-0.053,5.215-1.023
						c-0.705,0.377-1.524,0.576-2.438,0.576l0,0c-0.326,0-0.667-0.025-1.013-0.078c-2.462-0.367-3.892-2.118-3.557-4.355
						c0.42-2.814,3.493-2.93,5.144-2.992c0.492-0.019,1.221-0.046,1.509-0.128L50.668,33.992z M48.262,25.7
						c-2.372,0-3.949,0.689-4.114,1.797c-0.051,0.344,0.033,0.651,0.25,0.914c0.24,0.29,0.618,0.492,1.037,0.554
						c0.133,0.02,0.268,0.03,0.402,0.03c0.145,0,0.873-0.019,0.926-0.379l0.101-0.676c0.162-1.087,0.823-1.89,1.775-2.235
						C48.511,25.702,48.385,25.7,48.262,25.7z"/>
				</g>
			</g>
			<g>
				<g>
					<path fill="#E4E4E4" d="M105.673,20.686c1.23,2.158-0.272,4.318-2.242,5.441c-2.299,1.31-5.25,0.818-6.614-1.574
						c-1.684-2.955-0.205-7.339,7.018-11.455c2.345-1.337,5.669-2.92,8.399-2.924c3.289-0.01,5.087,1.948,7.119,5.513l5.025,8.818
						c1.042,1.829,1.537,2.043,2.054,1.749c0.375-0.214,0.696-0.521,1.071-0.735c1.501-0.855,3.067-0.071,3.843,1.29
						c1.497,2.626-0.568,5.108-2.772,6.365c-2.158,1.229-5.004,1.795-7.058,0.045c-1.002,3.367-3.355,5.889-6.311,7.573
						c-4.268,2.433-9.632,2.507-12.357-2.277c-6.336-11.116,11.492-13.634,7.964-19.825c-1.016-1.782-3.139-1.69-4.687-0.809
						c-0.797,0.455-1.468,1.022-0.933,1.961L105.673,20.686z M114.928,25.913c-0.531,2.229-6.373,4.626-4.956,7.112
						c0.936,1.641,2.569,1.456,3.93,0.681c2.768-1.577,3.191-3.994,1.615-6.762L114.928,25.913z"/>
					<path fill="#E4E4E4" d="M109.504,44.424c-3.605,0-6.587-1.746-8.395-4.919c-2.582-4.532-1.801-7.983,0.031-10.677
						c-2.522,0.122-4.83-1.125-6.062-3.285c-2.029-3.562-1.055-9.157,7.765-14.184c3.701-2.11,6.859-3.183,9.387-3.186
						c4.746,0,7.061,3.367,8.859,6.522l5.025,8.819c0.081,0.141,0.154,0.265,0.22,0.374c0.06-0.037,0.118-0.073,0.179-0.107
						c0.719-0.41,1.486-0.618,2.28-0.618c1.712,0,3.356,1.018,4.29,2.656c1.021,1.793,1.028,3.798,0.018,5.646
						c-0.732,1.339-1.988,2.563-3.538,3.446c-1.132,0.645-2.905,1.414-4.928,1.414c-0.726,0-1.425-0.103-2.083-0.305
						c-1.317,2.647-3.48,4.87-6.357,6.509C114.021,43.769,111.707,44.424,109.504,44.424z M108.311,15.268
						c1.813,0,3.357,0.886,4.238,2.432c2.342,4.107-1.225,7.051-4.089,9.416c-4.136,3.414-6.534,5.743-3.874,10.41
						c1.096,1.925,2.75,2.899,4.917,2.899c1.489,0,3.163-0.486,4.712-1.369c1.91-1.089,4.396-3.084,5.384-6.406l0.876-2.944
						l2.338,1.992c1.104,0.942,2.943,0.781,4.771-0.26c0.888-0.506,1.64-1.212,2.01-1.891c0.347-0.634,0.352-1.156,0.016-1.746
						c-0.214-0.375-0.549-0.637-0.814-0.637c-0.091,0-0.189,0.031-0.301,0.094c-0.116,0.066-0.222,0.151-0.328,0.231
						c-0.24,0.18-0.483,0.355-0.743,0.503c-0.434,0.247-0.888,0.372-1.352,0.372c-1.658,0-2.64-1.48-3.43-2.868l-5.025-8.818
						c-1.943-3.409-3.246-4.503-5.357-4.503c-1.821,0.002-4.385,0.923-7.434,2.661c-5.155,2.938-7.617,6.364-6.27,8.728
						c0.631,1.108,1.678,1.274,2.244,1.274c0.561,0,1.129-0.155,1.643-0.447c0.686-0.392,1.253-0.944,1.517-1.479
						c0.222-0.449,0.214-0.818-0.022-1.234l-0.481-0.846c-0.376-0.659-1.368-2.949,1.68-4.688
						C106.126,15.579,107.254,15.268,108.311,15.268z M107.309,19.518l0.103,0.179c0.437,0.766,0.671,1.578,0.704,2.4
						c1.172-1.156,1.338-1.751,0.959-2.417c-0.113-0.199-0.275-0.412-0.764-0.412C108.002,19.268,107.646,19.357,107.309,19.518z
						 M111.999,36.281L111.999,36.281c-1.595,0-2.932-0.805-3.765-2.265c-1.658-2.91,1.106-5.256,2.936-6.809
						c0.623-0.529,1.667-1.414,1.824-1.796l1.173-4.922l3.087,5.464c2.16,3.794,1.255,7.43-2.362,9.491
						C113.93,35.992,112.93,36.281,111.999,36.281z M111.801,32.176c0.081,0.105,0.133,0.105,0.198,0.105
						c0.228,0,0.568-0.117,0.913-0.313c0.871-0.497,1.606-1.127,1.502-2.273c-0.217,0.189-0.437,0.376-0.655,0.562
						C113.157,30.767,112.083,31.679,111.801,32.176z"/>
				</g>
			</g>
		</g>
		<g>
			<g>
				<g>
					<path fill="#FFFFFF" d="M30.912,30.742c-4.265,6.408-10.518,14.362-19.267,12.236c-3.785-0.92-7.865-3.837-6.801-8.212
						c0.585-2.408,2.943-3.762,5.352-3.176c1.868,0.454,3.021,2.348,2.567,4.216c-0.083,0.344-0.265,0.665-0.398,0.997
						c0.333,0.341,0.593,0.56,1.084,0.68c1.721,0.418,4.589-1.748,4.983-3.37c0.287-1.18-0.277-4.856-0.52-6.216l-2.11-12.954
						c-0.333-2.268-0.472-2.77-1.16-2.937c-0.393-0.096-0.761-0.081-1.154-0.177c-1.622-0.394-1.84-1.853-1.482-3.327
						c0.454-1.868,1.66-3.188,3.724-2.687c1.475,0.358,3.026,1.256,4.698,1.662c1.77,0.43,3.609,0.357,5.477,0.811
						c1.917,0.466,2.576,1.823,2.134,3.642c-0.394,1.622-1.264,1.775-2.11,1.829c-0.834,0.006-1.669-0.197-1.884,0.688
						c-0.12,0.491,0.023,1.62,0.025,2.037l0.782,10.705l0.099,0.024l5.5-8.709c0.401-0.579,1.069-1.614,1.225-2.253
						c0.131-0.541-0.533-0.806-1.138-1.317c-0.616-0.462-1.222-1.182-0.864-2.656c0.37-1.523,1.688-2.661,3.261-2.279
						c1.376,0.334,2.78,1.196,4.304,1.566c1.671,0.406,3.413,0.309,5.133,0.728c2.064,0.501,2.53,2.228,2.076,4.096
						c-0.358,1.475-1.222,2.67-2.843,2.276c-0.443-0.107-0.837-0.412-1.279-0.519c-0.541-0.131-1.067,0.106-2.293,1.942
						L30.912,30.742z"/>
					<path fill="#FFFFFF" d="M14.511,44.33c-1.021,0-2.065-0.128-3.102-0.38c-2.237-0.544-4.313-1.667-5.697-3.083
						c-1.771-1.811-2.407-4.002-1.839-6.337c0.592-2.438,2.683-4.076,5.203-4.076c0.453,0,0.909,0.055,1.357,0.164
						c1.163,0.283,2.147,1.003,2.772,2.029c0.625,1.026,0.813,2.231,0.53,3.395c-0.038,0.157-0.088,0.305-0.142,0.443
						c0.029,0.009,0.06,0.018,0.093,0.026c0.065,0.016,0.142,0.024,0.226,0.024c1.281,0,3.303-1.649,3.549-2.659
						c0.181-0.745-0.128-3.537-0.532-5.805l-2.112-12.969c-0.102-0.69-0.287-1.947-0.446-2.173c-0.118,0.009-0.264-0.002-0.41-0.019
						c-0.233-0.024-0.467-0.052-0.708-0.111c-1.371-0.333-1.948-1.214-2.189-1.895c-0.264-0.743-0.273-1.631-0.028-2.64
						c0.642-2.641,2.566-3.996,4.932-3.422c0.787,0.191,1.578,0.515,2.343,0.829c0.769,0.315,1.565,0.642,2.354,0.833
						c0.806,0.196,1.643,0.28,2.529,0.37c0.951,0.096,1.935,0.195,2.948,0.441c1.515,0.368,2.244,1.181,2.588,1.797
						c0.288,0.516,0.436,1.099,0.443,1.742C30,9.42,31.593,8.64,33.171,9.024c0.75,0.182,1.486,0.495,2.197,0.798
						c0.691,0.294,1.405,0.598,2.106,0.768c0.758,0.184,1.548,0.257,2.384,0.333c0.891,0.082,1.812,0.166,2.75,0.394
						c1.611,0.392,2.337,1.362,2.663,2.107c0.389,0.891,0.44,1.996,0.148,3.196c-0.564,2.322-2.114,3.482-4.051,3.011
						c-0.328-0.08-0.603-0.215-0.845-0.334c-0.165-0.081-0.319-0.157-0.434-0.185c-0.003,0.013-0.335,0.192-1.226,1.526
						l-7.119,10.658C27.456,37.741,22.054,44.33,14.511,44.33z M9.075,32.455c-1.579,0-2.889,1.024-3.259,2.548
						c-0.402,1.653,0.044,3.156,1.326,4.466c1.129,1.155,2.857,2.08,4.74,2.538c0.882,0.214,1.767,0.323,2.629,0.323
						c6.599,0,11.573-6.138,15.569-12.142l7.12-10.66c1.17-1.752,2.082-2.672,3.361-2.358c0.328,0.08,0.603,0.214,0.845,0.334
						c0.165,0.081,0.32,0.157,0.435,0.185c0.131,0.032,0.253,0.048,0.364,0.048c0.732,0,1.096-0.864,1.272-1.588
						c0.188-0.771,0.174-1.437-0.038-1.924c-0.213-0.487-0.639-0.803-1.302-0.964c-0.795-0.193-1.604-0.268-2.46-0.346
						c-0.872-0.08-1.773-0.162-2.674-0.381c-0.861-0.209-1.651-0.545-2.417-0.871c-0.667-0.283-1.296-0.551-1.887-0.695
						c-0.922-0.226-1.789,0.458-2.053,1.543c-0.237,0.978,0.097,1.324,0.492,1.62c0.18,0.15,0.317,0.248,0.445,0.341
						c0.494,0.358,1.321,0.958,1.065,2.013c-0.149,0.615-0.612,1.485-1.374,2.586l-5.86,9.281l-1.505-0.365l-0.835-11.432
						c-0.003-0.174-0.015-0.335-0.028-0.521c-0.052-0.752-0.083-1.364,0.029-1.826c0.236-0.973,0.944-1.467,2.104-1.467
						c0.123,0,0.25,0.004,0.379,0.008c0.11,0.004,0.223,0.008,0.336,0.008c0.611-0.039,0.931-0.059,1.175-1.065
						c0.112-0.462,0.189-1.116-0.084-1.604c-0.219-0.392-0.661-0.671-1.315-0.83c-0.879-0.214-1.752-0.302-2.676-0.395
						c-0.915-0.092-1.86-0.188-2.8-0.416c-0.936-0.227-1.802-0.582-2.64-0.925c-0.729-0.299-1.417-0.581-2.058-0.736
						c-0.215-0.052-0.42-0.079-0.608-0.079c-1.169,0-1.683,1.104-1.908,2.03c-0.147,0.607-0.159,1.139-0.031,1.498
						c0.078,0.221,0.237,0.49,0.777,0.622c0.152,0.037,0.3,0.05,0.447,0.065c0.233,0.025,0.467,0.053,0.708,0.111
						c1.41,0.342,1.588,1.557,1.913,3.763L18.9,27.736c0.147,0.825,0.875,5.09,0.504,6.613c-0.541,2.223-4.039,4.627-6.191,4.105
						c-0.768-0.187-1.193-0.573-1.564-0.953l-0.454-0.465l0.241-0.604c0.05-0.125,0.105-0.248,0.162-0.372
						c0.082-0.181,0.16-0.352,0.193-0.49c0.157-0.644,0.052-1.312-0.295-1.882c-0.347-0.57-0.893-0.97-1.537-1.126
						C9.666,32.491,9.369,32.455,9.075,32.455z M25.011,14.748c-0.031,0.294,0.01,0.88,0.029,1.148
						c0.017,0.237,0.03,0.443,0.031,0.581l0.569,7.771l3.965-6.28c0.555-0.803,0.872-1.38,1.016-1.72
						c-0.067-0.052-0.146-0.108-0.212-0.156c-0.167-0.121-0.343-0.25-0.517-0.396c-0.817-0.611-1.264-1.415-1.319-2.385
						c-0.759,1.33-1.99,1.409-2.58,1.447l-0.101,0.002c-0.136,0-0.271-0.004-0.405-0.009C25.306,14.744,25.108,14.74,25.011,14.748z
						"/>
				</g>
			</g>
			<g>
				<g>
					<path fill="#FFFFFF" d="M81.693,23.277c-0.191-2.626-1.355-3.721-3.188-3.636c-1.551,0.065-4.385,1.308-4.078,5.529
						l0.326,4.503c0.195,2.72,0.424,3.27,0.801,3.243c0.188-0.014,0.32-0.118,0.502-0.225c0.18-0.107,0.365-0.168,0.693-0.191
						c0.703-0.051,1.41,0.604,1.553,2.575c0.129,1.782-0.328,3.276-1.641,3.372c-2.158,0.156-4.068-0.177-5.992-0.037
						c-1.782,0.129-3.53,0.727-5.125,0.843c-1.173,0.084-2.076-1.312-2.205-3.094c-0.102-1.408,0.323-2.711,1.87-2.823
						c0.329-0.023,0.57,0.053,0.855,0.08c0.238,0.03,0.482,0.153,0.717,0.137c0.657-0.048,0.807-0.578,0.607-3.345L66.9,23.452
						c-0.193-2.674-0.473-3.267-1.083-3.222c-0.469,0.034-0.914,0.396-1.524,0.44c-1.547,0.112-2.156-1.117-2.258-2.524
						c-0.129-1.782,0.563-3.294,1.595-3.369c1.079-0.078,2.286,0.306,3.88,0.19c1.313-0.095,2.123-0.625,3.295-0.71
						c1.314-0.095,1.355,0.468,1.49,2.344l0.086,1.173l0.094-0.007c1.834-2.679,4.471-4.662,7.848-4.907
						c4.129-0.299,8.189,2.377,8.582,7.818l0.574,7.927c0.205,2.814,0.52,3.263,1.084,3.222c0.232-0.017,0.461-0.127,0.689-0.238
						c0.273-0.114,0.553-0.182,0.834-0.202c1.547-0.112,2.154,1.116,2.256,2.524c0.131,1.782-0.562,3.294-2.531,3.437
						c-2.018,0.146-3.928-0.187-5.852-0.047c-1.781,0.129-2.779,0.672-4.469,0.795c-1.031,0.074-1.934-0.662-2.111-3.1
						c-0.152-2.111,0.605-2.731,1.262-2.779c0.234-0.017,0.43,0.063,0.574,0.1c0.193,0.08,0.389,0.16,0.529,0.15
						c0.562-0.041,0.561-0.7,0.371-3.327L81.693,23.277z"/>
					<path fill="#FFFFFF" d="M65.444,40.256c-1.654,0-2.929-1.656-3.101-4.025c-0.164-2.264,0.907-3.756,2.795-3.893
						c0.309-0.023,0.56,0.012,0.811,0.052c0.069,0.011,0.137,0.022,0.21,0.029c0.108,0.013,0.206,0.033,0.299,0.055
						c0.026-0.345,0.021-0.994-0.066-2.195l-0.489-6.754c-0.092-1.275-0.198-1.901-0.278-2.208
						c-0.031,0.012-0.061,0.025-0.088,0.036c-0.306,0.125-0.686,0.281-1.17,0.316c-1.923,0.139-3.162-1.177-3.327-3.449
						c-0.174-2.414,0.909-4.322,2.521-4.439c0.567-0.04,1.144,0.022,1.749,0.092c0.659,0.076,1.342,0.157,2.131,0.098
						c0.564-0.041,1.032-0.182,1.527-0.332c0.535-0.162,1.089-0.329,1.77-0.378c0.117-0.008,0.227-0.013,0.329-0.013
						c1.499,0,1.936,0.902,2.111,2.067c1.988-2.074,4.4-3.257,7.076-3.451c0.232-0.017,0.464-0.025,0.695-0.025
						c4.008,0,8.521,2.744,8.957,8.769l0.574,7.927c0.09,1.243,0.197,1.871,0.276,2.187c0.022-0.011,0.042-0.021,0.061-0.029
						c0.427-0.18,0.813-0.272,1.201-0.3c1.913-0.14,3.161,1.178,3.325,3.45c0.084,1.159-0.137,2.18-0.639,2.951
						c-0.422,0.647-1.252,1.441-2.818,1.555c-1.062,0.076-2.096,0.028-3.116-0.021c-0.917-0.045-1.825-0.092-2.735-0.026
						c-0.819,0.059-1.457,0.215-2.132,0.38c-0.698,0.171-1.42,0.348-2.337,0.414c-0.07,0.006-0.141,0.008-0.209,0.008
						c-0.68,0-1.688-0.241-2.345-1.491c-0.464,1.229-1.373,1.768-2.276,1.833c-1.152,0.083-2.236,0.035-3.287-0.015
						c-0.919-0.043-1.812-0.089-2.705-0.022c-0.849,0.062-1.725,0.246-2.572,0.423c-0.841,0.177-1.711,0.358-2.553,0.42
						C65.559,40.253,65.501,40.256,65.444,40.256z M65.335,34.331c-0.371,0.025-1.119,0.079-0.997,1.755
						c0.092,1.278,0.657,2.169,1.105,2.169l0.029-0.001c0.708-0.051,1.475-0.212,2.287-0.382c0.912-0.191,1.855-0.389,2.838-0.46
						c0.973-0.07,1.943-0.027,2.943,0.02c0.977,0.045,1.98,0.095,3.049,0.018c0.693-0.05,0.776-1.471,0.716-2.302
						c-0.089-1.229-0.409-1.616-0.49-1.652c-0.181,0.016-0.216,0.037-0.248,0.056c-0.26,0.16-0.54,0.334-0.94,0.363
						c-0.002,0-0.003,0-0.004,0c-1.566,0-1.699-1.84-1.867-4.168l-0.326-4.502c-0.182-2.512,0.662-4.03,1.402-4.86
						c1.363-1.531,3.124-1.719,3.631-1.741c0.078-0.004,0.158-0.005,0.238-0.005c1.365,0,3.701,0.593,3.989,4.568l0.424,5.863
						c0.105,1.455,0.146,2.244,0.095,2.798c-0.121,1.312-0.924,1.565-1.392,1.599c-0.389,0.014-0.685-0.101-0.929-0.201
						l-0.051-0.015c-0.045-0.013-0.11-0.032-0.134-0.034c-0.147,0.011-0.411,0.525-0.325,1.71c0.047,0.654,0.237,2.177,0.977,2.177
						c0.813-0.057,1.424-0.206,2.07-0.364c0.726-0.178,1.477-0.361,2.463-0.433c0.99-0.071,1.979-0.025,2.979,0.023
						c0.941,0.047,1.894,0.096,2.873,0.024c0.609-0.044,1.03-0.257,1.287-0.652c0.262-0.401,0.372-0.994,0.319-1.714
						c-0.116-1.604-0.831-1.604-1.066-1.604l-0.12,0.005c-0.174,0.012-0.349,0.055-0.522,0.127
						c-0.226,0.112-0.573,0.281-1.001,0.312l-0.138,0.005c-1.714,0-1.867-2.111-2.016-4.152l-0.574-7.927
						c-0.364-5.047-4.1-7.153-7.513-6.893c-3.506,0.254-5.793,2.573-7.095,4.474l-0.272,0.397l-1.479,0.107l-0.166-0.991
						L71.3,16.674c-0.04-0.549-0.084-1.161-0.156-1.424c-0.063-0.004-0.163-0.002-0.265,0.005c-0.459,0.033-0.864,0.156-1.334,0.298
						c-0.551,0.167-1.175,0.355-1.962,0.412c-0.958,0.07-1.797-0.025-2.504-0.106c-0.532-0.061-0.968-0.116-1.376-0.084
						c-0.214,0.015-0.776,0.83-0.67,2.299c0.116,1.598,0.827,1.604,1.065,1.604c0,0,0.001,0,0.002,0l0.121-0.005
						c0.166-0.012,0.347-0.086,0.557-0.172c0.276-0.113,0.589-0.241,0.968-0.269l0.132-0.005c1.719,0,1.872,2.111,2.02,4.152
						l0.489,6.754c0.166,2.297,0.31,4.28-1.532,4.415l-0.117,0.004c-0.264,0-0.49-0.063-0.654-0.109
						c-0.048-0.013-0.096-0.03-0.144-0.037c-0.085-0.008-0.196-0.024-0.307-0.042C65.539,34.349,65.443,34.331,65.335,34.331z
						 M76.824,31.497c0.439,0,1.271,0.147,1.855,1.146c0.512-1.199,1.499-1.395,1.891-1.423l0.138-0.005
						c0.205,0,0.384,0.033,0.524,0.068c-0.004-0.57-0.066-1.433-0.113-2.071l-0.424-5.863c-0.196-2.712-1.457-2.712-1.994-2.712
						l-0.149,0.003c-0.64,0.027-1.558,0.323-2.228,1.074c-0.703,0.788-1.006,1.927-0.899,3.384l0.326,4.503
						c0.073,1.022,0.147,1.65,0.211,2.036c0.212-0.073,0.442-0.116,0.716-0.135L76.824,31.497z"/>
				</g>
			</g>
			<g>
				<g>
					<path fill="#FFFFFF" d="M48.741,28.912c-0.257,1.726-2.025,2.267-3.602,2.032c-1.838-0.274-3.255-1.829-2.97-3.742
						c0.353-2.363,3.073-4.144,8.851-3.281c1.876,0.28,4.399,0.848,5.91,2.033c1.821,1.422,1.964,3.285,1.539,6.137l-1.053,7.052
						c-0.218,1.465-0.038,1.798,0.375,1.859c0.3,0.045,0.612,0.014,0.912,0.059c1.201,0.18,1.725,1.293,1.562,2.383
						c-0.313,2.1-2.532,2.574-4.295,2.311c-1.726-0.258-3.544-1.181-3.919-3.039c-2.015,1.425-4.41,1.796-6.773,1.443
						c-3.415-0.51-6.409-2.799-5.838-6.625c1.328-8.892,12.269-2.541,13.008-7.493c0.213-1.426-0.999-2.297-2.237-2.482
						c-0.638-0.095-1.255-0.072-1.367,0.678L48.741,28.912z M51.584,35.818c-1.262,1.001-5.53-0.212-5.827,1.776
						c-0.196,1.313,0.787,1.919,1.875,2.083c2.214,0.331,3.498-0.82,3.829-3.034L51.584,35.818z"/>
					<path fill="#FFFFFF" d="M56.854,46.82c-0.343,0-0.691-0.025-1.033-0.076c-1.986-0.297-3.498-1.221-4.27-2.555
						c-1.867,0.977-4.077,1.307-6.423,0.957c-3.692-0.551-7.357-3.215-6.679-7.761c0.588-3.938,2.854-5.308,5.311-5.807
						c-0.65-0.285-1.223-0.712-1.672-1.254c-0.763-0.92-1.085-2.082-0.908-3.271c0.499-3.333,4.327-4.968,9.988-4.123
						c2.892,0.432,5.039,1.184,6.379,2.235c2.212,1.728,2.371,3.987,1.911,7.071l-1.053,7.053c-0.051,0.342-0.073,0.58-0.08,0.742
						c0.176,0.005,0.352,0.014,0.524,0.039c0.857,0.128,1.569,0.599,2.003,1.326c0.375,0.629,0.518,1.407,0.4,2.191
						C60.956,45.582,59.27,46.82,56.854,46.82z M52.726,41.012l0.304,1.506c0.345,1.709,2.449,2.152,3.086,2.248
						c0.239,0.035,0.487,0.055,0.738,0.055c0.819,0,2.223-0.198,2.42-1.525c0.049-0.324-0.002-0.643-0.139-0.871
						c-0.126-0.213-0.316-0.334-0.581-0.373c-0.11-0.018-0.221-0.018-0.333-0.02c-0.194-0.004-0.388-0.012-0.578-0.039
						c-1.627-0.245-1.35-2.104-1.217-2.997l1.053-7.053c0.435-2.909,0.151-4.173-1.165-5.201c-1.051-0.825-2.932-1.458-5.441-1.832
						c-4.436-0.663-7.396,0.305-7.714,2.439c-0.119,0.793,0.189,1.362,0.469,1.7c0.395,0.477,1,0.807,1.659,0.905
						c0.182,0.027,0.366,0.042,0.55,0.042c0.521,0,1.75-0.12,1.915-1.231l0.102-0.676c0.146-0.983,0.855-1.57,1.896-1.57
						c0.195,0,0.401,0.02,0.608,0.05c1.759,0.263,3.382,1.591,3.079,3.619c-0.44,2.949-3.371,3.019-5.957,3.08
						c-3.875,0.092-6.46,0.45-7.052,4.413c-0.511,3.424,2.372,5.097,4.996,5.487c2.295,0.344,4.383-0.092,6.049-1.27L52.726,41.012z
						 M49.812,28.52l-0.082,0.54c-0.136,0.915-0.605,1.664-1.312,2.176c2.156-0.099,2.895-0.371,3.04-1.343
						c0.165-1.1-1.332-1.336-1.396-1.346C49.977,28.535,49.893,28.524,49.812,28.52z M48.349,40.732L48.349,40.732
						c-0.274,0-0.562-0.021-0.865-0.066c-1.9-0.284-2.966-1.548-2.716-3.22c0.298-1.994,2.549-2.078,4.192-2.14
						c0.693-0.026,1.742-0.065,2.002-0.272l1.986-1.576l-0.499,3.332C52.075,39.296,50.581,40.732,48.349,40.732z M50.306,37.231
						c-0.405,0.041-0.833,0.057-1.271,0.074c-0.726,0.027-2.237,0.084-2.289,0.437c-0.035,0.232-0.116,0.774,1.033,0.946
						c0.199,0.029,0.389,0.045,0.569,0.045C49.01,38.733,49.885,38.561,50.306,37.231z"/>
				</g>
			</g>
			<g>
				<g>
					<path fill="#FFFFFF" d="M105.673,20.686c1.23,2.158-0.272,4.318-2.242,5.441c-2.299,1.31-5.25,0.818-6.614-1.574
						c-1.684-2.955-0.205-7.339,7.018-11.455c2.345-1.337,5.669-2.92,8.399-2.924c3.289-0.01,5.087,1.948,7.119,5.513l5.025,8.818
						c1.042,1.829,1.537,2.043,2.054,1.749c0.375-0.214,0.696-0.521,1.071-0.735c1.501-0.855,3.067-0.071,3.843,1.29
						c1.497,2.626-0.568,5.108-2.772,6.365c-2.158,1.229-5.004,1.795-7.058,0.045c-1.002,3.367-3.355,5.889-6.311,7.573
						c-4.268,2.433-9.632,2.507-12.357-2.277c-6.336-11.116,11.492-13.634,7.964-19.825c-1.016-1.782-3.139-1.69-4.687-0.809
						c-0.797,0.455-1.468,1.022-0.933,1.961L105.673,20.686z M114.928,25.913c-0.531,2.229-6.373,4.626-4.956,7.112
						c0.936,1.641,2.569,1.456,3.93,0.681c2.768-1.577,3.191-3.994,1.615-6.762L114.928,25.913z"/>
					<path fill="#FFFFFF" d="M109.504,43.424c-3.23,0-5.903-1.567-7.525-4.414c-3.207-5.626-0.74-9.375,2.23-12.183
						c-0.093,0.058-0.188,0.114-0.283,0.169c-0.965,0.55-2.047,0.841-3.127,0.841c-2.042,0-3.855-1.042-4.852-2.788
						c-1.789-3.142-0.787-8.158,7.392-12.819c3.55-2.024,6.542-3.052,8.894-3.055c3.8,0,5.871,2.302,7.988,6.018l5.025,8.818
						c0.439,0.771,0.709,1.118,0.854,1.271c0.091-0.062,0.179-0.129,0.267-0.195c0.208-0.156,0.417-0.309,0.641-0.437
						c1.812-1.032,4.105-0.268,5.207,1.664c0.855,1.502,0.859,3.117,0.01,4.671c-0.645,1.179-1.766,2.265-3.156,3.058
						c-1.027,0.585-2.629,1.283-4.433,1.283c-0.95,0-1.821-0.193-2.603-0.577c-1.17,2.833-3.338,5.205-6.333,6.912
						C113.678,42.814,111.534,43.424,109.504,43.424z M108.311,16.268c1.465,0,2.662,0.685,3.369,1.927
						c1.925,3.377-1.014,5.803-3.856,8.149c-3.599,2.97-7.318,6.042-4.106,11.676c1.604,2.814,4.031,3.404,5.787,3.404
						c1.684,0,3.484-0.52,5.206-1.5c2.968-1.692,4.989-4.109,5.847-6.99l0.438-1.472l1.169,0.996
						c1.422,1.211,3.714,1.101,5.914-0.152c1.058-0.603,1.93-1.434,2.393-2.28c0.513-0.939,0.516-1.829,0.006-2.721
						c-0.568-0.999-1.59-1.423-2.479-0.917c-0.152,0.087-0.291,0.194-0.433,0.3c-0.207,0.155-0.415,0.308-0.638,0.435
						c-0.281,0.16-0.568,0.24-0.857,0.24c-1.012,0-1.73-0.904-2.562-2.363l-5.024-8.818c-2.135-3.744-3.707-5.008-6.227-5.008
						c-1.996,0.003-4.729,0.968-7.929,2.792c-5.771,3.289-8.316,7.156-6.644,10.091c0.645,1.13,1.779,1.779,3.113,1.779
						c0.734,0,1.473-0.2,2.137-0.579c0.866-0.494,1.566-1.188,1.92-1.905c0.369-0.752,0.354-1.462-0.051-2.171l-0.481-0.845
						c-0.414-0.726-0.796-2.125,1.306-3.324C106.473,16.532,107.425,16.268,108.311,16.268z M106,19.222
						c0.005,0.004,0.018,0.048,0.061,0.125l0.481,0.845c0.726,1.273,0.765,2.71,0.106,4.045c-0.176,0.358-0.399,0.704-0.664,1.033
						c0.191-0.159,0.381-0.315,0.566-0.468c3.117-2.573,4.38-3.882,3.393-5.616c-0.348-0.608-0.896-0.917-1.633-0.917
						c-0.545,0-1.145,0.171-1.69,0.482C106.126,19.032,106.02,19.185,106,19.222z M111.999,35.281L111.999,35.281
						c-1.22,0-2.249-0.625-2.896-1.76c-1.248-2.189,0.949-4.053,2.714-5.551c0.89-0.755,1.996-1.694,2.138-2.289l0.586-2.461
						l1.844,3.228c1.911,3.356,1.187,6.317-1.988,8.126C113.585,35.037,112.756,35.281,111.999,35.281z M114.878,27.872
						c-0.5,0.548-1.124,1.078-1.767,1.623c-1.527,1.297-2.665,2.344-2.271,3.036c0.297,0.519,0.654,0.751,1.159,0.751l0,0
						c0.411,0,0.897-0.153,1.407-0.444C115.464,31.665,115.948,30.038,114.878,27.872z"/>
				</g>
			</g>
		</g>
		<g>
			<g>
				<path fill="#51BDB5" d="M30.912,30.742c-4.265,6.408-10.518,14.362-19.267,12.236c-3.785-0.92-7.865-3.837-6.801-8.212
					c0.585-2.408,2.943-3.762,5.352-3.176c1.868,0.454,3.021,2.348,2.567,4.216c-0.083,0.344-0.265,0.665-0.398,0.997
					c0.333,0.341,0.593,0.56,1.084,0.68c1.721,0.418,4.589-1.748,4.983-3.37c0.287-1.18-0.277-4.856-0.52-6.216l-2.11-12.954
					c-0.333-2.268-0.472-2.77-1.16-2.937c-0.393-0.096-0.761-0.081-1.154-0.177c-1.622-0.394-1.84-1.853-1.482-3.327
					c0.454-1.868,1.66-3.188,3.724-2.687c1.475,0.358,3.026,1.256,4.698,1.662c1.77,0.43,3.609,0.357,5.477,0.811
					c1.917,0.466,2.576,1.823,2.134,3.642c-0.394,1.622-1.264,1.775-2.11,1.829c-0.834,0.006-1.669-0.197-1.884,0.688
					c-0.12,0.491,0.023,1.62,0.025,2.037l0.782,10.705l0.099,0.024l5.5-8.709c0.401-0.579,1.069-1.614,1.225-2.253
					c0.131-0.541-0.533-0.806-1.138-1.317c-0.616-0.462-1.222-1.182-0.864-2.656c0.37-1.523,1.688-2.661,3.261-2.279
					c1.376,0.334,2.78,1.196,4.304,1.566c1.671,0.406,3.413,0.309,5.133,0.728c2.064,0.501,2.53,2.228,2.076,4.096
					c-0.358,1.475-1.222,2.67-2.843,2.276c-0.443-0.107-0.837-0.412-1.279-0.519c-0.541-0.131-1.067,0.106-2.293,1.942
					L30.912,30.742z"/>
			</g>
			<g>
				<path fill="#F0693D" d="M81.693,23.277c-0.191-2.626-1.355-3.721-3.188-3.636c-1.551,0.065-4.385,1.308-4.078,5.529l0.326,4.503
					c0.195,2.72,0.424,3.27,0.801,3.243c0.188-0.014,0.32-0.118,0.502-0.225c0.18-0.107,0.365-0.168,0.693-0.191
					c0.703-0.051,1.41,0.604,1.553,2.575c0.129,1.782-0.328,3.276-1.641,3.372c-2.158,0.156-4.068-0.177-5.992-0.037
					c-1.782,0.129-3.53,0.727-5.125,0.843c-1.173,0.084-2.076-1.312-2.205-3.094c-0.102-1.408,0.323-2.711,1.87-2.823
					c0.329-0.023,0.57,0.053,0.855,0.08c0.238,0.03,0.482,0.153,0.717,0.137c0.657-0.048,0.807-0.578,0.607-3.345L66.9,23.452
					c-0.193-2.674-0.473-3.267-1.083-3.222c-0.469,0.034-0.914,0.396-1.524,0.44c-1.547,0.112-2.156-1.117-2.258-2.524
					c-0.129-1.782,0.563-3.294,1.595-3.369c1.079-0.078,2.286,0.306,3.88,0.19c1.313-0.095,2.123-0.625,3.295-0.71
					c1.314-0.095,1.355,0.468,1.49,2.344l0.086,1.173l0.094-0.007c1.834-2.679,4.471-4.662,7.848-4.907
					c4.129-0.299,8.189,2.377,8.582,7.818l0.574,7.927c0.205,2.814,0.52,3.263,1.084,3.222c0.232-0.017,0.461-0.127,0.689-0.238
					c0.273-0.114,0.553-0.182,0.834-0.202c1.547-0.112,2.154,1.116,2.256,2.524c0.131,1.782-0.562,3.294-2.531,3.437
					c-2.018,0.146-3.928-0.187-5.852-0.047c-1.781,0.129-2.779,0.672-4.469,0.795c-1.031,0.074-1.934-0.662-2.111-3.1
					c-0.152-2.111,0.605-2.731,1.262-2.779c0.234-0.017,0.43,0.063,0.574,0.1c0.193,0.08,0.389,0.16,0.529,0.15
					c0.562-0.041,0.561-0.7,0.371-3.327L81.693,23.277z"/>
			</g>
			<g>
				<path fill="#FEB62D" d="M48.741,28.912c-0.257,1.726-2.025,2.267-3.602,2.032c-1.838-0.274-3.255-1.829-2.97-3.742
					c0.353-2.363,3.073-4.144,8.851-3.281c1.876,0.28,4.399,0.848,5.91,2.033c1.821,1.422,1.964,3.285,1.539,6.137l-1.053,7.052
					c-0.218,1.465-0.038,1.798,0.375,1.859c0.3,0.045,0.612,0.014,0.912,0.059c1.201,0.18,1.725,1.293,1.562,2.383
					c-0.313,2.1-2.532,2.574-4.295,2.311c-1.726-0.258-3.544-1.181-3.919-3.039c-2.015,1.425-4.41,1.796-6.773,1.443
					c-3.415-0.51-6.409-2.799-5.838-6.625c1.328-8.892,12.269-2.541,13.008-7.493c0.213-1.426-0.999-2.297-2.237-2.482
					c-0.638-0.095-1.255-0.072-1.367,0.678L48.741,28.912z M51.584,35.818c-1.262,1.001-5.53-0.212-5.827,1.776
					c-0.196,1.313,0.787,1.919,1.875,2.083c2.214,0.331,3.498-0.82,3.829-3.034L51.584,35.818z"/>
			</g>
			<g>
				<path fill="#AEC348" d="M105.673,20.686c1.23,2.158-0.272,4.318-2.242,5.441c-2.299,1.31-5.25,0.818-6.614-1.574
					c-1.684-2.955-0.205-7.339,7.018-11.455c2.345-1.337,5.669-2.92,8.399-2.924c3.289-0.01,5.087,1.948,7.119,5.513l5.025,8.818
					c1.042,1.829,1.537,2.043,2.054,1.749c0.375-0.214,0.696-0.521,1.071-0.735c1.501-0.855,3.067-0.071,3.843,1.29
					c1.497,2.626-0.568,5.108-2.772,6.365c-2.158,1.229-5.004,1.795-7.058,0.045c-1.002,3.367-3.355,5.889-6.311,7.573
					c-4.268,2.433-9.632,2.507-12.357-2.277c-6.336-11.116,11.492-13.634,7.964-19.825c-1.016-1.782-3.139-1.69-4.687-0.809
					c-0.797,0.455-1.468,1.022-0.933,1.961L105.673,20.686z M114.928,25.913c-0.531,2.229-6.373,4.626-4.956,7.112
					c0.936,1.641,2.569,1.456,3.93,0.681c2.768-1.577,3.191-3.994,1.615-6.762L114.928,25.913z"/>
			</g>
		</g>
	</g>
	<g>
		<path fill="#CACACA" d="M10.408,58.963l-2.009-3.338c-0.08-0.131-0.14-0.28-0.14-0.43c0-0.561,0.51-0.75,0.83-0.75
			c0.39,0,0.57,0.16,0.74,0.479l1.429,2.628l1.419-2.628c0.19-0.36,0.37-0.479,0.71-0.479c0.3,0,0.81,0.189,0.81,0.75
			c0,0.149-0.06,0.299-0.14,0.43l-2.009,3.338v2.119c0,0.489-0.32,0.818-0.82,0.818c-0.5,0-0.819-0.329-0.819-0.818V58.963z"/>
		<path fill="#CACACA" d="M19.367,54.405c2.359,0,3.638,1.569,3.638,3.678c0,2.028-1.179,3.858-3.638,3.858
			c-2.579,0-3.638-1.68-3.638-3.858C15.729,55.975,17.009,54.405,19.367,54.405z M19.367,60.621c1.489,0,1.999-1.158,1.999-2.538
			s-0.66-2.358-1.999-2.358s-1.999,0.979-1.999,2.358S17.828,60.621,19.367,60.621z"/>
		<path fill="#CACACA" d="M25.209,55.265c0-0.489,0.32-0.819,0.819-0.819c0.5,0,0.819,0.33,0.819,0.819v3.938
			c0,0.979,0.55,1.418,1.489,1.418s1.489-0.439,1.489-1.418v-3.938c0-0.489,0.32-0.819,0.82-0.819c0.5,0,0.819,0.33,0.819,0.819
			v3.808c0,1.979-1.219,2.869-3.128,2.869c-1.909,0-3.128-0.891-3.128-2.869V55.265z"/>
		<path fill="#CACACA" d="M39.658,54.945c0.14-0.371,0.4-0.5,0.8-0.5h0.39c0.37,0,0.7,0.09,0.879,0.6l1.979,5.507
			c0.06,0.159,0.16,0.45,0.16,0.63c0,0.399-0.35,0.719-0.77,0.719c-0.36,0-0.62-0.129-0.739-0.449l-0.42-1.199h-2.639l-0.43,1.199
			c-0.11,0.32-0.34,0.449-0.729,0.449c-0.45,0-0.76-0.279-0.76-0.719c0-0.18,0.1-0.471,0.16-0.63L39.658,54.945z M40.648,56.225
			h-0.02l-0.97,2.888h1.919L40.648,56.225z"/>
		<path fill="#CACACA" d="M45.719,55.535c0-0.73,0.379-0.961,0.959-0.961h2.729c1.949,0,2.468,1.07,2.468,2
			c0,0.779-0.459,1.549-1.239,1.729v0.02c0.84,0.121,0.99,0.73,0.99,1.46c0,0.829,0.22,1.14,0.22,1.479
			c0,0.379-0.39,0.639-0.77,0.639c-0.899,0-0.97-0.869-0.97-1.158c0-1.26-0.229-1.77-1.129-1.77h-1.619v2.109
			c0,0.489-0.319,0.818-0.819,0.818c-0.5,0-0.819-0.329-0.819-0.818V55.535z M47.358,57.773h1.639c0.62,0,1.24-0.16,1.24-0.97
			c0-0.77-0.47-0.97-1.189-0.97h-1.689V57.773z"/>
		<path fill="#CACACA" d="M54.169,55.535c0-0.73,0.379-0.961,0.959-0.961h3.848c0.479,0,0.83,0.141,0.83,0.66s-0.35,0.66-0.83,0.66
			h-3.168v1.559h2.779c0.43,0,0.77,0.12,0.77,0.63s-0.34,0.63-0.77,0.63h-2.779v1.738h3.249c0.479,0,0.83,0.141,0.83,0.66
			s-0.35,0.66-0.83,0.66h-3.928c-0.58,0-0.959-0.23-0.959-0.96V55.535z"/>
		<path fill="#CACACA" d="M66.009,55.404c0-0.68,0.33-0.959,1.029-0.959c0.34,0,0.64,0.129,0.82,0.43l2.868,4.627h0.02v-4.268
			c0-0.529,0.301-0.789,0.79-0.789s0.79,0.26,0.79,0.789v5.646c0,0.65-0.28,1.02-0.97,1.02c-0.52,0-0.689-0.109-0.899-0.439
			l-2.849-4.497h-0.02v4.147c0,0.529-0.3,0.789-0.79,0.789s-0.79-0.26-0.79-0.789V55.404z"/>
		<path fill="#CACACA" d="M78.137,54.405c2.359,0,3.639,1.569,3.639,3.678c0,2.028-1.18,3.858-3.639,3.858
			c-2.578,0-3.637-1.68-3.637-3.858C74.5,55.975,75.779,54.405,78.137,54.405z M78.137,60.621c1.49,0,2-1.158,2-2.538
			s-0.66-2.358-2-2.358c-1.339,0-1.998,0.979-1.998,2.358S76.598,60.621,78.137,60.621z"/>
		<path fill="#CACACA" d="M85.488,55.954h-1.549c-0.471,0-0.85-0.239-0.85-0.689s0.379-0.69,0.85-0.69h4.737
			c0.47,0,0.849,0.24,0.849,0.69s-0.379,0.689-0.849,0.689h-1.55v5.128c0,0.489-0.319,0.818-0.818,0.818
			c-0.5,0-0.82-0.329-0.82-0.818V55.954z"/>
		<path fill="#CACACA" d="M97.078,54.945c0.141-0.371,0.4-0.5,0.801-0.5h0.389c0.37,0,0.7,0.09,0.88,0.6l1.979,5.507
			c0.06,0.159,0.159,0.45,0.159,0.63c0,0.399-0.35,0.719-0.77,0.719c-0.36,0-0.62-0.129-0.739-0.449l-0.42-1.199h-2.639l-0.43,1.199
			c-0.109,0.32-0.34,0.449-0.729,0.449c-0.45,0-0.76-0.279-0.76-0.719c0-0.18,0.101-0.471,0.16-0.63L97.078,54.945z M98.068,56.225
			h-0.02l-0.971,2.888h1.92L98.068,56.225z"/>
		<path fill="#CACACA" d="M103.14,55.265c0-0.489,0.319-0.819,0.819-0.819s0.82,0.33,0.82,0.819v5.127h2.738
			c0.469,0,0.85,0.24,0.85,0.69c0,0.449-0.381,0.689-0.85,0.689H104.1c-0.58,0-0.96-0.23-0.96-0.96V55.265z"/>
		<path fill="#CACACA" d="M113.567,54.405c2.358,0,3.638,1.569,3.638,3.678c0,2.028-1.179,3.858-3.638,3.858
			c-2.579,0-3.638-1.68-3.638-3.858C109.93,55.975,111.209,54.405,113.567,54.405z M113.567,60.621c1.489,0,1.999-1.158,1.999-2.538
			s-0.66-2.358-1.999-2.358s-1.999,0.979-1.999,2.358S112.028,60.621,113.567,60.621z"/>
		<path fill="#CACACA" d="M119.379,55.404c0-0.68,0.33-0.959,1.029-0.959c0.34,0,0.641,0.129,0.82,0.43l2.868,4.627h0.021v-4.268
			c0-0.529,0.299-0.789,0.789-0.789s0.789,0.26,0.789,0.789v5.646c0,0.65-0.279,1.02-0.969,1.02c-0.52,0-0.689-0.109-0.899-0.439
			l-2.849-4.497h-0.02v4.147c0,0.529-0.301,0.789-0.79,0.789s-0.79-0.26-0.79-0.789V55.404z"/>
		<path fill="#CACACA" d="M128.229,55.535c0-0.73,0.381-0.961,0.961-0.961h3.848c0.479,0,0.829,0.141,0.829,0.66
			s-0.351,0.66-0.829,0.66h-3.169v1.559h2.778c0.43,0,0.77,0.12,0.77,0.63s-0.34,0.63-0.77,0.63h-2.778v1.738h3.249
			c0.479,0,0.829,0.141,0.829,0.66s-0.351,0.66-0.829,0.66h-3.928c-0.58,0-0.961-0.23-0.961-0.96V55.535z"/>
	</g>
</g>
</svg>
